<svg width="800" height="600" xmlns="http://www.w3.org/2000/svg">
 <!-- Created with SVG-edit - http://svg-edit.googlecode.com/ -->
 <g>
  <title>Layer 1</title>
  <path d="m37,69c0,1 0,1 0,1c0,0 0,0 1,-1c0,0 2.45881,-0.69344 3,-2c0.38268,-0.92388 1,-2 2,-3c1,-1 2,-2 3,-3c0,0 1,-1 2,-2c1,-1 2,-2 2,-2c1,-1 2.07612,-2.61732 3,-3c1.30656,-0.54119 1.61732,-2.07612 2,-3c0.54119,-1.30656 2,-2 3,-3c1,-1 1.07612,-1.61732 2,-2c1.30656,-0.54119 1.61732,-2.07612 2,-3c0.54119,-1.30656 2,-3 2,-3c1,-1 2,-2 3,-4c0,0 1,-2 2,-3c1,-1 2.1731,-1.85273 3,-3c1.30745,-1.81399 1.61732,-2.07612 2,-3c0.5412,-1.30656 2,-2 2,-2c1,0 1,-1 2,-1c0,0 -0.29289,-0.70711 -1,0c-1.41422,1.41421 -0.1731,2.85273 -1,4c-1.30745,1.81399 -0.61732,3.07612 -1,4c-0.5412,1.30656 -1.61732,3.07612 -2,4c-0.5412,1.30656 -1,3 -2,4c-1,1 0.56538,3.15098 -2,5c-0.81124,0.58471 -2,2 -3,4c-1,2 -2,4 -3,6c-1,2 -1,3 -3,5c-1,1 -2,3 -3,5c-1,2 -1.69255,4.186 -3,6c-0.8269,1.14727 -2,3 -3,5c-1,2 -0.71412,3.21168 -3,6c-0.8966,1.09367 -2.45881,3.69344 -3,5c-0.38268,0.92388 -0.41886,3.41886 -2,5c-1.58114,1.58114 -2.91761,2.38687 -4,5c-0.76537,1.84776 -0.09789,4.82443 -2,6c-0.85065,0.52573 -1.23463,2.15224 -2,4c-0.54119,1.30656 -2,2 -2,3c0,1 -0.61732,2.07612 -1,3c-0.5412,1.30656 -1.4588,1.69344 -2,3c-0.76537,1.84776 -0.61732,3.07612 -1,4c-0.5412,1.30656 -0.61732,2.07612 -1,3c-0.5412,1.30656 -1,2 -1,2c0,1 -1,1 -1,1c0,0 -1,1 0,1c1,0 -0.22975,-2.02675 0,-3c0.51374,-2.17625 0.77025,-3.02675 1,-4c0.51374,-2.17625 0.77025,-2.02675 1,-3c0.51374,-2.17625 1.48626,-2.82375 2,-5c0.22975,-0.97325 0.4588,-1.69344 1,-3c0.38268,-0.92388 0.23463,-2.15224 1,-4c0.54119,-1.30656 1.48626,-1.82375 2,-4c0.22975,-0.97325 1.45881,-2.69344 2,-4c0.76537,-1.84776 1.45881,-3.69344 2,-5c0.38268,-0.92388 0,-2 1,-4c1,-2 1.77025,-4.02675 2,-5c0.51374,-2.17625 1.77025,-4.02675 2,-5c0.51374,-2.17625 1.23463,-3.15224 2,-5c0.54119,-1.30656 1.1731,-2.85273 2,-4c1.30745,-1.814 1.1731,-2.85273 2,-4c1.30745,-1.81399 2.1731,-1.85273 3,-3c1.30745,-1.81399 1.34619,-1.70546 3,-4c1.30745,-1.81399 1.41886,-2.41886 3,-4c1.58114,-1.58114 2,-2 4,-4c1,-1 2.1731,-1.85273 3,-3c1.30745,-1.81399 2.61732,-3.07612 3,-4c1.08239,-2.61312 3,-3 5,-5c1,-1 3.186,-1.69255 5,-3c1.14727,-0.8269 1.69344,-1.45881 3,-2c0.92388,-0.38268 2.07612,-0.61732 3,-1c1.30656,-0.5412 2,-1 3,-1c1,0 1,0 2,0c1,0 2,0 2,0c1,0 2,0 3,0c1,0 1,1 2,1c1,0 1.29289,-0.70711 2,0c0.70711,0.70711 0.29289,0.29289 1,1c0.70711,0.70711 0,1 0,1c1,1 1,1 1,2c0,0 0,1 0,2c0,0 0,1 0,2c0,0 -1,1 -1,2c0,1 -0.61732,2.07612 -1,3c-0.5412,1.30656 -1.29289,2.29289 -2,3c-0.70711,0.70711 -1,1 -2,2c-1,1 -1.29289,2.29289 -2,3c-0.70711,0.70711 -0.69344,1.45881 -2,2c-0.92388,0.38268 -1.4588,-0.30656 -2,1c-0.38268,0.92388 -1.29289,0.29289 -2,1c-0.70711,0.70711 -0.29289,1.29289 -1,2c-0.70711,0.70711 -3.29289,1.29289 -4,2c-0.70711,0.70711 -0.69344,1.45881 -2,2c-1.84776,0.76537 -3.07612,0.61732 -4,1c-1.30656,0.5412 -1.01291,0.83982 -2,1c-3.12144,0.50654 -3.07612,0.61732 -4,1c-1.30656,0.5412 -2.07612,0.61732 -3,1c-1.30656,0.5412 -2,1 -3,1c-1,0 -2,0 -3,0c-1,0 -1.69344,-0.4588 -3,-1c-0.92388,-0.38268 -2,-1 -2,-2c0,-2 0,-3 0,-5l1,-2" id="svg_1" stroke="#000000" fill="none"/>
  <path d="m156,85c0,-1 0,-1 0,-1c0,0 0,0 0,-1c0,0 0,0 0,0c-1,0 -1,0 -2,0c0,0 0,0 -1,0c0,0 -1,0 -2,0c0,0 0,0 -1,0c-1,0 -1,0 -2,0c-1,0 -1,0 -2,1c0,0 -0.29289,0.29289 -1,1c-0.70711,0.70711 -3,1 -4,2c0,0 -1,1 -2,2c-1,1 -1.61731,2.07612 -2,3c-0.5412,1.30656 -1.61731,2.07612 -2,3c-0.5412,1.30656 -1,1 -1,2c0,0 -1,1 -1,2c0,1 0,1 0,2c0,1 0,2 0,3c0,1 0,2 0,2c0,1 0.29289,1.29289 1,2c0.70711,0.70711 0.29289,0.29289 1,1c0.70711,0.70711 0.69344,1.4588 2,2c0.92387,0.38268 2,0 2,0c1,1 2,1 3,1c1,0 2,0 3,0c1,0 2,0 2,0c1,-1 2.07613,-0.61732 3,-1c1.30656,-0.5412 2.29289,-1.29289 3,-2c0.70711,-0.70711 2,-1 2,-1c1,0 0.69344,-1.4588 2,-2c0.92387,-0.38268 1,-1 2,-2c0,0 1,-1 1,-1c1,-1 1.29289,-1.29289 2,-2c0.70711,-0.70711 1,-2 1,-4c0,-1 1,-2 1,-3c0,0 0.4588,-0.69344 1,-2c0.38269,-0.92388 0,-1 0,-2c0,-1 0,-2 0,-2c-1,-1 -1,-1 -1,-2c0,0 -1,-1 -1,-1c0,0 0,0 -1,-1c0,0 0,0 -1,0c0,0 0,0 -1,0c0,0 -1,0 -1,0c0,0 0,0 0,1c0,0 0,0 0,0c1,0 1,1 2,1c1,0 3.07613,-0.61732 4,-1c1.30656,-0.5412 2.02675,-0.77025 3,-1c2.17625,-0.51374 2.69344,-1.4588 4,-2c0.92387,-0.38268 1.58578,0.41422 3,-1c0.70711,-0.70711 1,-1 3,-1l0,0l0,0" id="svg_2" stroke="#000000" fill="none"/>
  <path d="m209,78c0,0 0,0 0,0c1,0 1,-1 1,-1c1,0 1,0 1,0c1,0 2,-1 2,-1c0,0 1,0 2,0c0,0 0,0 1,0c0,0 0,1 0,1c0,0 0.29289,0.29289 1,1c0.70711,0.70711 0,1 0,2c0,0 0,1 -1,2c0,0 0,1 0,1c0,0 0,1 0,1c0,1 -0.4588,0.69344 -1,2c-0.38269,0.92388 0.38269,1.07612 0,2c-0.5412,1.30656 -1,1 -1,2c0,0 0,1 -1,2c0,0 -1,2 -1,2c0,0 0,1 0,1c-1,1 -1,2 -1,2c-1,1 -1,1 -1,2c0,0 0.70711,0.29289 0,1c-0.70711,0.70711 -1,0 -1,0c0,0 0,1 1,1c0,0 0,0 0,1c0,0 0,0 0,1c0,0 0,0 0,0c0,0 0,1 1,1c0,0 0,0 0,0c0,0 0,0 1,1c0,0 0,0 0,0c0,0 1,0 1,0c0,0 1,0 1,0c0,0 1,-1 1,-1c1,0 1.29289,0.70711 2,0c0.70711,-0.70711 1,-1 1,-1c0,0 1,-1 1,-1c1,0 1.29289,-0.29289 2,-1c0.70711,-0.70711 0.29289,-0.29289 1,-1c0.70711,-0.70711 1,-2 1,-2c1,-1 1,-1 1,-1c1,-1 1.29289,-1.29289 2,-2c0.70711,-0.70711 1,-2 1,-2c1,-1 1.4588,-0.69344 2,-2c0.38269,-0.92388 -0.90211,-1.82443 1,-3c0.85065,-0.52573 1,-1 1,-1c1,-1 1.4588,-0.69344 2,-2c0.38269,-0.92388 0.61731,-1.07612 1,-2c0.5412,-1.30656 2,-2 3,-3c1,-1 1.4588,-0.69344 2,-2c0.38269,-0.92388 1,-2 1,-2c0,-1 1,-1 1,-1c0,-1 0,-1 0,0l1,0l0,0" id="svg_3" stroke="#000000" fill="none"/>
  <path d="m265,106c0,0 1,0 1,0c0,0 1,0 1,0c1,-1 1.186,-0.69255 3,-2c1.14728,-0.8269 2.186,-0.69255 4,-2c1.14728,-0.8269 2.82443,-1.09789 4,-3c0.52573,-0.85065 2.1731,-0.85273 3,-2c1.30746,-1.814 2,-3 4,-5c1,-1 2,-2 3,-3c1,-1 2,-2 3,-3c1,-1 2.4588,-2.69344 3,-4c0.38269,-0.92388 1.29291,-2.29289 2,-3c1.41422,-1.41422 0.29291,-2.29289 1,-3c0.70709,-0.70711 -0.38269,-2.07612 0,-3c0.5412,-1.30656 1,-2 1,-2c0,-1 -1,-1 -1,-1c0,-1 0,-1 0,-1c-1,-1 -1,-1 -2,-1c0,0 -0.07611,-0.38268 -1,0c-1.30655,0.5412 -0.69345,1.4588 -2,2c-0.92389,0.38268 -2,1 -3,2c-1,1 -2,2 -3,3c-1,1 -1,2 -1,2c-1,1 -1.48627,0.82375 -2,3c-0.22977,0.97325 -1.48627,1.82375 -2,4c-0.22977,0.97325 -1,2 -1,3c0,1 0,2 0,3c0,1 0,2 0,2c0,1 0.4588,1.69344 1,3c0.38269,0.92388 0.69345,2.4588 2,3c0.92389,0.38268 3,1 3,1c1,0 2,1 3,1c1,0 2.0535,0.4595 4,0c2.17624,-0.51374 2.69345,-1.4588 4,-2c1.84775,-0.76537 3.41885,-0.41886 5,-2c1.58115,-1.58114 2.41885,-1.41886 4,-3c1.58115,-1.58114 3.07611,-3.61732 4,-4c2.61313,-1.08239 3.81265,-4.20681 6,-6c2.78833,-2.28588 3.59399,-4.51301 6,-6c2.69,-1.66251 4,-3 5,-4c1,-1 1,-1 2,-2c0,0 0,0 0,0c1,0 2,0 3,0c1,0 3,0 4,0c1,0 2,0 2,1c0,0 0,0 0,1c0,1 -1,2 -2,3c-1,1 -1.1731,1.85273 -2,3c-1.30746,1.814 -1.23462,2.15224 -2,4c-0.5412,1.30656 -2,3 -2,4c0,1 -0.29291,2.29289 -1,3c-0.70709,0.70711 -1.41422,2.58578 0,4c0.70709,0.70711 0.29291,1.29289 1,2c0.70709,0.70711 1,1 1,1c1,1 2,1 3,1c1,0 3.69345,-0.4588 5,-1c1.84775,-0.76537 4,-1 5,-2c2,-2 4.70547,-3.34619 7,-5c1.814,-1.30745 6.21167,-2.71412 9,-5c1.09366,-0.8966 3.81265,-3.20681 6,-5c2.78833,-2.28588 6.22272,-3.72399 10,-7c1.06836,-0.9266 4.5582,-4.51929 8,-7c1.814,-1.30745 5.21167,-3.71412 8,-6c2.18735,-1.79319 5,-4 8,-7c2,-2 5.186,-4.69255 7,-6c3.4418,-2.48072 6.21167,-6.71412 9,-9c2.18735,-1.79319 5,-4 8,-7c1,-1 2.69345,-3.4588 4,-4c0.92389,-0.38268 1,-1 1,-1c-1,1 -2,3 -4,5c-1,1 -3.4505,2.45049 -6,5c-2.5495,2.54951 -5,6 -8,10c-3,4 -4.64886,5.19577 -7,9c-2.62866,4.25325 -5.75531,8.132 -8,12c-1.80972,3.11848 -4,7 -6,11c-2,4 -3.49347,5.87856 -4,9c-0.48056,2.96127 0,5 0,7c0,1 0.4588,1.69344 1,3c0.38269,0.92388 1.69345,2.4588 3,3c0.92389,0.38268 3.01291,1.16018 4,1c3.12143,-0.50654 5.88153,-1.19028 9,-3c1.93399,-1.12234 5,-2 9,-4c2,-1 6.50424,-3.03551 11,-6c2.3613,-1.55702 7,-4 11,-6c4,-2 4.90778,-2.49622 9,-3c0.99249,-0.12218 2.07611,-0.38268 3,0c1.30655,0.5412 1.38269,3.07612 1,4c-0.5412,1.30656 -1,2 -1,3c0,1 1,3 1,3c1,1 3.02582,1.32037 5,1c3.12143,-0.50654 4.90634,-2.1034 6,-3c2.78833,-2.28588 4,-2 5,-3c0,0 1,0 2,-1c0,0 0.30746,1.186 -1,3c-0.8269,1.14727 -1.91754,3.05665 -4,6c-2.88785,4.0817 -6,9 -10,13c-2,2 -9,10 -14,15c-6,6 -10.86713,11.13902 -14,14c-5.76727,5.26675 -12.95032,10.06024 -19,15c-4.95975,4.04979 -9.57111,8.67947 -14,11c-2.80109,1.46764 -6.07843,2.78986 -9,4c-2.06586,0.85571 -3,1 -5,1c0,0 -1.4588,-0.69344 -2,-2c-0.76538,-1.84776 0.49347,-3.87856 1,-7c0.32037,-1.97418 2.37134,-4.74675 5,-9c1.17557,-1.90211 5,-6 9,-10c2,-2 5.79489,-5.22021 9,-8c3.77728,-3.27601 7.21167,-4.71412 10,-7c2.18735,-1.79319 5.22937,-3.33199 9,-5c3.29733,-1.45864 4.87857,-3.49346 8,-4c1.97418,-0.32037 5.00342,-0.91752 6,-1c6.06204,-0.50171 9.98453,-2.08074 15,-3c5.98309,-1.0966 11.09662,-2.53374 17,-4c6.13806,-1.52454 11.88049,-4.25195 18,-7c4.91257,-2.20606 9.93414,-4.14429 12,-5c2.92157,-1.21015 3,-2 4,-3l-1,-3" id="svg_4" stroke="#000000" fill="none"/>
  <path d="m397,43c0,0 0,0 0,1c0,1 0.87857,2.49346 4,3c1.97418,0.32037 6,0 11,0c6,0 11.92578,-0.49755 17,-1c1.99026,-0.19707 6,0 10,1c4,1 5,1 8,2l2,1" id="svg_5" stroke="#000000" fill="none"/>
  <path transform="rotate(1.00213, 609.344, 73.5137)" d="m545,92c0,0 -0.70709,0.29289 0,1c0.70709,0.70711 2.02673,-0.77025 3,-1c2.17627,-0.51374 4.06598,-2.87766 6,-4c3.11847,-1.80972 5.91827,-4.11214 10,-7c2.94336,-2.08247 7,-5 8,-6c3,-3 6.21167,-4.71412 9,-7c2.18732,-1.79319 5.21167,-4.71412 8,-7c1.09369,-0.8966 3.21167,-3.71412 6,-6c1.09369,-0.8966 2,-2 2,-2c1,-1 0.92389,-1.38268 0,-1c-1.30658,0.54119 -2.90631,3.1034 -4,4c-2.78833,2.28588 -5.22021,4.79488 -8,8c-3.276,3.77727 -4.90967,5.30805 -7,9c-2.03143,3.58793 -2.4588,5.69344 -3,7c-0.76538,1.84776 0,4 0,6c0,1 0.23462,2.15224 1,4c0.5412,1.30656 2.02673,2.77025 3,3c2.17627,0.51374 4,0 7,-1c3,-1 6.7027,-3.54136 10,-5c3.77063,-1.66801 8,-3 11,-5c3,-2 5.86829,-4.28859 10,-6c2.92157,-1.21015 4.55817,-2.51929 8,-5c3.62799,-2.61491 7,-5 10,-7c3,-2 4.85272,-3.1731 6,-4c1.81396,-1.30745 2.29291,-1.29289 3,-2c0.70709,-0.70711 1.70709,-0.70711 1,0c-1.41418,1.41422 -0.69257,4.18601 -2,6c-0.8269,1.14727 -1.75531,4.132 -4,8c-1.80969,3.11848 -4.71411,7.21168 -7,10c-1.79321,2.18734 -5,4 -6,5c-2,2 -5.88153,4.19028 -9,6c-1.93402,1.12234 -5,2 -7,2c-1,0 -4.07611,0.38268 -5,0c-1.30658,-0.5412 -2.4588,-1.69344 -3,-3c-0.76538,-1.84776 0.41888,-4.41886 2,-6c1.58112,-1.58114 2.87854,-2.49346 6,-3c0.98706,-0.16018 4,-1 7,-1c2,0 3.90778,0.49622 8,1c2.97754,0.36655 6.08026,0.31074 9,1c2.17627,0.51374 2.82373,1.48626 5,2c2.91974,0.68926 5.82373,0.48626 8,1c2.91974,0.68926 6,1 8,1c3,0 5,0 7,0c2,0 4,-1 6,-2l2,-2l2,-1l2,-2" id="svg_6" stroke="#000000" fill="none"/>
  <path d="m39,212c0,0 0,1 0,1c0,0 1.69344,-0.4588 3,-1c0.92388,-0.38269 3.18601,-0.69255 5,-2c1.14727,-0.8269 2.85273,-2.1731 4,-3c1.81399,-1.30745 2.6475,-2.97252 7,-4c0.97325,-0.22975 3,-2 5,-4c2,-2 4,-3 5,-4c2,-2 3.797,-4.2565 5,-5c2.68999,-1.66251 5.31001,-2.33749 8,-4c2.40601,-1.487 2.69255,-3.186 4,-5c1.65381,-2.29454 3.69255,-4.186 5,-6c0.8269,-1.14726 2.78985,-4.07843 4,-7c0.85571,-2.06586 1.78985,-5.07843 3,-8c0.85571,-2.06586 1.78985,-4.07843 3,-7c0.85571,-2.06586 1.49346,-4.87856 2,-8c0.32037,-1.97418 -0.22975,-3.02675 0,-4c0.51374,-2.17625 1,-3 1,-4c0,-1 0,-2 -1,-3c0,0 -1.02675,-0.22975 -2,0c-2.17625,0.51375 -4.20681,1.81265 -6,4c-2.28588,2.78833 -4,5 -5,7c-1,2 -2.33749,5.31001 -4,8c-1.48699,2.40601 -2.14429,2.93414 -3,5c-1.21015,2.92157 -2.14429,5.93414 -3,8c-1.21015,2.92157 -2,4 -3,7c-1,3 -1.33749,6.31001 -3,9c-0.7435,1.203 -2,4 -3,7c-1,3 -2.49346,6.87856 -3,10c-0.32037,1.97418 -0.33749,5.31001 -2,8c-1.48699,2.40601 -1.29289,3.29289 -2,4c-0.70711,0.70711 -1,1 -1,1c1,0 0.69255,-2.186 2,-4c1.65381,-2.29454 3.20681,-4.81265 5,-7c2.28588,-2.78833 3,-4 5,-7c2,-3 4,-5 6,-7c3,-3 6,-5 7,-6c2,-2 4.59399,-3.513 7,-5c2.68999,-1.66251 4,-1 6,-1c0,0 1,1 1,2c0,3 0,4 0,6c0,1 0,3 0,4c0,3 -0.68926,4.08025 0,7c0.51374,2.17625 1,3 2,5c1,2 1.61732,3.07613 2,4c0.5412,1.30656 3,2 3,2c1,0 3.31001,0.66251 6,-1c2.40601,-1.487 5,-3 6,-4c2,-2 4.297,-4.61383 7,-7c1.67633,-1.47984 6.85274,-5.1731 8,-6c3.62799,-2.6149 7.06601,-3.87766 9,-5c3.11848,-1.80972 5,-4 7,-5c2,-1 4.29289,-2.29289 5,-3c0.70711,-0.70711 1,-1 1,-1c0,0 -1.85274,0.1731 -3,1c-1.814,1.30745 -4,2 -5,3c-2,2 -4.21167,2.71413 -7,5c-1.09367,0.89659 -3.34619,2.70546 -5,5c-1.30745,1.814 -2.61731,4.07613 -3,5c-0.5412,1.30656 -1.23463,2.15224 -2,4c-0.5412,1.30656 -1,3 -1,4c0,0 -0.70711,2.29289 0,3c0.70711,0.70711 1.29289,1.29289 2,2c1.41422,1.41422 4.07613,-1.61731 5,-2c2.61313,-1.0824 3.85274,-4.1731 5,-5c1.814,-1.30745 4,-3 6,-5c2,-2 2.69255,-3.186 4,-5c1.65381,-2.29454 4,-3 5,-5c1,-2 2.69255,-4.186 4,-6c0.8269,-1.14726 0.29289,-2.29289 1,-3c0.70711,-0.70711 1,-1 1,-2c0,-1 -0.07613,-1.38269 -1,-1c-1.30656,0.5412 -2.9176,1.38687 -4,4c-0.38269,0.92387 -1.1731,2.85274 -2,4c-1.30745,1.814 -2.23463,4.15224 -3,6c-0.5412,1.30656 -2,3 -2,4c0,2 -1,3 -1,4c0,0 -0.38269,1.07613 0,2c0.5412,1.30656 1,2 2,2c0,0 1,1 2,1c1,0 3.29289,-0.29289 4,-1c1.41422,-1.41422 5.186,-0.69255 7,-2c1.14726,-0.8269 3.31001,-1.33749 6,-3c2.40601,-1.487 5.21167,-3.71413 8,-6c3.28101,-2.68979 4.21167,-3.71413 7,-6c2.18735,-1.7932 3,-3 4,-4c0,0 1,-1 1,-1c1,0 1,0 1,1c0,0 0.62361,0.67508 2,1c3.07768,0.72655 4.15224,-1.76537 6,-1c1.30656,0.5412 2,1 2,2c0,1 -0.69255,2.186 -2,4c-0.8269,1.14726 -1.61731,2.07613 -2,3c-0.5412,1.30656 -1.4588,2.69344 -2,4c-0.38269,0.92387 0,3 0,4c0,2 -0.30656,4.4588 1,5c0.92387,0.38269 0.69344,0.4588 2,1c1.84776,0.76537 4.82375,-1.48625 7,-2c0.97325,-0.22975 3,-2 6,-4c3,-2 6.15927,-3.61064 9,-5c3.23892,-1.58411 4.80565,-3.44841 9,-5c3.867,-1.4305 7.15927,-2.61064 10,-4c3.23892,-1.58411 5.07843,-2.78986 8,-4c2.06586,-0.85571 4.07613,-1.61731 5,-2c1.30656,-0.5412 2.07611,-0.61731 3,-1c1.30655,-0.5412 1,-1 1,-1c0,0 -0.03873,-0.48055 -3,0c-3.12144,0.50655 -4.06601,0.87766 -6,2c-3.11848,1.80972 -6,3 -9,5c-3,2 -5,3 -8,5c-3,2 -5,4 -7,6c-1,1 -3.48625,1.82375 -4,4c-0.22975,0.97325 -0.61731,3.07613 -1,4c-0.5412,1.30656 -1,2 -1,3c0,1 0.4588,1.69344 1,3c0.38269,0.92387 2.07613,1.61731 3,2c1.30656,0.5412 2.01498,1.24437 4,1c4.09221,-0.50377 4.93414,-2.14429 7,-3c2.92157,-1.21014 6.06601,-2.87766 8,-4c3.11848,-1.80972 5.11649,-4.79486 7,-6c5.39359,-3.45099 6.5582,-7.51929 10,-10c1.814,-1.30745 5.51929,-4.5582 8,-8c2.6149,-3.62799 4.87766,-8.06601 6,-10c1.80972,-3.11848 4.87766,-6.06601 6,-8c1.80972,-3.11848 4.1731,-5.85274 5,-7c2.6149,-3.62799 5,-7 7,-10c2,-3 3.33749,-7.31001 5,-10c1.487,-2.40601 2.5405,-5.0535 3,-7c0.51373,-2.17625 1.48627,-2.82375 2,-5c0.22977,-0.97325 -0.29291,-1.29289 -1,-2c-0.70709,-0.70711 -2,-1 -4,1c-1,1 -3,2 -5,4c-1,1 -3,4 -5,6c-2,2 -4.1731,3.85274 -5,5c-1.30746,1.814 -3.95517,3.54915 -5,7c-0.28979,0.95709 -2,4 -4,8c-2,4 -3,6 -5,9c-2,3 -3.49347,6.87856 -4,10c-0.16019,0.98709 -0.31073,4.08025 -1,7c-0.51373,2.17625 -1,5 -1,9c0,1 0.49347,3.87856 1,7c0.48056,2.96126 1,6 2,8c1,2 3,5 5,6c2,1 5,2 9,2c2,0 6.98877,-1.06982 13,-2c6.98792,-1.08131 13,-1 19,-1l6,1l5,2" id="svg_7" stroke="#000000" fill="none"/>
  <path d="m380,205c0,-1 0,-1 0,-1c0,-1 0.29291,-0.29289 1,-1c0.70709,-0.70711 1,-1 1,-1c1,-1 2.5412,-1.30656 2,0c-0.38269,0.92387 -1,1 -1,1c-1,0 -1.29291,0.29289 -2,1c-0.70709,0.70711 -1,1 -1,1c0,0 -1,0 -1,0c0,0 0,-1 0,-1c1,-2 1.29291,-2.29289 2,-3c0.70709,-0.70711 1.07611,-0.61731 2,-1c1.30655,-0.5412 2,-1 2,-1c0,0 1,0 1,1c0,0 -0.29291,1.29289 -1,2c-0.70709,0.70711 -1.07611,0.61731 -2,1c-1.30655,0.5412 -2,1 -3,1c-1,0 -1,0 -2,0c0,0 0,-1 0,-2c0,-1 2,-2 3,-3c1,-1 3,-1 4,-1c2,0 3.15225,-0.76537 5,0c1.30655,0.5412 2,2 2,3c0,2 0,3 0,6c0,1 -1,3 -2,5c-1,2 -2.1731,3.85274 -3,5c-1.30746,1.814 -2,5 -4,7c-2,2 -4,5 -5,6c-3,3 -5.5582,5.51929 -9,8c-1.814,1.30745 -5.5582,4.51929 -9,7c-3.62799,2.6149 -8,3 -9,3l-5,-1" id="svg_8" stroke="#000000" fill="none"/>
  <path d="m447,197c0,0 0,0 0,0c1,0 1,0 1,0c0,0 1,0 1,0c0,0 0,0 0,0c0,0 0,1 0,1c0,0 1,1 1,1c0,0 0,1 0,1c0,1 -1,1 -1,1c0,0 0,1 0,1c-1,1 -1,1 -1,1c-1,1 -1,2 -2,2c0,0 -1,1 -1,1c0,0 -1,0 -1,0c0,0 0.12143,-0.49345 -3,-1c-0.98709,-0.16019 -1,0 -1,0c0,-1 0,-1 0,-1c0,-1 0,-2 0,-3c0,0 0,-1 0,-2c0,0 0,-1 0,-1c1,-1 0.29291,-1.29289 1,-2c0.70709,-0.70711 1,-1 1,-1c1,-1 1,-1 1,-1c1,-1 1,-1 1,-1c1,0 1,0 2,-1c0,0 1,0 2,-1c0,0 2,0 2,0c1,0 1,0 2,0c0,0 0.29291,0.29289 1,1c0.70709,0.70711 1,0 2,1c0,0 0.29291,-0.70711 1,0c0.70709,0.70711 1,1 1,2c0,1 -0.38269,1.07613 0,2c0.5412,1.30656 1,2 1,3c0,1 -0.4588,2.69344 -1,4c-0.38269,0.92387 -0.4588,2.69344 -1,4c-0.38269,0.92387 -1.48627,1.82375 -2,4c-0.22977,0.97325 -1.69254,3.186 -3,5c-1.65381,2.29454 -1.71411,3.21167 -4,6c-1.79318,2.18735 -3,4 -5,6c-2,2 -2.71411,3.21167 -5,6c-1.79318,2.18735 -4.9176,3.38687 -6,6c-0.38269,0.92387 -1.61731,3.07613 -2,4c-0.5412,1.30656 -1,1 -2,2l0,0l-1,1l0,0" id="svg_9" stroke="#000000" fill="none"/>
  <path d="m506,202c-1,0 -1,0 -1,0c-1,1 -1,1 -1,1c-1,0 -1,0 -1,0c-1,0 -1,0 -1,0c-1,0 -1,0 -1,0c0,-1 0,-1 0,-1c0,-1 0,-2 0,-2c0,-1 0,-1 1,-2c0,0 0,-1 1,-1c0,0 1,-1 2,-1c0,0 1,0 1,0c1,0 1,0 1,0c1,0 0.29291,0.29289 1,1c0.70709,0.70711 1,1 1,1c0,0 0,1 0,1c0,1 0,1 -1,2c0,0 0,1 -1,2c0,0 0,1 -1,1c-1,0 -1.29291,0.29289 -2,1c-0.70709,0.70711 -1,1 -2,1c0,0 -1,0 -2,0c0,0 0,0 -1,-1c0,0 0,-1 0,-2c0,0 1,-1 1,-1c1,-1 1,-2 2,-2c1,0 1,-1 2,-1c0,0 0.29291,0.29289 1,1c0.70709,0.70711 1,0 1,0c0,1 0,1 0,1c0,1 0.38269,1.07613 0,2c-0.5412,1.30656 -1.29291,1.29289 -2,2c-0.70709,0.70711 -1,1 -2,1c-1,0 -2,0 -2,0c-1,0 -2.29291,0.70711 -3,0c-1.41422,-1.41422 0.29291,-5.29289 1,-6c0.70709,-0.70711 2.82443,-1.09789 4,-3c0.52573,-0.85065 0.69345,-1.4588 2,-2c0.92389,-0.38269 2,0 2,0c1,1 1,1 2,2c0,0 1,1 1,2c0,0 1,1 1,2c0,1 0,2 0,5c0,0 -1,3 -1,3c-1,2 -0.69254,3.186 -2,5c-0.8269,1.14726 -1.14935,2.47427 -2,3c-1.9021,1.17557 -2.4588,2.69344 -3,4c-0.76538,1.84776 -0.69254,3.186 -2,5c-0.8269,1.14726 -1.85272,2.1731 -3,3c-1.814,1.30745 -3.69254,3.186 -5,5c-0.8269,1.14726 -2.41885,2.41885 -4,4c-1.58115,1.58115 -2.41885,1.41885 -4,3c-1.58115,1.58115 -1.1731,1.85274 -2,3c-1.30746,1.814 -2,3 -3,4c-1,1 -0.69254,2.186 -2,4c-0.8269,1.14726 -1.61731,2.07613 -2,3c-0.5412,1.30655 -2,1 -2,2l0,0l0,1l0,0" id="svg_10" stroke="#000000" fill="none"/>
  <path d="m49,338c0,0 0,0 1,0c0,0 1,0 3,0c0,0 2,-1 3,-1c1,0 2.02675,-0.77023 3,-1c2.17625,-0.51373 4.85273,-3.1731 6,-4c1.814,-1.30746 4,-2 6,-3c2,-1 2.85273,-3.1731 4,-4c1.814,-1.30746 4,-3 5,-4c2,-2 3,-3 5,-5c2,-2 3.51301,-2.59399 5,-5c1.66251,-2.69 3,-5 5,-7c1,-1 2.71412,-3.21167 5,-6c1.79319,-2.18735 2.33749,-3.31 4,-6c1.48699,-2.40601 3.87766,-4.06601 5,-6c1.80972,-3.11847 5,-6 7,-9c2,-3 4.2565,-5.797 5,-7c1.66251,-2.69 2.95517,-4.54916 4,-8c0.28979,-0.95709 1.48626,-2.82376 2,-5c0.68926,-2.91975 1,-5 1,-6c0,-1 0,-2 0,-3c0,-1 0,-2 0,-2c-1,-2 -2,-2 -2,-2c-3,0 -3.04291,-0.28978 -4,0c-3.45084,1.04483 -4.07612,2.61731 -5,3c-2.61313,1.0824 -4.34619,3.70546 -6,6c-1.30745,1.814 -3,3 -5,5c-1,1 -1.69255,3.186 -3,5c-1.65381,2.29453 -3.49346,3.87857 -4,7c-0.16018,0.98709 -0.78985,3.07843 -2,6c-0.85571,2.06586 -1,3 -2,5c-1,2 -0.31074,3.08026 -1,6c-0.51374,2.17624 -0.5405,4.0535 -1,6c-0.51374,2.17624 -0.61732,5.07611 -1,6c-0.5412,1.30655 -1,3 -1,5c0,1 -0.76537,3.15225 0,5c0.5412,1.30655 1,2 1,4c0,1 0,3 0,4c0,2 1,3 1,3c0,1 -0.30656,2.4588 1,3c0.92388,0.38269 2,0 4,0c1,0 2.186,0.30746 4,-1c1.14727,-0.8269 3.186,-0.69254 5,-2c1.14727,-0.8269 3,-2 4,-3c1,-1 1.23463,-1.15225 2,-3c0.5412,-1.30655 2,-2 2,-4c0,0 1,-2 1,-2c0,-2 -0.4588,-2.69345 -1,-4c-0.38268,-0.92389 -1,-3 -1,-3c-1,-1 -2.4588,-1.69345 -3,-3c-0.38268,-0.92389 -0.29289,-1.29291 -1,-2c-0.70711,-0.70709 -1,-1 -1,-1c0,1 -0.52573,1.14935 0,2c1.17557,1.9021 2.07612,0.61731 3,1c1.30656,0.5412 3.69344,0.5412 5,0c1.84776,-0.76538 3,0 5,0c1,0 2,0 3,0c2,0 5,0 7,0c0,0 2.02582,-0.67963 4,-1c3.12144,-0.50653 5.02675,-1.77023 6,-2c2.17625,-0.51373 2.85274,-1.1731 4,-2c1.814,-1.30746 4,-1 5,-2c1,-1 2,-2 4,-3c0,0 2,-1 2,-1c1,-1 1,-1 1,-1c0,0 -1,1 -2,2c-1,1 -2.69255,3.186 -4,5c-0.8269,1.14728 -2,3 -3,5c-1,2 -0.69255,3.186 -2,5c-0.8269,1.14728 -1,3 -2,5c-1,2 -2.48625,2.82376 -3,5c-0.22975,0.97324 -1.48625,1.82376 -2,4c-0.22975,0.97324 0,2 0,2c0,1 0,2 0,3c0,0 2.02675,0.22977 3,0c2.17625,-0.51373 3.186,-2.69254 5,-4c2.29454,-1.65381 4.06601,-3.87766 6,-5c3.11848,-1.80972 4,-3 6,-5c2,-2 3.90633,-5.10339 5,-6c2.78833,-2.28589 5,-5 6,-7c1,-2 3.4588,-3.69345 4,-5c0.38269,-0.92389 0.61731,-1.07611 1,-2c0.5412,-1.30655 1,0 0,1c-2,2 -3,3 -4,4c-2,2 -3,5 -5,7c-2,2 -3.48625,3.82376 -4,6c-0.22975,0.97324 -1,2 -1,3c0,1 0,2 0,2c1,1 0.61731,2.07611 1,3c0.5412,1.30655 2,1 3,1c1,0 2.03874,0.48056 5,0c3.12144,-0.50653 4.186,-0.69254 6,-2c1.14726,-0.8269 4.186,-1.69254 6,-3c2.29454,-1.65381 4.186,-2.69254 6,-4c2.29454,-1.65381 3.21167,-2.71411 6,-5c2.18735,-1.79318 5,-4 6,-5c4,-4 5.81265,-6.20682 8,-8c2.78833,-2.28589 5,-5 8,-8c1,-1 3.19028,-3.88153 5,-7c2.24469,-3.86798 3.71413,-6.21167 6,-9c1.7932,-2.18735 3,-5 4,-6c1,-1 1.48625,-1.82376 2,-4c0.22975,-0.97325 1,-2 1,-2c-1,0 -1,0 -3,2c-2,2 -3,3 -5,5c-2,2 -3.2565,4.797 -4,6c-1.66251,2.69 -2.33749,6.31 -4,9c-0.7435,1.203 -2,4 -3,7c-1,3 -2.30322,5.76935 -3,7c-2.03145,3.58792 -3.49345,6.87857 -4,10c-0.16019,0.98709 -0.4588,3.69345 -1,5c-0.38269,0.92389 0.5405,3.0535 1,5c0.51375,2.17624 1.69344,3.4588 3,4c0.92387,0.38269 2.186,0.69254 4,2c1.14726,0.8269 2,1 6,1c2,0 6.08582,-0.42044 8,-1c3.45085,-1.04483 7,-3 11,-5c4,-2 6.93414,-3.14429 9,-4c2.92157,-1.21014 4,-3 5,-4l2,-2l0,-3" id="svg_11" stroke="#000000" fill="none"/>
  <path d="m206,254c0,1 -1.16019,3.01291 -1,4c0.50655,3.12143 2,4 4,5c2,1 3.87856,2.49347 7,3c2.96126,0.48056 6.00974,0.80292 8,1c5.0742,0.50244 8.9258,0.50244 14,0c4.97566,-0.49268 8.64749,-1.9725 13,-3c1.9465,-0.4595 6,-1 10,-2l2,0" id="svg_12" stroke="#000000" fill="none"/>
  <path d="m363,299c0,0 -1,0 -1,0c-1,-1 -1,-1 -2,-1c-1,0 -2,-1 -4,-1c-1,0 -3,0 -4,0c-2,0 -4.02582,-0.32037 -6,0c-3.12143,0.50653 -5.02676,0.77023 -6,1c-2.17624,0.51373 -2.82376,1.48627 -5,2c-1.9465,0.4595 -4.07611,0.61731 -5,1c-2.61313,1.0824 -4.1731,2.85272 -5,4c-1.30746,1.814 -3.34619,3.70547 -5,6c-1.30746,1.814 -3,5 -5,8c-2,3 -3.41589,4.76108 -5,8c-1.38934,2.84073 -2.49347,4.87857 -3,8c-0.32037,1.97418 -1,4 -1,6c0,2 -1,4 -1,6c0,2 0,4 0,6c0,1 1,3 1,5c0,1 0.61731,3.07611 1,4c0.5412,1.30655 1.29291,1.29291 2,2c0.70709,0.70709 0.83771,2 4,2c3.16229,0 5.02582,-0.67963 7,-1c3.12143,-0.50653 6.31,-1.33749 9,-3c1.203,-0.7435 4.186,-1.69254 6,-3c2.29453,-1.65381 5,-4 7,-6c1,-1 4.29361,-3.7265 8,-8c3.276,-3.77728 4.724,-5.22272 8,-9c2.77979,-3.20511 6,-6 8,-9c2,-3 4.1731,-6.85272 5,-8c2.6149,-3.62799 3,-7 5,-11c2,-4 2.79395,-5.08743 5,-10c1.83203,-4.07965 3.87766,-8.06601 5,-10c1.80972,-3.11847 4.54135,-6.70267 6,-10c1.66803,-3.77063 2.44839,-5.80566 4,-10c1.43048,-3.867 3.49347,-6.87857 4,-10c0.16019,-0.98709 0.31073,-4.08025 1,-7c0.51373,-2.17625 1.22977,-5.02675 1,-6c-0.51373,-2.17625 -1,-3 -2,-4c-1,-1 -3.04291,-1.28978 -4,-1c-3.45084,1.04483 -4.71411,4.21167 -7,7c-0.89661,1.09367 -2.71411,3.21167 -5,6c-1.79318,2.18735 -3.87766,5.06601 -5,7c-1.80972,3.11847 -5.41589,5.76108 -7,9c-1.38934,2.84073 -2.42044,6.08582 -3,8c-1.04483,3.45084 -2.78986,7.07843 -4,10c-1.71143,4.13171 -1.78986,6.07843 -3,9c-1.71143,4.13171 -2.83981,7.01291 -3,8c-0.50653,3.12143 -2.49347,5.87857 -3,9c-0.16019,0.98709 0.14804,4.22836 -1,7c-0.5412,1.30655 -1.4595,4.0535 -1,6c0.51373,2.17624 0.61731,4.07611 1,5c0.5412,1.30655 0.5405,3.0535 1,5c0.51373,2.17624 1,3 2,4c1,1 2,2 3,3c1,1 3,1 5,1c2,0 1.82376,-0.48627 4,-1c1.9465,-0.4595 4,-1 5,-1c2,0 4.0535,0.4595 6,0c2.17624,-0.51373 4.41885,-0.41885 6,-2c1.58115,-1.58115 1.70547,-2.34619 4,-4c1.814,-1.30746 3.34619,-1.70547 5,-4c1.30746,-1.814 2.34619,-1.70547 4,-4c1.30746,-1.814 3.41885,-3.41885 5,-5c1.58115,-1.58115 3,-4 4,-5c2,-2 3.4588,-3.69345 4,-5c0.38269,-0.92389 1.4588,-1.69345 2,-3c0.76538,-1.84775 1,-4 1,-4c0,-1 0,-2 0,-3c0,-1 -1,-2 -1,-2c-1,-1 -1,-2 -1,-2c-2,0 -2.07611,0.61731 -3,1c-2.61313,1.0824 -3.186,2.69254 -5,4c-1.14728,0.8269 -2,2 -3,4c-1,2 -2,3 -3,5c-1,2 -1.61731,3.07611 -2,4c-0.5412,1.30655 -2,3 -2,4c0,2 0,4 0,5c0,1 -0.38269,3.07611 0,4c0.5412,1.30655 1.29291,2.29291 2,3c0.70709,0.70709 0.29291,1.29291 1,2c0.70709,0.70709 0.69345,1.4588 2,2c0.92389,0.38269 1,0 3,0c1,0 4,1 5,1c3,0 4.82376,-0.48627 7,-1c1.9465,-0.4595 3.797,-0.2565 5,-1c2.69,-1.66251 5.186,-1.69254 7,-3c2.29453,-1.65381 4,-3 5,-4c2,-2 5,-4 8,-7c3,-3 4.22272,-3.724 8,-7c3.20511,-2.77979 4.71899,-5.31021 8,-8c2.78833,-2.28589 5,-5 6,-6c3,-3 5.79486,-6.11649 7,-8c3.45099,-5.39359 7.19028,-7.88153 9,-11c1.12234,-1.93399 4.19028,-5.88153 6,-9c2.24469,-3.86798 3.22055,-5.83127 7,-11c2.12817,-2.91046 3.19028,-4.88153 5,-8c1.12234,-1.93399 2,-5 2,-6c0,-1 1,-3 1,-3c0,-1 -1,-2 -1,-2c0,-1 -1.01291,-2.16019 -2,-2c-3.12143,0.50655 -3.69254,1.186 -5,3c-1.65381,2.29454 -4,5 -5,6c-3,3 -4.52017,5.32367 -6,7c-2.38617,2.703 -5,5 -7,7c-3,3 -4.87766,6.06601 -6,8c-1.80972,3.11847 -3,6 -4,8c-1,2 -0.85196,5.22836 -2,8c-0.5412,1.30655 -2,5 -3,8c-1,3 -1,5 -2,8c-1,3 -1.49347,3.87857 -2,7c-0.48056,2.96127 -1,6 -1,9c0,2 0.14429,4.93414 1,7c1.21014,2.92157 0.61731,4.07611 1,5c0.5412,1.30655 2,2 3,3c1,1 1.69345,1.4588 3,2c0.92389,0.38269 3.69345,-0.4588 5,-1c0.92389,-0.38269 3,-1 4,-2c1,-1 1.9176,-1.38687 3,-4c0.76538,-1.84775 0.49347,-2.87857 1,-6c0.32037,-1.97418 0.68927,-3.08026 0,-6c-0.51373,-2.17624 -1.61731,-3.07611 -2,-4c-0.5412,-1.30655 -2,-2 -2,-2c0,-1 0,-1 0,-1c0,0 -0.30655,1.4588 1,2c1.84775,0.76538 3,1 4,1c2,0 4.02582,0.32037 6,0c3.12143,-0.50653 5,-1 8,-1c2,0 4.02249,-0.63345 7,-1c4.09222,-0.50378 7.01498,-0.75565 9,-1c4.09222,-0.50378 7.90778,-1.49622 12,-2c1.98499,-0.24435 6.0769,-1.73145 10,-3c5.12396,-1.65686 6.88855,-3.19409 12,-6c5.88043,-3.22806 11.07275,-6.8819 16,-10c6.09344,-3.85614 9.11328,-4.83505 15,-9c4.08173,-2.88785 9,-7 11,-9c5,-5 6.9176,-6.38687 8,-9c0.38269,-0.92389 1,-2 1,-2c0,-1 -2.18604,-1.30746 -4,0c-2.29456,1.65381 -2.71411,4.21167 -5,7c-2.68976,3.28101 -5,6 -7,8c-3,3 -6.86328,7.14682 -9,9c-3.77728,3.276 -8.29364,7.7265 -12,12c-3.276,3.77728 -6.28857,7.86829 -8,12c-1.21014,2.92157 -2.49622,4.90778 -3,9c-0.48871,3.97003 0,8 0,9c0,3 1.69257,6.186 3,8c1.65381,2.29453 5.02582,2.67963 7,3c3.12146,0.50653 8,2 14,2c3,0 12.94672,-1.49875 20,-2c3.98993,-0.28357 11.1405,-1.56122 18,-4c7.17572,-2.55121 10,-4 15,-8l2,-1l3,-6" id="svg_13" stroke="#000000" fill="none"/>
  <path d="m556,273c-1,1 -2,1 -3,1c0,0 0,1 1,2c2,2 4,2 8,3c4,1 8.82373,1.48627 11,2c4.86627,1.14877 9.90778,1.49622 14,2c4.96252,0.61093 6.90778,0.49622 11,1c3.97003,0.48874 7,-1 8,-1c3,0 3.82373,0.48627 6,1c0.97327,0.22977 2,1 3,2l0,0" id="svg_14" stroke="#000000" fill="none"/>
  <path d="m85,416c0,0 0,0 0,0c0,0 1,-1 1,-1c1,0 1,0 1,0c1,-1 1,-1 1,-1c1,-1 1,-1 1,-1c1,-1 1,-1 2,-2c0,0 1,0 1,-1c0,0 1,0 2,-1c0,0 0,-1 1,-1c0,0 1,-1 1,-1c0,-1 0.29289,-1.29291 1,-2c0.70711,-0.70709 0.29289,-0.29291 1,-1c0.70711,-0.70709 1,-1 1,-1c1,-1 1.29289,-0.29291 2,-1c0.70711,-0.70709 0.4588,-0.69345 1,-2c0.38268,-0.92389 1,-1 1,-2c0,0 0.29289,-0.29291 1,-1c0.70711,-0.70709 1,-1 1,-1c1,-1 2,-2 2,-2c1,-1 1,-1 2,-2c0,0 0.29289,-0.29291 1,-1c0.70711,-0.70709 1,-1 1,-1c0,-1 1,-1 1,-1c0,-1 1,-1 1,-2c0,0 0,0 1,-1c0,0 0,0 0,0c1,-1 1,-1 1,-1c0,0 0,-1 1,-1c0,0 0,0 0,0c0,-1 1,-1 1,-1c0,0 -0.70711,-0.29291 0,-1c0.70711,-0.70709 1,0 1,0c0,-1 0,-1 0,-1c1,0 1,0 1,-1c0,0 0,0 0,0c1,-1 1,-1 1,-1c0,-1 1,-1 1,-1c0,-1 0.29289,-0.29291 1,-1c0.70711,-0.70709 1,-1 1,-2c0,0 0.29289,-0.29291 1,-1c0.70711,-0.70709 0,-1 1,-1c0,0 0,-1 0,-1c0,0 1,-1 1,-1c0,-1 0,-1 1,-1c0,0 0,0 0,-1c0,0 0,0 0,0c0,-1 0,-1 0,-1c1,0 1,-1 1,-1c0,0 1,-1 1,-1c0,0 1,0 1,-1c0,0 0,0 0,-1c0,0 1,0 1,0c0,-1 1,-1 1,-1c0,-1 0.29289,-1.29291 1,-2c0.70711,-0.70709 0.29289,-0.29291 1,-1c0.70711,-0.70709 1,0 1,-1c0,0 1,1 1,0c0,-1 -1,1 -1,1c-1,0 -0.29289,0.29291 -1,1c-0.70711,0.70709 -1,0 -1,0c-1,1 -0.29289,1.29291 -1,2c-0.70711,0.70709 -1.29289,0.29291 -2,1c-0.70711,0.70709 0,1 -1,2c0,0 -0.4588,-0.30655 -1,1c-0.38268,0.92389 -0.29289,0.29291 -1,1c-0.70711,0.70709 0.70711,1.29291 0,2c-0.70711,0.70709 -1,0 -1,1c0,0 -1,1 -1,1c0,1 0,1 -1,2c0,0 0,1 0,1c-1,1 -1,1 -1,1c0,1 0.70711,1.29291 0,2c-0.70711,0.70709 -1,1 -1,1c0,1 -1,1 -1,2c0,0 -1,1 -1,1c0,1 0,1 0,1c0,1 -1,1 -1,1c0,1 0,1 0,2c0,0 -1,1 -1,1c0,0 0,1 0,1c0,0 -1,1 -1,1c0,1 0,1 0,1c0,0 -1,1 -1,1c0,0 0,1 0,1c0,0 0,1 -1,1c0,0 0,0 0,1c0,0 0,1 0,1c-1,0 -1,1 -1,1c0,0 0,0 0,1c0,0 0,0 0,1c0,0 0,0 0,0c0,1 -1,1 -1,2c0,0 0,0 0,1c0,0 0,0 0,1c0,0 0,0 1,1c0,0 0,0 0,0c0,1 0.29289,0.29291 1,1c0.70711,0.70709 0,1 0,1c1,0 0.29289,0.29291 1,1c0.70711,0.70709 1,0 1,0c1,0 1,0 1,0c1,0 1,0 1,0c1,0 1,0 1,0c1,0 1,0 2,0c0,0 1,0 1,0c0,0 1,0 1,0c1,0 1,0 2,0c0,0 1,-1 1,-1c0,0 1,0 1,0c0,0 1,0 1,0c0,0 1,0 1,0c0,0 1.29289,0.70709 2,0c0.70711,-0.70709 0,-1 1,-1c0,0 0,0 1,0c0,0 1,0 1,0c0,0 1,0 1,0c1,-1 1,-1 1,-1c1,0 1,0 1,0c1,0 1,0 2,0c0,0 1,-1 1,-1c1,0 1,0 1,0c1,-1 2,-1 2,-1c1,-1 1.29289,-0.29291 2,-1c0.70711,-0.70709 0.29289,-1.29291 1,-2c0.70711,-0.70709 1.29289,-0.29291 2,-1c0.70711,-0.70709 1.29289,-0.29291 2,-1c0.70711,-0.70709 1.29289,-0.29291 2,-1c0.70711,-0.70709 1.82443,-1.0979 3,-3c0.52573,-0.85065 0.07613,-0.61731 1,-1c1.30656,-0.5412 1.29289,-1.29291 2,-2c0.70711,-0.70709 1.29289,-0.29291 2,-1c0.70711,-0.70709 1.29289,-1.29291 2,-2c0.70711,-0.70709 0.07613,-0.61731 1,-1c1.30656,-0.5412 1,-1 2,-2c0,0 1,-1 1,-1c1,0 2,-1 2,-1c0,0 1,-1 1,-1c0,0 1,-1 1,-1c0,0 1.29289,-0.29291 2,-1c0.70711,-0.70709 0,-1 1,-2c0,0 1,0 1,-1c0,0 1,0 1,-1c0,0 0.29289,-0.29291 1,-1c0.70711,-0.70709 0.29289,-0.29291 1,-1c0.70711,-0.70709 1,-2 1,-2c1,-1 0.61731,-1.07611 1,-2c0.5412,-1.30655 1,-1 1,-1c1,-1 1,-2 1,-2c1,-1 1,-1 1,-2c0,0 1,-1 1,-1c0,-1 0,-1 1,-1c0,0 0,-1 0,-1c0,0 0,0 0,1c0,1 0,1 0,2c0,0 0,1 0,1c0,1 0,1 0,2c0,0 0,1 0,1c1,1 1,2 1,2c0,1 0,1 0,1c0,1 0,1 0,2c0,0 0,1 0,2c0,0 0,1 0,2c0,0 0,1 0,2c0,0 0.38269,1.07611 0,2c-0.5412,1.30655 -1,2 -1,2c0,1 0,1 0,2c0,1 0,2 0,2c-1,1 -1,1 -1,1c0,1 -0.29289,1.29291 -1,2c-0.70711,0.70709 0,1 0,1c0,1 -1,2 -1,2c-1,0 -1,1 -1,1c-1,1 -1,1 -2,2c0,0 -1,1 -1,1c-1,0 -1,1 -2,2c0,0 -0.29289,0.29291 -1,1c-0.70711,0.70709 -0.69344,0.4588 -2,1c-0.92387,0.38269 -1,1 -2,1c0,0 -1,1 -1,1c-1,1 -1,1 -2,1c0,0 -1,1 -2,1c0,0 -0.29289,0.29291 -1,1c-0.70711,0.70709 -1,0 -1,0c0,0 -1,0 -1,0c0,0 -1,1 -1,1c-1,0 -1,0 -2,0c0,0 -0.29289,0.70709 -1,0c-0.70711,-0.70709 -1,-1 -1,-1c0,0 -1,0 -1,0c0,0 -1,0 -1,-1c0,0 -1,0 -1,0c0,0 0,0 -1,0c0,0 0,0 0,0c-1,0 -1,0 -1,-1c0,0 0,0 -1,0c0,0 0,0 0,-1c0,0 0,0 0,0c0,0 0,-1 0,-1c0,0 0,0 0,-1c0,0 0,0 0,-1c0,0 0,0 0,-1c0,0 0.29289,0.70709 1,0c0.70711,-0.70709 0,-1 0,-1c0,0 0,0 1,0c0,0 0,0 0,0c0,0 1,0 1,0c0,0 1,0 1,0c0,0 0,0 1,0c0,0 0,1 1,1c0,0 0,0 0,0c1,0 1,0 1,1c0,0 1,0 1,0c0,0 0,1 1,1c0,0 0,0 0,0c0,1 1,1 1,1c0,0 0,0 0,0c1,1 1,1 1,1c0,1 0,1 0,1c0,0 0,1 1,1c0,0 0,0 0,0c0,0 -0.70711,0.29291 0,1c0.70711,0.70709 1,0 1,0c0,0 0,0 1,1c0,0 0,0 1,0c0,0 -0.70711,0.29291 0,1c0.70711,0.70709 1,0 1,0c1,0 1,0 2,0c0,0 0,0 1,0c0,0 0,0 1,1c0,0 0,0 1,0c0,0 1,0 1,0c0,0 1,0 1,0c1,0 1,0 1,0c1,1 1,1 2,1c0,0 1,0 2,0c0,0 0,0 1,0c0,0 1,0 1,0c1,0 1,0 2,0c0,0 1,0 1,0c0,0 1,0 1,0c1,0 1,0 2,0c0,0 1,-1 1,-1c1,0 1,0 2,0c0,0 1,0 1,0c1,0 1,-1 2,-1c0,0 0.29289,-0.29291 1,-1c0.70711,-0.70709 1,0 2,-1c0,0 0,0 1,0c0,0 0,0 1,1l0,0l0,0" id="svg_15" stroke="#000000" fill="none"/>
  <path d="m158,336c0,1 0,1 0,1c0,0 -0.29289,-0.70709 -1,0c-0.70711,0.70709 0,1 0,1c0,0 0,1 0,1c-1,0 0,0 0,0l0,0" id="svg_16" stroke="#000000" fill="none"/>
  <path d="m80,437c0,0 0,0 0,-1c0,0 0,0 0,0c0,0 0,0 0,-1c0,0 0,0 0,0c0,0 1,-1 1,-1c0,0 1,1 1,0c0,-1 -1,0 0,-1c0,0 0,0 0,0c0,0 0,0 1,-1c0,0 0.29289,0.70709 1,0c0.70711,-0.70709 0,-1 1,-1c0,0 0,0 1,0c0,0 0,-1 1,-1c0,0 0,0 1,0c0,0 0,0 0,0c1,0 1,0 1,0c0,0 0,0 1,0c0,0 0,0 0,0c0,0 0.29289,-0.70709 1,0c0.70711,0.70709 0.29289,0.29291 1,1c0.70711,0.70709 0,1 0,1c0,0 1,0 1,1c0,0 0,0 0,0c0,1 0.29289,0.29291 1,1c0.70711,0.70709 0,1 0,1c0,1 0,1 0,2c0,0 0,1 0,1c0,1 0,2 0,2c0,0 0,1 0,2c0,0 0.38268,0.07611 0,1c-0.5412,1.30655 -0.29289,1.29291 -1,2c-0.70711,0.70709 -0.29289,0.29291 -1,1c-0.70711,0.70709 -1,1 -1,1c0,0 -1,0 -1,0c-1,1 -1,1 -2,1c0,0 -1,1 -1,1c0,-1 0,-1 0,-1c-1,0 -1,0 -1,0c0,0 0,0 -1,0c0,0 0,0 -1,-1c0,0 0,0 0,0c0,-1 0,-1 0,-1c0,-1 0,-1 0,-1c0,-1 0,-2 0,-2c0,-1 0.4588,-0.69345 1,-2c0.38268,-0.92389 0.29289,-1.29291 1,-2c0.70711,-0.70709 0,-1 1,-2c0,0 1,-1 1,-2c0,0 0.61732,-0.07611 1,-1c0.5412,-1.30655 1.4588,-0.69345 2,-2c0.38268,-0.92389 0.29289,-1.29291 1,-2c0.70711,-0.70709 1.61732,-0.07611 2,-1c0.5412,-1.30655 2,-1 3,-2c0,0 1.29289,0.70709 2,0c0.70711,-0.70709 1,-1 1,-1c1,0 1,-1 2,-1c1,0 2,0 2,0c1,0 1,0 2,0c0,0 0,0 0,0c1,1 1,1 1,1c1,1 1,1 1,2c0,0 0,0 0,0c0,1 0,2 1,2c0,0 0,0 0,1c0,1 -1,1 -1,1c0,1 0,1 0,2c0,0 0,1 0,2c0,0 0,1 0,1c-1,1 -1,1 -1,2c0,1 0,2 0,3c0,0 0,1 0,2c0,1 0.76537,2.15225 0,4c-0.5412,1.30655 -1,2 -1,3c0,1 -1,3 -1,4c0,1 -1,3 -1,4c0,1 -1,1 -1,2c0,2 -1,2 -1,4c0,0 -1,1 -1,2c0,1 -0.4588,1.69345 -1,3c-0.38268,0.92389 0,3 -1,4c0,0 -0.4588,2.69345 -1,4c-0.38268,0.92389 -0.4588,0.69345 -1,2c-0.38268,0.92389 -1,2 -1,3c0,1 -0.4588,1.69345 -1,3c-0.38268,0.92389 0,2 0,2c-1,1 -1,2 -1,2c-1,1 -2,3 -2,5c0,0 -0.23463,1.15225 -1,3c-0.5412,1.30655 -1.23463,2.15225 -2,4c-0.5412,1.30655 -1,1 -2,3c0,0 -0.91761,0.38687 -2,3c-0.38268,0.92389 -0.77025,2.02676 -1,3c-0.51374,2.17627 -1.4588,1.69342 -2,3c-0.38268,0.92389 -1.4588,1.69342 -2,3c-0.38268,0.92389 0,1 -2,4c0,0 -0.61732,1.07611 -1,2c-0.5412,1.30658 -1.4588,1.69342 -2,3c-0.38268,0.92389 -1,2 -1,2c0,1 -0.61732,2.07611 -1,3c-0.5412,1.30658 -0.61732,1.07611 -1,2c-0.5412,1.30658 -0.29289,2.29291 -1,3c-0.70711,0.70709 -0.29289,1.29291 -1,2c-0.70711,0.70709 -1,1 -1,1c-1,1 -1,2 -1,2c0,1 -1,1 -1,2c0,1 -1,1 -1,2c0,1 -0.29289,0.29291 -1,1c-0.70711,0.70709 0,2 0,2c-1,1 -1,2 -1,2c-1,1 -0.29289,2.29291 -1,3c-0.70711,0.70709 -1,1 -1,2c0,0 -1,1 -1,1c0,1 -0.29289,1.29291 -1,2c-0.70711,0.70709 -0.29289,1.29291 -1,2c-0.70711,0.70709 0,2 -1,2c0,0 0.70711,1.29291 0,2c-0.70711,0.70709 -1,1 -1,1c-1,1 -1,1 -1,2c0,1 -1,1 -1,2c0,0 -1,1 -1,2c0,0 -1,1 -1,2c0,1 -1,1 -1,2c0,1 -1,2 -1,3c0,0 0,1 -1,2c0,0 0,1 -1,2c0,0 0,1 -1,2c0,0 0,0 0,1c0,0 -0.61732,1.92389 -1,1c-0.54119,-1.30658 1,-2 2,-2l2,0l0,0" id="svg_17" stroke="#000000" fill="none"/>
  <path d="m199,429c0,0 0,0 0,0c-1,0 -1,0 -1,0c-1,0 -2.07613,0.61731 -3,1c-1.30656,0.5412 -1,2 -2,3c-1,1 -1.4588,1.69345 -2,3c-0.38269,0.92389 -0.61731,2.07611 -1,3c-0.5412,1.30655 -1.61731,2.07611 -2,3c-0.5412,1.30655 -1.61731,2.07611 -2,3c-0.5412,1.30655 -1.48625,0.82376 -2,3c-0.22975,0.97324 -0.61731,3.07611 -1,4c-0.5412,1.30655 -2.4588,1.69345 -3,3c-0.38269,0.92389 -1,3 -2,4c-1,1 -1,2 -2,3c-1,1 -1.29289,2.29291 -2,3c-0.70711,0.70709 -2.4588,0.69345 -3,2c-0.76537,1.84775 -1,2 -2,3c-1,1 -0.69255,2.186 -2,4c-0.8269,1.14728 -1,1 -2,2c-1,1 -1,2 -2,4c0,0 -1.4588,0.69345 -2,2c-0.38269,0.92389 -1,1 -1,1c0,1 -0.61731,2.07611 -1,3c-0.5412,1.30655 -1,2 -2,3c0,0 -0.61731,1.07611 -1,2c-0.5412,1.30655 -1.29289,1.29291 -2,2c-0.70711,0.70709 -1.48625,1.82376 -2,4c-0.22975,0.97324 -0.4588,1.69345 -1,3c-0.38269,0.92389 -1,2 -1,2c-1,1 -0.58578,2.58578 -2,4c-0.70711,0.70709 -1.4588,0.69345 -2,2c-0.38269,0.92389 -1.4588,2.69345 -2,4c-0.38269,0.92389 -0.61731,2.07611 -1,3c-0.5412,1.30658 -1.4588,1.69342 -2,3c-0.38269,0.92389 -1.4588,1.69342 -2,3c-0.38269,0.92389 -2,4 -2,4c-1,2 -2.48625,2.82373 -3,5c-0.22975,0.97327 -1.4588,1.69342 -2,3c-0.76537,1.84778 -1.4588,2.69342 -2,4c-0.38269,0.92389 0.30745,2.18604 -1,4c-0.8269,1.14728 -1.48626,0.82373 -2,3c-0.22975,0.97327 -1.4588,1.69342 -2,3c-0.38268,0.92389 -1,2 -1,3c0,1 -1,2 -1,3c0,0 -1,1 -1,2c0,0 -1,1 -1,1c0,1 -1,2 -1,2c0,1 -0.29289,1.29291 -1,2c-0.70711,0.70709 0,2 -1,3c0,0 0.70711,0.29291 0,1c-0.70711,0.70709 -1,0 -1,1c0,0 -1,1 -1,2c0,0 -0.29289,0.29291 -1,1c-0.70711,0.70709 0,2 0,2c-1,0 -1,0 -1,1c0,0 0,1 0,1c0,0 0,0 0,0c0,0 0.29289,1.70709 1,1c0.70711,-0.70709 1,-2 1,-3l1,-1" id="svg_18" stroke="#000000" fill="none"/>
  <path d="m88,486c0,0 0,1 0,1c1,0 1,0 1,1c0,0 1,0 1,1c0,0 0,0 1,1c0,0 0,0 1,1c0,0 1,1 1,1c1,1 1,1 2,2c0,0 1,1 2,2c0,0 1,1 1,1c1,0 1,1 2,1c0,0 1,1 1,1c1,0 0.69344,0.4588 2,1c0.92388,0.38269 0.69344,0.4588 2,1c0.92388,0.38269 0.69344,0.4588 2,1c0.92388,0.38269 2,0 2,0c1,0 1,1 2,1c0,0 1,0 2,0c0,0 1,1 2,1c0,0 0.29289,0.29291 1,1c0.70711,0.70709 2,0 2,0c1,0 1,1 2,1c1,0 1,0 2,0c0,0 0,0 1,0c1,0 2,0 3,0c1,0 1,0 2,0c1,0 1,0 2,0c1,0 2,0 2,0c1,0 2,0 3,0c0,0 1,0 2,0c1,0 2,0 2,0c2,0 3,0 3,0c1,0 2,0 3,0c1,0 1,0 2,0c1,0 2,0 3,0c0,0 1,-1 2,-1c0,0 1,0 2,0c1,0 2,-1 3,-1c1,0 1,0 2,0c1,0 2,-1 3,-1c1,0 1.69344,-0.4588 3,-1c0.92387,-0.38269 1.69344,-0.4588 3,-1c0.92387,-0.38269 2,0 3,0c0,0 1,-1 2,-1c1,0 2.07613,0.38269 3,0c1.30656,-0.5412 2,-1 2,-1c1,0 2,0 3,0c1,0 1,0 2,0c0,0 1,0 2,0c0,0 1,0 2,0c0,0 0,0 1,0c1,0 1,0 2,0c1,0 1,0 2,1c0,0 2,0 2,1l1,0l1,1l0,0" id="svg_19" stroke="#000000" fill="none"/>
  <path d="m253,497c0,0 -1,0 -1,0c-1,0 -1,0 -2,-1c0,0 -1,0 -1,0c-1,0 -1.29289,0.29291 -2,1c-0.70711,0.70709 -2,1 -5,2c0,0 -1,1 -2,1c-1,0 -2,1 -3,1c0,0 -1,1 -2,1c0,0 -1.02675,0.77023 -2,1c-2.17625,0.51373 -2.61731,2.07611 -3,3c-0.5412,1.30655 -2,1 -3,2c-1,1 -1,1 -3,3c0,0 -1.4588,0.69345 -2,2c-0.38269,0.92389 -1,2 -2,3c0,0 -0.14935,0.47424 -1,1c-1.90211,1.1756 -1.4588,2.69342 -2,4c-0.38269,0.92389 0.41422,2.58582 -1,4c-0.70711,0.70709 -2,2 -2,3c0,0 -0.61731,1.07611 -1,2c-0.5412,1.30658 -1.4588,1.69342 -2,3c-0.38269,0.92389 -1,2 -1,3c0,0 -0.4588,0.69342 -1,2c-0.38269,0.92389 0,1 0,2c0,1 0,1 0,2c0,1 0,1 0,1c0,1 0,1 0,1c0,0 1,1 1,1c1,1 0.29289,1.29291 1,2c0.70711,0.70709 1,1 1,1c1,0 1,1 2,1c0,0 0,1 1,1c0,0 0,0 0,0c1,0 1,1 1,1c1,0 1,0 1,0c0,0 1,0 1,0c0,0 1,1 1,1c0,0 1,0 1,0c1,0 1,0 2,0c0,0 0.29289,0.29291 1,1c0.70711,0.70709 1.29289,0.70709 2,0c0.70711,-0.70709 1,-1 1,-1c1,0 1,0 2,0c1,0 1,0 2,0c1,0 1,0 2,0c0,0 1,-1 2,-1c0,0 1,0 1,0c2,-1 3,-1 3,-1c1,-1 2,-1 2,-1c1,-1 3.07613,-1.61731 4,-2c1.30656,-0.5412 1,-1 2,-2c1,-1 2,-1 2,-1c1,-1 2.1731,-0.85272 3,-2c1.30745,-1.81396 2,-3 3,-4c1,-1 1.29289,-1.29291 2,-2c0.70709,-0.70709 1,-2 2,-3c0,0 0.61731,-1.07611 1,-2c0.5412,-1.30658 1,-2 1,-2c1,-2 1,-2 2,-3c0,0 0.4588,-0.69342 1,-2c0.38269,-0.92389 0,-2 1,-3c0,0 0,-1 0,-2c0,0 1,-1 1,-2c0,0 0,-1 0,-1c0,-1 1,-1 1,-2c0,-1 0,-2 0,-2c0,-1 0,-1 0,-2c0,0 -0.29291,-0.29291 -1,-1c-0.70709,-0.70709 0.70709,-1.29291 0,-2c-0.70709,-0.70709 -1,-1 -1,-1c0,0 -1,-1 -1,-1c0,-1 0.70709,-1.29291 0,-2c-0.70709,-0.70709 -1,0 -1,-1c0,0 0,-1 -1,-1c0,0 -0.29291,0.70709 -1,0c-0.70709,-0.70709 0,-1 0,-1c-1,0 -1,0 -1,0c0,-1 0,-1 -1,-1c0,0 0,0 0,0c-1,-1 -1,-1 -1,-1c0,0 0,0 -1,0c0,0 0,0 0,0c-1,0 -1,0 -1,0c0,0 -1,0 -1,0c0,0 0,0 -1,0c0,0 0,0 0,0c0,0 -1,0 -1,1c0,0 0,0 0,1c0,0 0,0 0,0c-1,0 -1,1 0,1c0,0 0,0 0,0c0,0 -0.30656,0.4588 1,1c0.92387,0.38269 2,1 3,1l0,0" id="svg_20" stroke="#000000" fill="none"/>
  <path d="m317,491c0,0 0,0 0,0c0,0 0,1 0,1c0,1 0,1 0,4c0,1 0,3 0,5c0,1 0,2 0,2c0,1 0,3 -1,4c0,0 0,1 0,2c0,1 -1,2 -1,2c0,1 0,2 0,3c0,1 -1,2 -1,3c0,1 0,2 0,2c-1,1 -1,2 -1,2c0,1 -1,2 -1,3c0,1 0,2 0,2c-1,1 -1,2 -1,2c0,1 -1,2 -1,2c0,1 0.70709,1.29291 0,2c-0.70709,0.70709 -1,1 -1,1c-1,1 -0.29291,2.29291 -1,3c-0.70709,0.70709 -0.29291,1.29291 -1,2c-0.70709,0.70709 -1,1 -1,1c-1,1 -1,2 -1,2c-1,1 -1,2 -1,2c0,0 -1,1 -1,2c0,0 -0.29291,1.29291 -1,2c-0.70709,0.70709 -1,0 -1,1c0,1 -1,1 -1,2c0,1 -1,1 -1,2c0,0 0,1 0,1c-1,1 -1,1 -1,1c0,1 0,2 0,2c0,1 0,1 -1,2c0,0 0,0 0,1c0,0 -0.22977,0.97327 0,0c0.51373,-2.17627 3,-4 3,-6l1,-3" id="svg_21" stroke="#000000" fill="none"/>
  <path d="m314,515c0,1 0,1 0,1c-1,0 -1,0 -1,-1c0,0 0,-1 0,-1c0,-1 -0.38269,-1.07611 0,-2c0.5412,-1.30655 1,-2 1,-2c0,-1 1,-2 1,-3c0,0 0,-1 1,-2c0,0 1,-1 1,-1c1,-1 1,-1 2,-2c0,0 -0.30655,-0.4588 1,-1c0.92389,-0.38269 1,0 2,-1c0,0 1.4588,0.30655 2,-1c0.38269,-0.92389 1.07611,-0.61731 2,-1c1.30655,-0.5412 1,-2 2,-2c0,0 1,-1 2,-1c0,0 1,0 2,0c1,0 1,0 2,0c0,0 0.69345,0.4588 2,1c0.92389,0.38269 1,0 2,0c0,0 1,1 1,1c1,0 2,1 2,1c0,0 1,1 1,1l0,0l1,1l1,10" id="svg_22" stroke="#000000" fill="none"/>
  <path d="m379,489c0,1 0,1 0,1c0,1 0,1 0,1c0,0 -1.4588,0.69345 -2,2c-0.38269,0.92389 -0.4588,2.69345 -1,4c-0.38269,0.92389 -1,3 -1,4c0,0 -1,2 -1,3c0,1 0,1 0,3c0,0 -1,1 -1,2c0,1 0,2 -1,3c0,0 0.38269,1.07611 0,2c-0.5412,1.30658 -1,1 -1,2c0,1 -1,1 -1,2c0,1 0,2 0,3c0,1 -1,2 -1,3c0,1 -0.4588,1.69342 -1,3c-0.38269,0.92389 0,2 0,3c0,1 0,1 0,2c0,1 -1,2 -1,2c0,1 0,2 0,3c0,0 0.38269,1.07611 0,2c-0.5412,1.30658 -1,2 -1,3c0,1 0.38269,2.07611 0,3c-0.5412,1.30658 -0.61731,2.07611 -1,3c-0.5412,1.30658 -1,2 -1,2c0,1 -1,2 -1,2c0,1 0,2 0,2c0,0 0,1 0,2c0,0 -1,0 -1,1c0,0 0,0 0,1c0,0 0,0 0,1c0,0 -1,0 -1,1c0,0 0,0 0,0c0,0 0,0 0,0c-1,1 -1,1 -1,1c0,0 0,0 0,0l1,-1l0,0l0,0" id="svg_23" stroke="#000000" fill="none"/>
  <path d="m374,517c0,0 -0.29291,0.70709 -1,0c-0.70709,-0.70709 0,-1 0,-2c0,-1 0,-1 0,-2c0,0 -0.38269,-1.07611 0,-2c0.5412,-1.30655 1,-1 1,-2c0,-1 1,-1 1,-2c0,0 1,0 1,-1c0,0 0.29291,-0.29291 1,-1c0.70709,-0.70709 1,-1 2,-1c1,0 1,-1 2,-2c0,0 1.07611,-0.61731 2,-1c1.30655,-0.5412 2,-1 3,-2c0,0 1,-1 2,-1c1,0 2,-1 3,-1c0,0 1,0 2,-1c0,0 1,0 2,0c1,0 2,-1 3,-1c1,0 1,0 3,0c1,0 1,0 2,0c0,0 1,1 1,1c0,0 1,1 1,1c0,0 1,1 1,2c0,1 -0.38269,2.07611 0,3c0.5412,1.30655 1,2 1,3c0,1 1.41422,1.58578 0,3c-0.70709,0.70709 -1,1 -1,1c0,1 0,1 0,1c0,0 0,1 -1,2c0,0 0,0 0,1l0,0l0,0" id="svg_24" stroke="#000000" fill="none"/>
  <path d="m462,495c-1,0 -1,0 -1,0c-1,0 -1,0 -1,0c-1,0 -1,0 -1,1c0,1 -0.29291,2.29291 -1,3c-0.70709,0.70709 -1,1 -2,2c0,0 0.70709,1.29291 0,2c-0.70709,0.70709 -0.61731,1.07611 -1,2c-0.5412,1.30655 -1,1 -1,2c0,0 -0.29291,0.29291 -1,1c-0.70709,0.70709 -0.4588,0.69345 -1,2c-0.38269,0.92389 0,1 0,2c0,0 -1,1 -1,1c0,1 0,2 0,2c-1,1 -1,1 -1,2c0,0 0,1 0,2c0,0 -1,0 -1,1c0,1 0,1 0,2c0,1 0,1 0,2c0,1 -0.29291,1.29291 -1,2c-0.70709,0.70709 0,1 0,2c0,1 0,2 0,2c-1,1 -1,2 -1,2c0,1 -1,2 -1,2c0,1 0,2 0,2c0,1 -1,1 -1,2c0,0 0.70709,1.29291 0,2c-0.70709,0.70709 -1,1 -1,2c0,0 -0.29291,0.29291 -1,1c-0.70709,0.70709 0.70709,1.29291 0,2c-0.70709,0.70709 -1,1 -1,2c0,1 -1,1 -1,2c0,0 -1,1 -1,1c0,0 0,1 0,1c-1,1 -0.29291,1.29291 -1,2c-0.70709,0.70709 -1.4588,0.69342 -2,2c-0.38269,0.92389 -1,1 -1,2c0,0 0,1 -1,1c0,0 0,1 0,1c0,0 0,1 1,1c0,0 0,1 0,1c0,0 0,1 -1,1c0,0 0,0 0,1l1,0l2,-1l0,-1" id="svg_25" stroke="#000000" fill="none"/>
  <path d="m470,467c0,0 0,0 -1,0c0,0 0,0 -1,1c0,0 0,0 0,1c0,0 0,1 -1,1c0,0 0,1 1,1c0,0 0,0 0,0c1,-1 1.70709,-0.70709 1,0c-0.70709,0.70709 -1,0 -1,1c0,0 0,0 0,0c0,0 0,1 0,1c1,0 1,1 1,1c0,0 1,0 1,0c0,0 0,0 1,0c0,0 0,-1 0,-1l1,0l0,0l0,0" id="svg_26" stroke="#000000" fill="none"/>
  <path d="m532,394c0,1 1,1 1,2c0,0 0,1 0,3c0,0 0,3 0,3c0,1 -0.4588,1.69345 -1,3c-0.76538,1.84775 -0.4588,2.69345 -1,4c-0.38269,0.92389 0,2 0,3c0,2 0.76538,4.15225 0,6c-0.5412,1.30655 -1,2 -1,3c0,2 0,4 0,5c0,4 0,6 0,7c0,2 0.91901,3.10699 0,7c-0.51373,2.17624 -0.51947,4.03873 -1,7c-0.50653,3.12143 -1,6 -2,9c-1,3 -1.84723,4.04132 -3,8c-0.88416,3.03616 -3.30322,6.76935 -4,8c-2.03143,3.58792 -2.78986,7.07843 -4,10c-0.85571,2.06586 -2.25653,4.797 -3,6c-1.66251,2.69 -1.78986,5.07843 -3,8c-0.85571,2.06586 -2,4 -2,5c0,0 -1,2 -2,3c-1,1 -1.48627,1.82376 -2,4c-0.22977,0.97324 -1,1 -1,2c0,1 -0.4588,0.69345 -1,2c-0.38269,0.92389 -0.48627,1.82373 -1,4c-0.4595,1.94647 0,3 -1,4c0,0 0.4595,1.05353 0,3c-0.51373,2.17627 -0.29291,2.29291 -1,3c-0.70709,0.70709 -1.48627,0.82373 -2,3c-0.22977,0.97327 -1,3 -1,3c0,1 -1,4 -1,4c0,1 -1,2 -1,3c0,1 -1,1 -1,1c-1,2 -1,3 -2,4c0,0 0,1 -1,2c0,0 0,1 0,1c-1,1 -1,1 -1,2c0,1 -0.4588,0.69342 -1,2c-0.38269,0.92389 -1,1 -1,2c0,0 -0.29291,1.29291 -1,2c-0.70709,0.70709 -1,1 -1,1c0,1 -1,1 -1,1c0,0 -0.29291,0.29291 -1,1c-0.70709,0.70709 0,1 -1,2c0,0 -1,1 -1,1c0,1 0,1 -1,1c0,0 0,0 0,1c0,1 -0.4588,0.69342 -1,2c-0.38269,0.92389 0,1 0,1c0,0 0,1 0,1c-1,0 1,-1 1,-2l2,-2l2,-2" id="svg_27" stroke="#000000" fill="none"/>
  <path d="m506,514c0,-1 0,-1 0,-2c0,0 1,0 1,-1c0,-1 1,-3 1,-3c1,-2 2,-3 2,-3c1,-1 2,-2 2,-2c1,-1 1,-1 2,-2c0,0 1,0 1,0c1,-1 1,-1 2,-2c0,0 1,0 2,-1c0,0 1,0 2,-1c0,0 1,0 1,0c1,-1 2,-1 3,-1c0,0 1,0 1,0c1,0 2,0 2,0c1,1 1.29291,0.29291 2,1c0.70709,0.70709 1,1 1,1c1,1 1,1 1,1c1,1 1.29291,1.29291 2,2c0.70709,0.70709 1.29291,0.29291 2,1c0.70709,0.70709 0,1 1,2c0,0 0.29291,0.29291 1,1c0.70709,0.70709 0,1 1,2c0,0 1,1 1,2c0,2 0,3 1,4c0,0 -0.70709,1.29291 0,2c0.70709,0.70709 0.29291,1.29291 1,2c0.70709,0.70709 1,1 1,1c0,1 0,1 0,2c0,1 0,1 0,2c0,1 0,2 0,2c0,1 0,2 0,3c0,1 0,2 0,3c0,0 -0.4588,0.69342 -1,2c-0.76538,1.84778 0.70709,3.29291 0,4c-0.70709,0.70709 -0.69257,2.18604 -2,4c-0.8269,1.14728 -0.61731,1.07611 -1,2c-0.5412,1.30658 -1,2 -2,3c-1,1 -1.61731,2.07611 -2,3c-0.5412,1.30658 -2,2 -3,3c-1,1 -2,1 -3,2c-1,1 -2,1 -3,2c0,0 -1.29291,0.29291 -2,1c-0.70709,0.70709 -1.15222,1.23462 -3,2c-1.30658,0.5412 -0.69342,1.4588 -2,2c-0.92389,0.38269 -2,1 -2,1c-1,1 -2.29291,0.29291 -3,1c-0.70709,0.70709 -1.69342,1.4588 -3,2c-0.92389,0.38269 -1.69345,0.4588 -3,1c-0.92389,0.38269 -2,0 -2,0c-1,1 -1,1 -2,1c-1,0 -2,0 -3,0c0,0 -0.69345,0.4588 -2,1c-0.92389,0.38269 -2,0 -3,0c-1,0 -2,1 -3,1c-1,0 -2.07611,-0.38269 -3,0c-1.30655,0.5412 -1,1 -2,1c0,0 -1,0 -1,0c-1,0 -1,0 -1,0c0,0 -1,-1 -1,-1c0,-1 0,-1 0,-1c0,-1 0,-2 0,-2c0,-1 0,-1 0,-1l1,0l1,0l0,0" id="svg_28" stroke="#000000" fill="none"/>
  <path d="m610,402c0,0 0,0 1,0c0,0 0,0 1,1c0,0 0,1 0,3c0,1 0,1 0,2c0,1 1,3 1,3c0,1 0,3 0,4c0,1 0,2 0,3c0,1 0,2 0,3c0,3 0,4 0,5c0,0 -0.4588,1.69345 -1,3c-0.38269,0.92389 0,1 0,3c0,1 0,2 0,2c0,2 -0.29291,3.29291 -1,4c-1.41418,1.41422 1.53076,2.30447 0,6c-0.5412,1.30655 -1,2 -1,3c0,2 0.76538,2.15225 0,4c-0.5412,1.30655 -1,2 -1,4c0,2 0.76538,3.15225 0,5c-0.5412,1.30655 -1,2 -1,3c0,2 0.38269,3.07611 0,4c-0.5412,1.30655 -0.77026,4.02676 -1,5c-0.51373,2.17624 -1.77026,4.02676 -2,5c-0.51373,2.17624 -2.9176,4.38687 -4,7c-0.38269,0.92389 -1.513,3.59399 -3,6c-1.66254,2.69 -1.78986,5.07843 -3,8c-0.85571,2.06586 -1.33746,3.31 -3,6c-1.487,2.40601 -3,5 -4,7c-1,2 -1.69257,4.18604 -3,6c-0.8269,1.14728 -1,2 -2,4c-1,2 -1,3 -2,5c-1,2 -1.23462,3.15222 -2,5c-0.5412,1.30658 -2.4588,2.69342 -3,4c-0.38269,0.92389 0,2 0,2c0,1 -1,2 -1,3c0,0 -1,1 -1,2c0,0 0,1 -1,2c0,0 0,1 0,1c-1,1 -1,2 -1,2c0,1 0,2 0,2c-1,1 -1,1 -1,2c0,1 -0.29291,1.29291 -1,2c-1.41418,1.41418 -1,2 -1,3c0,0 -0.4588,0.69342 -1,2c-0.38269,0.92389 -0.29291,1.29291 -1,2c-0.70709,0.70709 -0.29291,1.29291 -1,2c-0.70709,0.70709 0,1 0,1c0,-1 0.29291,-1.29291 1,-2c0.70709,-0.70709 1.29291,0.70709 2,0c0.70709,-0.70709 1,-1 1,-1c1,0 1,-1 1,-1c1,0 2,-1 2,-1c1,0 0.69342,-0.4588 2,-1c0.92389,-0.38269 1.07611,0.38269 2,0c1.30658,-0.5412 1,-1 2,-1c0,0 1,0 1,0c1,0 1,0 2,0c0,0 1,0 1,0c1,0 1.29291,0.29291 2,1c0.70709,0.70709 1,0 1,0c1,0 2,0 2,0c1,0 2,0 2,0c1,0 1,0 2,0c1,0 1,0 3,1c0,0 1,0 2,0c1,0 1,0 2,0c0,0 1,0 1,0c1,0 2,0 2,0c1,0 1,1 1,1c1,0 1,0 2,0c0,0 -0.30658,0.4588 1,1c0.92389,0.38269 1,0 1,0c1,1 2,1 2,1c1,1 1.07611,0.61731 2,1c1.30658,0.5412 1,1 2,1c1,0 1,1 2,1c0,0 1,0 2,0c0,0 1,1 2,1c1,0 2,1 2,1c1,1 1,1 1,2c0,0 1,1 2,1l1,1l0,0" id="svg_29" stroke="#000000" fill="none"/>
  <path d="m655,529c1,0 1,0 1,0c0,0 0,0 1,0c0,0 1,0 1,0c1,-1 2,-1 3,-1c1,0 2,0 3,0c1,0 1,0 2,0c1,0 2,0 3,0c0,0 0.29291,0.29291 1,1c0.70709,0.70709 2,0 2,0c1,0 1,-1 2,-1c1,0 1,0 1,0c1,0 1,0 2,0c0,0 1,0 1,0c1,0 1,0 1,0c1,0 1,0 2,0c1,0 1.07611,0.38269 2,0c1.30658,-0.5412 1,-1 1,-1c1,0 1,0 2,0c1,0 0.69342,-0.4588 2,-1c0.92389,-0.38269 2,0 2,0c1,0 1,0 2,0c0,0 1,0 1,0c1,0 1,0 2,-1c0,0 1,0 1,0c0,0 0,0 1,0c0,0 0,0 1,0c0,0 1,0 1,0c0,0 1,0 1,0c0,0 1,0 1,0c0,0 1,0 2,-1c0,0 0,0 1,0c0,0 1,0 1,0c1,0 1,0 1,0c1,0 2,0 2,0c1,0 1,0 2,0c0,0 0,0 1,0c0,0 0,0 1,0c0,0 0,0 1,0c0,0 1,0 1,0c1,0 1,0 2,0c0,0 0,0 1,0c0,0 1,0 1,0c1,0 0.29291,-0.29291 1,-1c0.70709,-0.70709 1,0 1,0c1,-1 1,-1 1,-2c0,0 1,-1 1,-1c0,-1 0,-2 0,-2c0,0 0,-1 0,-1c0,0 0.70709,-0.29291 0,-1c-0.70709,-0.70709 -1,0 -1,-1c0,0 -0.29291,-0.29291 -1,-1c-0.70709,-0.70709 0,-1 0,-1c0,-1 0,-1 -1,-2c0,0 0,-1 0,-1c-1,-1 -0.29291,-2.29291 -1,-3c-0.70709,-0.70709 -1,-1 -1,-1c0,-1 0.70709,-1.29291 0,-2c-0.70709,-0.70709 -0.29291,-1.29291 -1,-2c-0.70709,-0.70709 -1,-1 -1,-1c0,-1 -0.29291,-0.29291 -1,-1c-0.70709,-0.70709 0.70709,-1.29291 0,-2c-0.70709,-0.70709 -1,0 -1,-1c0,0 0,0 -1,-1c0,0 0,0 -1,-1c0,0 -1,-1 -1,-2c0,0 -1,-1 -1,-1c-1,-1 -1,-2 -2,-3c0,0 -1,-1 -1,-1c-1,0 -1.07611,-0.61731 -2,-1c-1.30658,-0.5412 -2.29291,-1.29291 -3,-2c-0.70709,-0.70709 -1,-1 -3,-2c-2,-1 -2.69342,-1.4588 -4,-2c-1.84778,-0.76538 -2,0 -3,0c-1,0 -2,0 -3,0c-2,0 -4,0 -5,0c-2,0 -3,1 -4,1c-1,0 -3,1 -3,1c-1,1 -2,2 -3,3c-1,1 -2,1 -3,2c-1,1 -2.41888,0.41885 -4,2c-1.58112,1.58115 -1.41888,2.41885 -3,4c-1.58112,1.58115 -3,3 -3,3c-1,1 -2.4588,2.69345 -3,4c-0.76538,1.84775 -1.48627,2.82376 -2,5c-0.22974,0.97324 -0.48627,3.82376 -1,6c-0.22974,0.97327 0,2 0,4c0,3 0.4588,5.69342 1,7c0.38269,0.92389 0.54047,3.05353 1,5c0.51373,2.17627 1,3 2,5c1,2 2,4 3,6c1,2 1.85272,3.1731 3,4c1.81396,1.30743 3.8244,2.0979 5,4c0.52576,0.85065 2.18604,1.69257 4,3c1.14728,0.8269 2,1 5,2c3,1 6.02673,0.77026 7,1c2.17627,0.51373 5.31,0.33746 8,2c1.203,0.74347 3.07843,0.78986 6,2c2.06586,0.85571 4,1 5,1c4,0 7.06598,-1.87769 9,-3c3.11847,-1.80969 7.06598,-4.87769 9,-6c3.11847,-1.80969 5,-4 8,-6l1,0" id="svg_30" stroke="#000000" fill="none"/>
 </g>
</svg>