<?xml version="1.0" encoding="iso-8859-1"?>
<!-- Generator: Adobe Illustrator 13.0.0, SVG Export Plug-In . SVG Version: 6.00 Build 14948)  -->
<!DOCTYPE svg PUBLIC "-//W3C//DTD SVG 1.1//EN" "http://www.w3.org/Graphics/SVG/1.1/DTD/svg11.dtd">
<svg version="1.1" id="Layer_1" xmlns="http://www.w3.org/2000/svg" xmlns:xlink="http://www.w3.org/1999/xlink" x="0px" y="0px"
	 width="605.062px" height="375.486px" viewBox="0 0 605.062 375.486" enable-background="new 0 0 605.062 375.486"
	 xml:space="preserve">
<path id="path1" fill="none" stroke="#000000" d="M50.618,62.657c-7.858-9.507-12.64-18.965-13.185-31.57
	C36.999,21.07,37.461,9.463,50.446,9.307C60.656,9.185,65.47,15.967,63.67,25.55c-1.815,9.666-4.014,21.349-9.896,29.363
	c-2.245,3.061-16.597,18.656-21.192,13.714c-8.324-8.955,24.852-19.373,29.194-19.871c13.292-1.523,25.896-3.651,35.096-14.188
	c6.78-7.767,13.74-21.443,14.069-31.807c-11.788,5.866-21.97,25.604-28.115,36.82C74.791,54.25,64.381,75.135,64.485,92.365
	c0.106,17.762,12.237-1.644,15.836-7.742c3.792-6.425,13.208-31.225-0.247-33.295c6.595,7.637,22.953,1.021,31.022-0.646Z"/>
<circle cx='1' cy='0' r='3' fill='red' >
<animateMotion dur="1s" repeatCount="1">
 <mpath xlink:href="#path1"/>
</animateMotion>
</circle>
<path fill="none" stroke="#000000" d="M160.199,37.507c-11.038-2.44-29.47,8.251-25.807,21.736
	c4.093,15.071,30.545-6.47,26.161-17.506c-12.843,3.693-14.006,29.915,4.896,21.407c10.292-4.632,18.018-13.801,24.956-22.402
	c5.722-7.095,16.625-21.103,15.898-30.844c-7.467-2.359-15.322,9.836-18.885,14.755c-6.246,8.625-9.625,18.637-8.563,29.431
	c2.992,30.434,31.1-7.657,37.094-17.34c2.706-4.371,16.648-24.082,14.108-29.14c-4.058-8.081-17.402,11.749-20.016,15.869
	c-5.061,7.977-11.436,20.92-6.221,30.196c5.754,10.239,21.996,12.67,31.229,6.59"/>
<path fill="none" stroke="#000000" d="M259.6,63.854c7.016,2.638,18.876-7.317,23.952-11.348
	c10.847-8.608,20.4-18.935,30.756-28.075c-4.954,6.675-14.521,13.052-20.274,20.34c-2.454,3.106-9.138,10.727-8.104,15.062
	c1.17,4.9,6.966,2.041,10.917,1.172c15.875-3.488,28.978-11.927,39.872-24.072c6.224-6.938,19.656-22.097,17.325-32.35
	c-7.312,1.452-15.216,15.232-19.461,20.905c-7.004,9.361-12.266,19.816-20.414,28.243c3.764-2.918,33.668-28.495,26.136-9.354
	c-1.608,4.097-6.089,10.488-2.911,14.713c3.438,4.569,12.015,2.772,16.251,1.329c7.64-2.601,13.385-7.871,18.493-13.986
	c3.469-4.15,10.941-16.852-0.218-11.896c-22.681,10.067-1.97,40.508,15.228,21.533"/>
<path fill="none" stroke="#000000" d="M296.726,23.135c-1.505,11.305,17.202,14.691,24.551,12.575"/>
<path fill="none" stroke="#000000" d="M448.821,33.915c-10.068-4.913-28.292,0.463-24.415,14.489
	c4.751,17.192,33.641-13.1,34.519-20.922c-9.271,11.839-14.276,27.52-23.085,39.983c-4.184,5.923-40.866,52.935-45.124,30.637
	c-4.495-23.54,38.56-30.69,53.026-36.977c15.957-6.93,29.221-16.347,43.899-25.509c-4.688,1.949-26.847,14.846-19.156,22.619
	c6.989,7.069,35.656-19.686,40.696-24.126c2.515,2.567,6.441,1.632,9.172,3.876c-1.694,4.396-10.265,9.001-6.724,14.385
	c2.998,4.562,16.896,2.964,21.076,1.818c13.44-3.688,24.751-17.339,33.317-27.307c4.562-5.311,20.574-18.334,18.321-26.374
	c-9.45,0.306-20.603,16.667-25.099,23.651c-3.021,4.693-13.845,22.896-8.521,28.872c10.072,11.306,32.426-32.388,45.271-26.257
	c9.052,4.319-17.821,36.272-28.549,32.214c-1.908-0.722-4.706-1.262-2.705-4.64c2.272-3.841,4.77-0.607,7.576,0.479
	c4.468,1.73,17.679,11.042,21.407,4.232"/>
<path fill="none" stroke="#000000" d="M503.911,20.142c-2.498-0.726-4.431,3.021-4.128,6.057
	c5.354,0.686,11.832-9.185,13.108-13.842"/>
<path fill="none" stroke="#000000" d="M77.564,112.358c-13.987,0.033-30.586,8.089-30.582,24.895
	c0.004,17.232,32.808-14.064,33.542-23.688c-5.787,3.455-17.605,27.092-5.725,28.23c7.518,0.723,18.167-13.356,22.363-18.17
	c8.826-10.119,16.221-21.218,24.21-31.912c-8.8,6.099-15.554,19.019-18.797,28.973c-1.458,4.473-6.823,18.424,0.579,17.473
	c7.863-1.01,19.365-15.044,24.281-20.269c7.706-8.189,15.987-17.299,19.858-28.056c-4.196,7.474-32.863,43.938-17.285,49.508
	c8.829,3.157,26.512-11.083,31.396-16.761c1.673-1.943,9.066-10.419,6.43-13.415c-3.342-3.798-7.328,3.351-8.83,5.556
	c-2.838,4.166-8.692,13.985-4.789,19.223c5.153,6.913,16.607-11.342,20.952-14.891c3.918-3.2,16.666-13.229,19.802-4.689
	c2.024,5.511-5.23,15.51-6.08,21.217c1.603-3.332,9.139-23.161,14.868-21.509c4.116,1.187-3.914,16.148-0.845,20.463
	c6.527,9.179,20.002-2.911,25.416-6.761c9.483-6.745,19.065-12.31,31.098-12.453c-9.192,2.812-16.003,6.094-22.425,13.636
	c-4.111,4.828-12.336,16.236-0.046,14.006c13.448-2.438,55.221-62.938,43.422-66.93c-11.136-3.765-28.522,46.247-24.843,54.909
	c8.498,20.011,33.272-8.784,39.678-14.974c-4.2,3.508-11.127,13.259-9.739,19.019c2.29,9.5,10.814-1.786,14.956-5.387
	c3.812-3.315,20.755-18.26,27.237-12.521c3.896,3.449-5.361,16.878-6.319,20.896c1.604-2.428,17.12-23.892,20.671-19.432
	c2.702,3.396-8.09,13.004-3.883,18.401c4.656,5.975,19.183-4.471,23.535-6.628c9.697-4.806,20.234-8.734,30.696-11.402
	c-6.858,1.547-22.184,9.814-23.743,16.819c7.687,4.793,20.152-6.776,24.952-11.862c-7.29,9.199-15.86,17.563-23.151,26.882
	c-5.47,6.991-10.521,14.331-16.642,20.78c-2.651,2.795-12.767,14.461-17.518,13.892c-4.925-0.59-3.035-5.466-1.416-9.073
	c5.86-13.063,20.479-20.729,32.362-27.098c15.771-8.448,40.425-19.882,58.855-18.938"/>
<path fill="none" stroke="#000000" d="M308.103,102.777c-0.842,1.016-1.784,1.492-2.993,1.198"/>
<path fill="none" stroke="#000000" d="M100.318,97.388c26.803,15.136,70.564,2.861,94.012-12.575"/>
<path fill="none" stroke="#000000" d="M470.978,133.316c14.146-7.44,22.775-22.521,36.979-30.218
	c-2.562,3.739-35.468,30.531-14.438,32.1c12.242,0.912,30.893-12.454,40.146-19.199c13.201-9.622,22.729-23.229,35.511-33.179
	c-4.438-0.253-11.421,9.095-14.479,12.124c-7.315,7.248-20.807,16.123-22.761,27.136c-4.932,27.799,36.853,11.775,43.834-1.937"/>
<path fill="none" stroke="#000000" d="M517.684,90.801c0.455,0.548-0.601,1.156,0.556,1.119c1.801-0.951,2.905-2.307,2.892-4.185
	c-1.717-0.729-2.499,0.093-3.443,0.67"/>
<path fill="none" stroke="#000000" d="M545.229,82.417c5.901,9.175,22.441,15.5,32.937,11.377"/>
<path d="M522.188,364.86c0.638-0.096,1.394-0.168,2.221-0.168c1.5,0,2.565,0.348,3.272,1.008c0.722,0.659,1.142,1.595,1.142,2.902
	c0,1.317-0.408,2.396-1.163,3.142c-0.756,0.756-2.003,1.164-3.574,1.164c-0.744,0-1.367-0.036-1.896-0.097v-7.951H522.188z
	 M523.231,372.009c0.264,0.05,0.646,0.062,1.056,0.062c2.229,0,3.441-1.247,3.441-3.43c0.013-1.907-1.067-3.119-3.273-3.119
	c-0.54,0-0.948,0.049-1.224,0.106V372.009z"/>
<path d="M575.993,371.444c0,0.504,0.022,0.996,0.096,1.392h-0.959l-0.084-0.729h-0.036c-0.324,0.456-0.947,0.861-1.773,0.861
	c-1.177,0-1.774-0.825-1.774-1.667c0-1.401,1.247-2.171,3.49-2.157v-0.119c0-0.48-0.132-1.344-1.319-1.344
	c-0.54,0-1.104,0.168-1.512,0.432l-0.239-0.695c0.479-0.312,1.175-0.516,1.906-0.516c1.775,0,2.207,1.211,2.207,2.374
	L575.993,371.444L575.993,371.444z M574.974,369.874c-1.149-0.022-2.458,0.182-2.458,1.309c0,0.684,0.455,1.008,0.995,1.008
	c0.756,0,1.235-0.479,1.403-0.974c0.036-0.106,0.06-0.228,0.06-0.336V369.874z"/>
<path d="M558.032,367.031l1.271,3.43c0.132,0.386,0.276,0.84,0.372,1.188h0.024c0.105-0.35,0.228-0.791,0.371-1.211l1.149-3.406
	h1.116l-1.584,4.138c-0.755,1.991-1.271,3.012-1.99,3.636c-0.516,0.454-1.029,0.636-1.296,0.684l-0.264-0.888
	c0.264-0.084,0.611-0.252,0.924-0.518c0.288-0.228,0.647-0.636,0.888-1.175c0.049-0.108,0.084-0.192,0.084-0.252
	c0-0.061-0.022-0.145-0.07-0.276l-2.146-5.349L558.032,367.031L558.032,367.031z"/>
<path fill="none" stroke="#000000" d="M12.294,224.334c14.918-7.692,20.779-27.21,33.404-37.486
	c-3.421,5.315-21.877,25.963-14.866,32.14c4.661,4.104,14.315-7.932,16.396-10.349c6.821-7.926,14.561-15.235,21.314-23.051
	c-3.088,4.018-25.637,26.997-17.43,32.096c3.966,2.463,15.286-8.764,17.321-10.948c5.508-5.918,10.181-13.139,14.442-19.941
	c-3.05,6.431-8.585,12.565-7.722,20.37c1.417,12.825,17.357,10.281,25.971,5.807c6.852-3.561,13.364-10.165,16.183-17.438
	c1.837-4.742,2.793-11.336-3.853-8.416c-4.293,1.887-10.142,14.208-10.62,18.959c-0.73,7.26,2.594,10.501,9.607,9.788
	c11.334-1.153,17.233-10.124,23.821-18.208c0.9-1.105,6.509-10.219,9.602-6.159c1.652,2.168-3.929,9.357-4.408,12.457
	c-1.402,9.06,4.022,13.388,12.437,14.889c8.98,1.604,18.993-1.667,25.657-7.785c3.982-3.657,19.591-20.454,15.32-26.151
	c-6.662-8.885-19.75,15.806-19.063,21.331c1.558,12.536,18.401,10.294,27.501,10.317"/>
<path fill="none" stroke="#000000" d="M245.828,218.346c6.904,0.194,14.536-3.895,20.736-6.5
	c14.263-5.995,25.758-14.896,35.755-26.603c8.147-9.542,18.726-21.531,22.607-33.851c2.091-6.639,0.779-8.521-6.036-6.729
	c-20.012,5.263-35.908,26.517-40.934,45.491c-2.155,8.137-5.501,21.075,3.876,25.722c8.479,4.203,20.651-2.146,29.265-3.521"/>
<path fill="none" stroke="#000000" d="M351.217,191.999c-8.397,0.02-36.863,4.375-27.568,19.188
	c8.954,14.274,33.362-18.113,36.963-25.014c-4.54,4.476-26.636,27.311-12.612,31.482c15.6,4.643,37.588-20.914,46.233-30.451
	c-6.271,2.966-23.011,27.188-9.118,28.875c8.412,1.022,20.144-13.58,26.971-17.063c8.535-4.357,17.771-7.316,27.013-9.438
	c-8.344,0.915-17.946,6.87-24.141,12.251c-4.749,4.127-14.619,17.293-1.32,17.823c13.933,0.555,27.396-23.469,34.294-32.487
	c4.798-6.27,8.743-12.896,12.925-19.588c2.869-4.596,9.168-10.859,9.459-16.214c-14.812,8.146-31.144,28.646-34.035,45.557
	c-3.504,20.474,14.005,19.934,26.917,10.647"/>
<path fill="none" stroke="#000000" d="M404.51,178.227c-0.659,0.207-3.834,0.887-1.796,1.196"/>
<path fill="none" stroke="#000000" d="M15.289,297.987c10.335-0.647,21.378-13.79,26.643-21.642
	c1.83-2.73,9.992-15.963,7.411-19.101c-3.611-4.388-12.226,10.861-13.107,13.824c-1.564,5.259-1.398,13.618,3.589,17.394
	c8.119,6.146,14.482-4.251,19.75-9.06c3.331-3.04,20.634-22.82,24.646-13.792c2.229,5.018-5.487,16.061-6.13,21.514
	c1.688-4.679,8.691-25.396,16.103-23.203c5.663,1.678-3.82,14.469-0.034,18.552c3.812,4.108,15.823-4.476,19.579-6.333
	c8.368-4.144,26.265-7.43,31.966-14.008c-12.108,0.732-40.897,29.834-18.6,28.109c12.547-0.971,22.332-14.045,29.094-23.395
	c6.102-8.438,17.665-24.903,18.362-35.405c-5.104-2.255-14.018,7.207-17.168,10.626c-6.151,6.675-9.741,14.416-12.309,23.066
	c-2.221,7.484-5.556,19.987-2.287,27.51c4.648,10.692,18.267,2.209,26.982,2.943"/>
<path fill="none" stroke="#000000" d="M206.905,293.796c5.253,5.162,25.204-15.163,28.746-18.567
	c8.259-7.945,15.586-16.021,22.895-24.854c4.2-5.078,7.564-11.39,12.262-15.822c-12.726,9.234-39.071,34.688-35.813,52.417
	c2.124,11.561,20.38-4.3,26.345-7.604c8.062-4.468,15.649-9.842,23.197-14.951c-5.298,1.817-29.707,18.495-20.155,25.713
	c8.566,6.475,25.648-19.67,14.445-20.798c2.429,9.676,24.159,0.959,30.475-0.68"/>
<path fill="none" stroke="#000000" d="M239.241,245.293c11.451,15.348,37.226,6.765,52.694,7.188"/>
<path fill="none" stroke="#000000" d="M330.259,293.197c12.166,3.608,45.646-15.231,43.714-29.995
	c-14.152-4.446-22.309,33.784-0.231,23.34c8.979-4.248,22.873-20.939,33.927-17.86c8.233,2.293-0.777,11.98-3.553,17.934
	c5.052-6.271,12.181-19.441,20.662-20.909c1.692,8.14-10.177,20.756,4.932,16.01c16.284-5.114,31.03-14.096,47.751-17.899
	c-5.39,1.302-38.335,21.854-24.364,26.474c5.689,1.881,22.073-10.303,26.321-14.02c10.113-8.854,19.136-22.176,26.496-33.412
	c2.828-4.318,7.143-11.261-0.499-10.937c-9.518,0.406-19.945,18.404-23.505,25.62c-3.835,7.774-9.333,17.896-3.993,26.354
	c9.406,14.896,42.347,1.277,55.938,1.52"/>
<path fill="none" stroke="#000000" d="M555.408,287.209c0.92-0.188,1.388-0.618,2.317-0.521c-0.204,1.222-0.41,1.79-1.237,2.839
	c-0.21-0.123-1.477-1.061-1.637-1.109c0.738-2.426,2.401-3.433,4.687-2.479c-0.072,1.224-0.541,2.084-1.136,3.067"/>
<path fill="none" stroke="#000000" d="M576.965,289.604c0.812-0.647,0.896-1.45,2.305-1.571c-0.73,2.448-0.021,1.826-2.229,2.676
	c0.755-2.201,0.994-2.161,3.424-2.215c0.322,1.696-0.54,2.024-1.703,2.906"/>
<path fill="none" stroke="#000000" d="M602.115,291.999c1.335,1.604,1.766,2.438-1.141,2.421c1.447-2.179,0.868-2.131,3.312-1.371
	C601.606,297.224,597.049,293.529,602.115,291.999"/>
<path d="M565.879,364.849c0.504-0.084,1.164-0.156,2.003-0.156c1.032,0,1.787,0.24,2.269,0.672c0.442,0.384,0.708,0.972,0.708,1.69
	c0,0.73-0.218,1.308-0.624,1.728c-0.553,0.588-1.451,0.888-2.472,0.888c-0.312,0-0.601-0.013-0.84-0.07v3.236h-1.044V364.849
	L565.879,364.849z M566.923,368.746c0.229,0.062,0.518,0.084,0.863,0.084c1.26,0,2.025-0.609,2.025-1.727
	c0-1.067-0.756-1.584-1.905-1.584c-0.456,0-0.806,0.036-0.983,0.084V368.746z"/>
<path d="M575.993,371.444c0,0.504,0.022,0.996,0.096,1.392h-0.959l-0.084-0.729h-0.036c-0.324,0.456-0.947,0.861-1.773,0.861
	c-1.177,0-1.774-0.825-1.774-1.667c0-1.401,1.247-2.171,3.49-2.157v-0.119c0-0.48-0.132-1.344-1.319-1.344
	c-0.54,0-1.104,0.168-1.512,0.432l-0.239-0.695c0.479-0.312,1.175-0.516,1.906-0.516c1.775,0,2.207,1.211,2.207,2.374
	L575.993,371.444L575.993,371.444z M574.974,369.874c-1.149-0.022-2.458,0.182-2.458,1.309c0,0.684,0.455,1.008,0.995,1.008
	c0.756,0,1.235-0.479,1.403-0.974c0.036-0.106,0.06-0.228,0.06-0.336V369.874z"/>
<path fill="none" stroke="#000000" d="M12.405,350.214c-6.91-2.796-13.78-14.135-5.5-19.51c11.341-7.362,10.855,12.713,6.973,18.448
	c-1.585,2.343-6.734,7.661-9.984,7.085c-3.366-0.598-4.366-4.984-2.375-7.507c2.635-3.338,8.946-1.221,12.91-0.505
	c3.917,0.705,11.237-0.322,13.977,2.486"/>
<path fill="none" stroke="#000000" d="M33.905,357.214c5.633-0.641,10.361-9.898,13.847-13.896
	c-2.316,3.883-6.273,9.121-5.771,13.821c5.7,0.244,7.956-7.393,11.275-10.885c-1.827,1.616-7.373,9.054-3.251,9.866
	c3.388,0.67,9.952-8.214,10.813-10.87c-3.538,6.483,12.419,1.117,14.084,0.777c-2.135,1.049-9.051,7.196-5.896,10.221
	c4.142,3.971,5.083-5.328,4.611-7.513c4.972,1.297,10.583-2.714,15.647-3.849c-1.538,1.278-7.732,8.427-5.007,10.859
	c3.218,2.874,8.006-8.1,8.571-10.021c-5.001,7.974-0.123,9.181,6.171,3.873c2.995-2.525,18.873-23.812,11.952-26.348
	c-5.477-2.006-12.828,26.252-10.683,30.375c2.985,5.739,16.102-6.896,20.984-8.45c-2.969,1.567-8.274,4.948-9.371,8.559
	c-1.554,5.115,1.574,3.409,4.506,0.464c6.233-6.261,12.423-20.436,12.403-29.135c-0.014-6.058-2.187-3.332-4.495,1.383
	c-2.808,5.736-3.089,10.534-3.366,16.789c-0.16,3.612-3.008,13.271,2.728,13.783c4.851,0.434,7.916-10.087,11.795-11.832
	c0.895,3.188-1.098,5.898-1.472,8.896c1.083-1.341,2.072-2.758,2.945-4.22c-0.338,2.359-0.78,4.876-0.447,7.271
	c11.452,0.896,17.638-19.352,22.276-26.271c-3.929,3.341-9.115,15.986-7.359,21.244c2.067,6.191,20.708,1.22,21.508-3.898"/>

<g>

<path fill="none" stroke="#000000" d="M143.531,330.243c0.11,0.271,0.88-0.293,1.06,0.488c-1.003,0.595-0.597,0.812-1.997,0.923
	c0.755-1.507,0.61-1.446,2.375-1.834c-0.548,1.197-0.614,1.181-1.351,1.856c0.054-0.216,0.041-1.631-0.013-1.856
	c0.013,0.002,1.423-0.049,1.351,0c-0.029,2.606-1.396,7.021-2.924,7.423"/>

	<path fill="none" stroke="#000000" d="M145.405,335.214c1.487,4.932,17.059,1.864,20.924,1.026c0.149,0.48,0.174,0.972,0.076,1.474
		"/>
</g>
<path fill="none" stroke="#000000" d="M179.905,356.214c10.859-3.716,22.621-23.495,24.46-33.935
	c-8.48,0.043-15.938,18.263-13.847,25.309c3.044,10.261,14.542,2.435,8.95-4.195c3.677,4.025,16.251,1.913,19.874-1.788
	c-2.018-4.999-9.065,1.796-9.473,5.098c-0.99,8.022,8.114,6.01,13.036,5.014"/>
<path fill="none" stroke="#000000" d="M244.905,340.214c-4.038,0.723-10.17,4.069-7.998,9.498c2.694,6.735,8.456-4.992,9.02-8.854
	c-2.174,5.744-3.078,14.331,5.469,8.781c7.638-4.963,14.817-15.729,17.457-24.271c-4.857,4.223-11.579,15.08-10.835,21.761
	c0.645,5.798,10.666,4.647,12.889,0.585"/>
<path fill="none" stroke="#000000" d="M253.405,332.214c6.319,8.414,16.443,2.16,23.936,2.087c0.427,0.844-0.365,0.574-0.436,0.913"
	/>
<path fill="none" stroke="#000000" d="M304.404,335.714c-5.027-0.745-15.274,6.99-11.37,12.389
	c4.925,6.808,11.312-7.78,12.305-10.708c-7.063,3.235-6.096,15.989,3.528,10.831c7.36-3.947,25.4-20.352,21.636-29.972
	c-7.492,0.683-16.627,20.729-13.646,26.46c6.283,12.086,19.576-5.007,22.571-10.362c1.613-2.886,6.887-11.685,4.984-15.146
	c-2.438-4.44-5.281,0.822-6.861,3.812c-2.214,4.188-8.082,13.678-5.606,18.873c1.446,3.039,8.258,5.89,11.46,5.322"/>
<path fill="none" stroke="#000000" d="M367.405,348.214c3.667-0.751,8.278-7.229,11.016-10.113c3.44-3.626,5.533-9.626,9.47-12.371
	c2.968,3.914,1.604,12.864-0.726,16.889c-1.453,2.511-12.879,9.515-10.282,3.159c1.446-3.54,9.491,0.54,13.01-0.402
	c6.097-1.631,12.999-8.527,16.851-13.117c-2.457,2.253-11.86,12.686-7.759,14.468c5.524,2.399,11.984-11.381,14.492-14.356
	c-1.998,2.206-6.729,7.834-5.565,11.347c2.24,6.77,12.831-7.093,15.02-9.992c1.815,0.998,4.18,1.211,6.198,1.171
	c-2.508,6.16-1.703,9.424,6.402,6.834c9.036-2.889,13.729-11.255,21.336-15.815c-4.453,7.09-9.98,13.684-14.458,20.904
	c-5.51,8.887-9.183,18.496-14.825,27.225c3.396-11.23,9.914-23.549,16.878-32.926c4.258-5.731,11.428-13.401,19.415-11.771
	c1.422,6.234-8.134,14.981-14.402,14.302c0.607-3.011,13.104-3.277,16.308-4.916c3.58-1.831,7.578-8.959,11.589-6.446
	c-1.953,3.267-5.348,8.877,0.751,9.456c5.473,0.52,14.509-10.774,18.172-14.278c-1.739,1.872-8.842,9.185-5.531,12.295
	c2.921,2.745,13.182-9.626,15.507-11.184c17.109-11.454,3.989,13.536-3.309,10.209c0.12-6.895,10.854-2.283,14.447-1.938
	c4.811,0.461,13.562-1.144,12.337-8.066c-6.104-0.487-8.073,7.961-2.744,10.45c5.492,2.564,20.031-3.871,24.546-7.041
	c-4.349,0.156-17.215,9.343-8.799,12.689c3.349,1.333,10.659-6.193,12.716-8.273c5.88-5.942,10.481-15.08,13.079-23.005
	c1.465-4.471,2.586-10.356-3.755-5.842c-5.695,4.061-9.281,14.78-11.024,21.013c-5.682,20.317,16.581,20.622,29.646,12.953"/>
<path fill="none" stroke="#000000" d="M502.905,316.214c-1.749,0.359-2.731,0.944-2.45,2.96c3.702-1.132,5.688-8.566-0.05-5.96"/>
<path fill="none" stroke="#000000" d="M599.72,350.082c-0.905,0.027-1.336-0.712-1.873,0.601c0.282,0.646,1.019,0.876,0.678,0.599"
	/>
<g>
	<path d="M522.188,364.86c0.638-0.096,1.394-0.168,2.221-0.168c1.5,0,2.565,0.348,3.272,1.008c0.722,0.659,1.142,1.595,1.142,2.902
		c0,1.317-0.408,2.396-1.163,3.142c-0.756,0.756-2.003,1.164-3.574,1.164c-0.744,0-1.367-0.036-1.896-0.097v-7.951H522.188z
		 M523.231,372.009c0.264,0.05,0.646,0.062,1.056,0.062c2.229,0,3.441-1.247,3.441-3.43c0.013-1.907-1.067-3.119-3.273-3.119
		c-0.54,0-0.948,0.049-1.224,0.106V372.009z"/>
	<path d="M535.445,369.885c0,2.146-1.487,3.082-2.893,3.082c-1.569,0-2.781-1.149-2.781-2.984c0-1.943,1.271-3.082,2.879-3.082
		C534.317,366.899,535.445,368.11,535.445,369.885z M530.84,369.945c0,1.271,0.731,2.229,1.764,2.229
		c1.009,0,1.764-0.946,1.764-2.255c0-0.981-0.491-2.229-1.738-2.229C531.379,367.69,530.84,368.842,530.84,369.945z"/>
	<path d="M536.78,368.842c0-0.684-0.015-1.271-0.049-1.811h0.924l0.036,1.14h0.048c0.264-0.778,0.897-1.271,1.605-1.271
		c0.12,0,0.204,0.012,0.302,0.036v0.995c-0.108-0.024-0.218-0.036-0.36-0.036c-0.743,0-1.271,0.562-1.415,1.354
		c-0.023,0.146-0.048,0.312-0.048,0.491v3.095h-1.043V368.842L536.78,368.842z"/>
	<path d="M545.837,369.885c0,2.146-1.487,3.082-2.891,3.082c-1.571,0-2.782-1.149-2.782-2.984c0-1.943,1.271-3.082,2.878-3.082
		C544.709,366.899,545.837,368.11,545.837,369.885z M541.231,369.945c0,1.271,0.729,2.229,1.763,2.229
		c1.008,0,1.763-0.946,1.763-2.255c0-0.981-0.491-2.229-1.737-2.229C541.771,367.69,541.231,368.842,541.231,369.945z"/>
	<path d="M548.442,365.64v1.392h1.512v0.804h-1.512v3.13c0,0.722,0.204,1.128,0.792,1.128c0.288,0,0.456-0.022,0.609-0.07
		l0.048,0.791c-0.202,0.084-0.525,0.154-0.936,0.154c-0.491,0-0.887-0.168-1.139-0.454c-0.302-0.312-0.408-0.827-0.408-1.513v-3.166
		h-0.899v-0.804h0.899v-1.067L548.442,365.64z"/>
	<path d="M551.144,364.32h1.057v3.622h0.022c0.168-0.3,0.434-0.563,0.756-0.743c0.312-0.18,0.686-0.3,1.079-0.3
		c0.779,0,2.026,0.479,2.026,2.48v3.454h-1.055V369.5c0-0.936-0.35-1.728-1.346-1.728c-0.684,0-1.224,0.479-1.414,1.056
		c-0.061,0.146-0.071,0.3-0.071,0.504v3.502h-1.057L551.144,364.32L551.144,364.32z"/>
	<path d="M558.032,367.031l1.271,3.43c0.132,0.386,0.276,0.84,0.372,1.188h0.024c0.105-0.35,0.228-0.791,0.371-1.211l1.149-3.406
		h1.116l-1.584,4.138c-0.755,1.991-1.271,3.012-1.99,3.636c-0.516,0.454-1.029,0.636-1.296,0.684l-0.264-0.888
		c0.264-0.084,0.611-0.252,0.924-0.518c0.288-0.228,0.647-0.636,0.888-1.175c0.049-0.108,0.084-0.192,0.084-0.252
		c0-0.061-0.022-0.145-0.07-0.276l-2.146-5.349L558.032,367.031L558.032,367.031z"/>
	<path d="M565.879,364.849c0.504-0.084,1.164-0.156,2.003-0.156c1.032,0,1.787,0.24,2.269,0.672c0.442,0.384,0.708,0.972,0.708,1.69
		c0,0.73-0.218,1.308-0.624,1.728c-0.553,0.588-1.451,0.888-2.472,0.888c-0.312,0-0.601-0.013-0.84-0.07v3.236h-1.044V364.849
		L565.879,364.849z M566.923,368.746c0.229,0.062,0.518,0.084,0.863,0.084c1.26,0,2.025-0.609,2.025-1.727
		c0-1.067-0.756-1.584-1.905-1.584c-0.456,0-0.806,0.036-0.983,0.084V368.746z"/>
	<path d="M575.993,371.444c0,0.504,0.022,0.996,0.096,1.392h-0.959l-0.084-0.729h-0.036c-0.324,0.456-0.947,0.861-1.773,0.861
		c-1.177,0-1.774-0.825-1.774-1.667c0-1.401,1.247-2.171,3.49-2.157v-0.119c0-0.48-0.132-1.344-1.319-1.344
		c-0.54,0-1.104,0.168-1.512,0.432l-0.239-0.695c0.479-0.312,1.175-0.516,1.906-0.516c1.775,0,2.207,1.211,2.207,2.374
		L575.993,371.444L575.993,371.444z M574.974,369.874c-1.149-0.022-2.458,0.182-2.458,1.309c0,0.684,0.455,1.008,0.995,1.008
		c0.756,0,1.235-0.479,1.403-0.974c0.036-0.106,0.06-0.228,0.06-0.336V369.874z"/>
	<path d="M577.7,368.842c0-0.684-0.013-1.271-0.049-1.811h0.924l0.036,1.14h0.048c0.264-0.778,0.897-1.271,1.605-1.271
		c0.12,0,0.204,0.012,0.302,0.036v0.995c-0.108-0.024-0.218-0.036-0.36-0.036c-0.743,0-1.271,0.562-1.415,1.354
		c-0.023,0.146-0.048,0.312-0.048,0.491v3.095H577.7V368.842z"/>
	<path d="M582.715,369.693h0.024c0.144-0.203,0.348-0.455,0.516-0.659l1.703-2.003h1.271l-2.24,2.387l2.555,3.418h-1.283
		l-2.003-2.78l-0.54,0.6v2.183h-1.043v-8.516h1.043L582.715,369.693L582.715,369.693z"/>
	<path d="M587.887,370.125c0.024,1.43,0.938,2.018,1.991,2.018c0.756,0,1.211-0.134,1.607-0.302l0.18,0.757
		c-0.372,0.168-1.008,0.37-1.931,0.37c-1.787,0-2.854-1.188-2.854-2.938s1.031-3.13,2.724-3.13c1.896,0,2.397,1.667,2.397,2.732
		c0,0.218-0.024,0.386-0.036,0.491L587.887,370.125L587.887,370.125z M590.981,369.37c0.012-0.672-0.276-1.715-1.465-1.715
		c-1.065,0-1.533,0.983-1.617,1.715H590.981z"/>
	<path d="M593.312,368.842c0-0.684-0.015-1.271-0.051-1.811h0.926l0.034,1.14h0.05c0.264-0.778,0.897-1.271,1.605-1.271
		c0.12,0,0.204,0.012,0.3,0.036v0.995c-0.106-0.024-0.216-0.036-0.358-0.036c-0.743,0-1.271,0.562-1.415,1.354
		c-0.023,0.146-0.048,0.312-0.048,0.491v3.095h-1.043V368.842z"/>
</g>

</svg>
