<?xml version="1.0" encoding="iso-8859-1"?>
<!-- Generator: Adobe Illustrator 13.0.0, SVG Export Plug-In . SVG Version: 6.00 Build 14948)  -->
<!DOCTYPE svg PUBLIC "-//W3C//DTD SVG 1.1//EN" "http://www.w3.org/Graphics/SVG/1.1/DTD/svg11.dtd">
<svg version="1.1" id="Layer_1" xmlns="http://www.w3.org/2000/svg" xmlns:xlink="http://www.w3.org/1999/xlink" x="0px" y="0px"
	 width="556.675px" height="467.631px" viewBox="0 0 556.675 467.631" enable-background="new 0 0 556.675 467.631"
	 xml:space="preserve">
<path fill="none" stroke="#000000" d="M30.063,8.848c6.209-0.795,7.658,5.612,1.825,7.414c-5.345,1.65-8.447-2.109-4.981-5.864
	c7.43-8.053,19.504,0.628,10.325,9.12c-2.29,2.118-11.051,8.291-14.833,5.722c-3.019-2.05-1.377-11.538,0.016-14.006
	C27.521,2.176,46.684-2.493,55.665,2.6c14.27,8.092-12.266,38.025-18.383,46.559C26.629,64.021,16.373,80.009,5.467,94.454
	c1.249-6.257,6.293-10.576,9.624-15.849c3.97-6.285,7.205-12.709,10.783-19.174c4.634-8.375,10.503-16.03,16.766-23.251
	c7.303-8.421,16.258-20.649,26.841-25.541c6.245-2.886,11.97-1.516,13.287,5.564c1.54,8.283-6.137,20.279-10.125,27.118
	c-9.015,15.458-16.437,37.26-30.543,49.074c1.091-6.421,5.929-9.75,9.538-14.897c4.287-6.113,7.16-12.651,10.165-19.358
	c5.601-12.501,13.25-23.673,22.987-33.618c6.409-6.546,22.163-19.222,32.844-14.421c8.899,4-1.65,19.517-5.237,24.774
	c-6.765,9.917-16.065,17.387-21.255,28.38c-3.142,6.654-8.528,19.636-3.442,26.884c6.414,9.14,25.13-3.042,32.187-6.972
	c4.124-2.297,29.833-22.969,35.37-18.546c5.84,4.664-15.393,21.289-3.044,27.635c7.07,3.633,21.455-8.086,26.519-11.934
	c6.533-4.964,16.818-12.956,19.532-20.804c-2.711,6.426-10.313,11.295-15.105,16.424c-7.28,7.793-14.583,15.449-21.514,23.535
	c-9.444,11.015-18.547,23.079-29.766,32.56c-3.469,2.931-17.662,14.292-23.279,10.398c-4.98-3.452,2.338-14.664,4.719-17.724
	c5.79-7.444,15.551-11.122,24.201-14.855c10.125-4.371,19.98-7.329,30.436-10.544c5.277-1.623,17.114-7.46,21.989-4.668"/>
<path fill="none" stroke="#000000" d="M243.835,89.528c3.282-7.379,27.726-33.424,37.198-27.754
	c9.165,5.486-9.96,29.171-13.769,33.25c6.31-9.478,13.221-19.247,22.839-26.104c2.782-1.982,10.667-8.745,13.638-5.027
	c2.744,3.432-7.51,14.978-8.889,17.68c-2.141,4.193-6.935,14.387-0.523,17.238c6.529,2.904,18.131-8.581,22.728-11.458
	c17.063-10.682,33.851-17.689,52.927-24.016c-9.178,5.593-19.392,6.342-28.229,13.282c-3.918,3.078-21.062,15.467-11.719,22.07
	c7.133,5.042,23.865-11.05,28.304-15.222c6.449-6.061,12.082-13.253,16.437-20.722c-7.201,4.121-27.309,31.593-8.792,32.364
	c15.583,0.648,29.39-13.438,39.524-22.107c4.679-4.002,12.354-9.18,19.074-8.397c1.711,11.27-9.366,27.902-17.148,35.56
	c-1.306-9.876,26.964-40.314,38.06-36.255c8.874,3.248-14.263,33.757-18.466,38.417c-0.42-4.631,5.905-10.839,8.396-14.662
	c3.164-4.858,7.022-9.438,11.526-13.177c5.09-4.225,16.834-11.216,17.718-0.056c0.551,6.949-9.721,15.867-4.079,22.055
	c6.822,7.483,32.522,2.07,40.382-0.099c15.133-4.175,28.805-14.714,36.333-28.065c7.665-13.596-14.108-8.269-20.276-5.243
	c-10.641,5.219-27.763,26.067-20.821,38.422c8.085,14.391,49.904,5.824,60.203-0.609"/>
<path fill="none" stroke="#000000" d="M236.051,188.824c4.833,0.613,10.721-5.399,14.352-8.021
	c7.958-5.747,15.511-11.538,22.687-18.039c11.508-10.426,22.127-21.855,33.807-32.103c-6.922,4.882-14.13,11.845-19.128,18.289
	c-4.42,5.701-19.224,18.932-14.221,27.508c5.641,9.67,33.273-2.625,40.184-5.099c17.604-6.302,38.274-20.371,49.602-34.356
	c2.36,7.557-3.623,21.554-8.6,27.903c-5.029,6.416-23.453,23.596-33.661,17.603c-4.833-2.838-2.456-7.187,0.953-9.907
	c5.493-4.382,11.2-2.784,17.466-0.707c7.213,2.393,13.854,6.5,21.247,8.496c7.562,2.041,14.73,0.682,22.273-0.716
	c6.527-1.21,16.319-1.358,21.901-4.947"/>
<path fill="none" stroke="#000000" d="M328.271,115.533c-0.323,1.161-1.274,1.655,0.16,2.618c1.6-1.588,2.771-3.36,2.937-5.488
	c-2.791-1.193-5.972,0.149-7.459,2.307"/>
<path fill="none" stroke="#000000" d="M61.43,151.779c3.955-1.648,8.849,0.993,8.695,6.079c-0.174,5.723-7.415,8.89-11.749,9.456
	c-6.751,0.883-11.104-3.907-6.396-11.517c3.962-6.407,15.371-6.923,21.683-5.231c17.829,4.778,30.213,20.549,49.893,19.821
	c12.203-0.453,25.647-1.751,37.111-6.453c9.779-4.009,18.741-10.655,27.638-16.155c-1.916,11.746-9.966,21.817-14.36,32.559
	c-9.448,23.1-20.183,44.092-34.846,63.787c-16.68,22.398-35.591,40.828-62.086,45.573c-8.709,1.562-40.265,5.117-39.764-10.953"/>
<path fill="none" stroke="#000000" d="M222.018,228.769c-5.909-5.587-20.347,3.035-26.009,6.905
	c-8.283,5.666-18.559,18.527-18.646,30.041c-0.111,14.891,15.817,14.678,25.479,11.003c12.589-4.792,23.482-13.24,32.241-24.159
	c4.364-5.439,9.204-16.349,6.653-23.818c-2.301-6.737-14.318-11.791-16.025-1.827c-5.095,29.731,43.956,2.766,51.29-0.171
	c7.906-3.162,55.126-19.038,43.028,7.112c-3.932,8.492-11.856,16.195-17.16,23.657c-4.831,6.789-8.4,14.033-14.561,19.694
	c0.583-5.709,6.578-10.53,9.931-14.62c6.073-7.407,12.576-14.326,19.126-21.182c5.756-6.024,20.276-23.638,29.124-19.25
	c16.838,8.349-16.51,51.68-22.704,59.792c2.347-12.006,51.561-81.166,63.635-57.162c2.658,5.287-1.82,16.917-3.076,22.05
	c-2.185,8.942-5.466,16.654-4.092,26.17s7.099,12.493,15.538,13.231c18.895,1.654,43.581-4.904,61.221-11.543"/>
<path fill="none" stroke="#000000" d="M17.488,312.491c2.367,4.337,3.386,10.404,4.644,15.236
	c3.581,13.76,6.105,27.914,9.127,41.826c5.881,27.081,8.281,61.323-2.643,87.534c-1.904,4.57-3.964,10.895-9.816,9.949
	c-8.297-1.341-13.886-17.454-15.724-24.086c-4.592-16.568-2.195-34.789,0.627-51.459c3.158-18.654,8.589-38.896,19.722-54.477
	c9.894-13.848,26.45-27.113,44.334-27.343c16.952-0.219,23.428,15.126,25.231,29.616c2.513,20.187-1.06,38.979-12.963,55.674
	c-6.748,9.466-27.99,32.247-42.459,25.104c-20.016-9.881,21.976-47.988,31.034-19.168c5.399,17.178-6.107,49.906,15.276,58.799
	c15.397,6.403,31.378-9.511,40.548-19.799c4.788-5.373,29.38-30.584,24.745-38.787c-13.72,5.826-29.074,54.139-5.131,55.053
	c5.954,0.228,13.158-4.67,17.957-7.444c9.693-5.605,18.548-12.261,28.017-18.195c13.458-8.436,27.74-16.511,43.546-19.258
	c-17.658,0.554-44.384,16.138-52.223,32.006c-2.652,5.368-4.131,12.406,0.75,16.729c1.085,0.962,4.74,2.601,6.071,2.702
	c3.767-0.438,7.103-2.106,10.009-5.007c16.864-10.044,26.008-21.04,36.489-37.538c14.011-22.055,32.979-49.16,37.79-75.5
	c0.178-0.973,3.102-17.884-4.05-15.352c-2.934,1.039-7.423,11.646-8.869,13.974c-8.471,13.639-21.506,33.926-20.483,50.646"/>
<path fill="none" stroke="#000000" d="M162.398,380.155c-3.353-2.41-5.56,2.983-6.182,6.058c5.076,2.775,9.303-3.928,10.972-7.854"
	/>
<path fill="none" stroke="#000000" d="M313.896,409.497c-14.918,0.608-22.641,14.529-28.843,26.269
	c-4.014,7.596-10.389,16.68-0.389,21.195c9.018,4.071,17.538,1.182,23.945-5.593c9.767-10.325,17.798-22.333,27.481-32.767
	c15.118-16.289,33.587-38.09,41.346-59.063c3.207-8.67,3.6-24.511-9.664-24.109c-11.976,0.362-23.619,22.414-28.489,31.113
	c-9.633,17.208-16.637,35.727-21.539,54.798c-3.412,13.272-7.116,31.33,8.609,38.088c16.375,7.036,40.604-8.684,53.394-17
	c26.6-17.294,44.942-40.977,61.649-67.53c5.173-8.222,32.931-50.843,12.254-55.106c-18.473-3.809-37.667,21.003-45.13,34.594
	c-16.199,29.498-21.016,92.125,23.956,98.934c20.33,3.078,46.593-7.995,63.032-19.317c9.988-6.879,40.062-38.048,24.204-51.061
	c-6.895-5.657-20.314-0.715-26.909,2.88c-10.939,5.961-19.493,15.257-23.672,27.037c-4.377,12.34-5.614,30.347,4.685,40.189
	c17.748,16.963,49.418,9.738,70.619,5.552"/>
</svg>
