<?xml version="1.0" encoding="iso-8859-1"?>
<!-- Generator: Adobe Illustrator 13.0.0, SVG Export Plug-In . SVG Version: 6.00 Build 14948)  -->
<!DOCTYPE svg PUBLIC "-//W3C//DTD SVG 1.1//EN" "http://www.w3.org/Graphics/SVG/1.1/DTD/svg11.dtd">
<svg version="1.1" id="Layer_1" xmlns="http://www.w3.org/2000/svg" xmlns:xlink="http://www.w3.org/1999/xlink" x="0px" y="0px"
	 width="614.365px" height="466.426px" viewBox="0 0 614.365 466.426" enable-background="new 0 0 614.365 466.426"
	 xml:space="preserve">
<path fill="none" stroke="#000000" d="M101.612,59.759c-12.256-2.292-22.195-12.542-26.139-23.366
	c-5.731-15.729,7.147-25.739,23.136-28.635c17.193-3.114,34.47,1.87,37.434,19.866c3.469,21.056-17.953,49.135-36.328,59.333
	c-11.516,6.392-41.938,8.01-42.011-10.708c-0.093-23.871,39.65-30.822,58.166-32.279c17.624-1.386,54.162-0.044,59.916,20.87
	c4.2,15.27-9.506,32.628-20.736,42.143c2.993-13.948,15.451-27.586,26.647-36.546c9.615-7.694,28.236-19.381,41.831-14.468
	c15.891,5.744,5.143,37.041-9.33,38.458c-0.176-16.755,25.863-36.36,40.188-42.99c14.126-6.538,22.604-2.295,19.469,12.525
	c-3.69,17.451-18.11,39.825,9.133,46.251c13.302,3.138,27.492-0.243,40.747-2.074c17.095-2.36,33.293-4.849,48.729-12.451"/>
<path fill="none" stroke="#000000" d="M181.922,2.874c1.739-1.118,3.483-1.472,5.266-0.538c-0.604,2.133-6.649,7.087-7.755,2.391
	c-1.156-4.905,7.554-5.115,9.817-2.793c11.042,11.329-33.116,42.128-39.497,33.274"/>
<path fill="none" stroke="#000000" d="M385.833,107.663c-0.604-10.222,7.398-19.885,13.165-27.026
	c7.874-9.751,23.262-27.754,36.865-25.605c22.268,3.517-3.357,47.91-12.457,54.723c6.192-18.446,23.381-40.824,39.66-49.727
	c18.969-10.373,7.699,11.806,3.339,20.745c-2.793,5.728-10.954,23.075,2.023,19.078c7.275-2.241,14.462-11.741,20.183-16.8
	c7.211-6.378,16.447-12.039,22.864-19.125c-6.014,3.868-34.457,29.508-23.664,37.233c10.144,7.258,32.348-25.136,27.971-33.147
	c2.944,6.89,16.629-0.407,20.782-3.469c9.269-6.833,15.995-19.018,25.148-25.043c-7.621,9.502-15.508,18.333-21.366,29.345
	c-4.506,8.468-12.38,19.873-4.313,29.035c9.608,10.911,27.873-0.981,37.377-5.932c15.08-7.854,28.795-16.269,40.585-29.192"/>
<g>
	<path d="M442.829,448.607l-3.468-10.881h1.866l1.622,5.505c0.405,1.356,0.771,2.712,1.014,3.762h0.041
		c0.223-1.082,0.648-2.373,1.115-3.777l1.825-5.489h1.846l1.662,5.521c0.386,1.291,0.751,2.583,0.953,3.729h0.041
		c0.284-1.194,0.669-2.405,1.095-3.761l1.805-5.489h1.806l-3.874,10.881h-1.845l-1.724-5.666c-0.426-1.389-0.71-2.454-0.893-3.552
		h-0.041c-0.243,1.081-0.547,2.146-1.054,3.552l-1.947,5.666H442.829z"/>
</g>
<path fill="none" stroke="#000000" d="M66.913,109.521c16.444-17.706-19.718-33.018-35.237-29.453
	C20.161,82.713,4.591,91.045,1.334,101.714c-3.674,12.034,5.266,26.074,17.415,31.521c16.581,7.432,37.161,5.216,54.57,11.195
	c19.069,6.55,28.089,23.305,24.688,41.028c-3.977,20.73-36.944,37.152-59.235,31.271c-15.429-4.07-23.604-19.068-22.069-32.678
	c1.255-11.14,10.222-27.406,25.433-26.978"/>
<path fill="none" stroke="#000000" d="M208.685,149.758c-8.301-6.866-23.506-9.693-34.073-6.164
	c-14.797,4.942-34.9,32.339-24.835,45.982c8.522,11.554,34.738,2.79,44.392-3.719c6.327-4.264,9.619-9.958,12.281-16.517
	c2.466-6.075,9.105-17.721,6.324-23.706c-18.384,6.46-36.114,35.658-10.645,44.537c26.774,9.333,49.531-34.037,74.841-37.34
	c-1.52,6.952-39.2,29.506-13.889,35.418c19.877,4.644,40.18-26.276,47.62-37.423c-5.842,3.306-10.091,13.135-13.545,18.718
	c-9.422,15.226-20.077,29.805-30.866,44.285c-8.936,11.996-18.483,24.959-33.231,31.976c-12.517,5.955-20.388-0.345-15.461-12.046
	c6.344-15.062,27.087-27.076,41.928-34.921c14.609-7.722,29.507-14.053,45.252-19.678c18.611-6.648,43.85-15.672,57.443-28.79
	c-9.16,3.186-26.521,21.474-27.01,30.861c-0.773,14.799,21.879-5.555,26.323-8.996c10.883-8.426,22.168-15.815,35.895-20.202
	c5.425-1.733,17.457-6,22.297-0.561c5.926,6.657-6.305,20.336-10.122,26.21c11.626-6.603,23.85-30.507,39.831-28.331
	c2.64,6.176-8.886,16.302-3.938,21.739c4.846,5.324,21.088,0.326,26.701-1.293c16.039-4.628,32.028-9.713,48-14.564
	c9.107-2.765,19.851-5.055,27.877-9.707c0.131-0.456,0.065-0.889-0.195-1.301c-8.483-2.457-18.127,1.234-25.434,4.886
	c-7.383,3.689-29.672,14.893-28.9,24.558c1.208,15.114,41.353-9.671,49.891-11.364c8.545,11.242-44.511,45.208-52.047,50.171
	c-15.653,10.308-31.835,21.15-50.413,26.997c-11.045,3.475-25.593,3.604-20.287-10.312c11.392-29.874,63.97-39.122,94.05-44.77
	c16.051-3.014,32.188-5.384,48.447-7.316c13.87-1.648,32.394-1.81,45.353-6.59"/>
<path fill="none" stroke="#000000" d="M372.793,134.32c-3.277-0.273-7.498,2.754-6.42,5.428c8.61-1.674,16.297-12.249,20.054-18"/>
<g>
	<path d="M462.208,445.492c0,2.146-1.524,3.082-2.964,3.082c-1.61,0-2.853-1.151-2.853-2.986c0-1.943,1.304-3.082,2.951-3.082
		C461.052,442.505,462.208,443.716,462.208,445.492z M457.485,445.551c0,1.271,0.751,2.231,1.809,2.231
		c1.033,0,1.808-0.948,1.808-2.255c0-0.983-0.504-2.231-1.783-2.231S457.485,444.448,457.485,445.551z"/>
	<path d="M463.572,444.448c0-0.684-0.012-1.271-0.049-1.811h0.947l0.036,1.14h0.05c0.271-0.78,0.922-1.271,1.647-1.271
		c0.123,0,0.21,0.012,0.308,0.036v0.995c-0.11-0.024-0.221-0.036-0.369-0.036c-0.762,0-1.303,0.563-1.451,1.355
		c-0.024,0.144-0.049,0.312-0.049,0.491v3.095h-1.07V444.448z"/>
	<path d="M467.642,439.926h1.083v8.516h-1.083V439.926z"/>
	<path d="M475.686,439.926v7.017c0,0.516,0.012,1.104,0.049,1.499h-0.972l-0.049-1.008h-0.025c-0.332,0.648-1.058,1.14-2.029,1.14
		c-1.438,0-2.545-1.188-2.545-2.95c-0.013-1.931,1.217-3.118,2.668-3.118c0.91,0,1.525,0.42,1.796,0.888h0.024v-3.467H475.686z
		 M474.603,445c0-0.132-0.012-0.312-0.049-0.443c-0.16-0.672-0.75-1.224-1.562-1.224c-1.119,0-1.783,0.96-1.783,2.243
		c0,1.175,0.591,2.146,1.759,2.146c0.726,0,1.39-0.468,1.587-1.259c0.037-0.145,0.049-0.288,0.049-0.456V445z"/>
</g>
<path fill="none" stroke="#000000" d="M16.427,292.198c6.957-4.324,15.418-10.732,20.071-17.514
	c-2.642,3.097-14.99,12.734-5.343,14.03c8.401,1.13,19.621-15.073,24.367-20.59c-3.555,3.478-15.031,14.53-8.99,19.984
	c5.186,4.684,21.053-5.078,24.395-8.531"/>
<path fill="none" stroke="#000000" d="M40.927,267.464c6.254,3.901,14.028,7.149,21.5,6.562"/>
<path fill="none" stroke="#000000" d="M82.427,292.198c6.769-2.357,13.445-8.434,18.473-13.45
	c-2.451,1.469-12.382,9.383-7.795,11.982c5.386,3.053,13.983-10.28,17.279-12.485c-1.489,1.248-7.662,6.837-6.49,9.419
	c2.406,5.309,10.965-6.904,12.167-8.535c4.692,5.196,13.508,0.402,18.729-1.884c-5.529,3.924-10.334,14.385,0.775,10.418
	c6.727-2.401,23.694-19.759,19.907-27.234c-7.32,0.853-19.29,24.129-8.43,27.131c9.977,2.759,26.159-20.962,26.354-28.608
	c-11.918-1.632-22.935,34.167,0.03,23.151"/>
<path fill="none" stroke="#000000" d="M138.427,269.483c-0.78-0.406-1.222-0.471-1,0"/>
<path fill="none" stroke="#000000" d="M187.927,288.665c6.589-1.597,14.507-7.155,19.553-11.753
	c4.083-3.718,12.224-12.688,12.407-18.468c-9.281,0.129-21.026,17.338-16.87,26.108c5.28,11.14,20.038-4.466,13.987-8.97
	c0.837,4.891,10.486,1.503,13.885,1.08c1.462-0.183,16.604-3.401,8.935-6.08c-5.761-2.012-7.907,7.83-6.907,11.531
	c2.681,9.921,19.096,1.861,24.51-2.536"/>
<path fill="none" stroke="#000000" d="M276.927,244.749c9.916,2.023,10.223,13.239,7.611,21.815
	c-3.01,9.888-10.335,13.485-16.435,21.005c5.646,1.691,12.285,0.213,17.964-0.434c6.163-0.699,15.649,1.188,20.859-1.499"/>
<path fill="none" stroke="#000000" d="M304.427,265.949c-3.017-0.329-17.022-1.79-18,0"/>
<path fill="none" stroke="#000000" d="M303.427,246.767c-5.44,0-23.104-4.366-26-0.504"/>
<path fill="none" stroke="#000000" d="M331.427,272.511c-4.55-4.605-21.309,4.973-19.425,11.218
	c3.131,10.375,18.858-6.219,19.097-11.053c-5.019,4.237-8.822,15.098,0.378,16.514c11.49,1.77,19.44-12,27.46-17.156
	c1.948,5.055-2.271,12.045-5.756,15.629c-1.646,1.693-3.456,3.879-6.101,3.573c-3.37-0.392-4.739-2.817-1.679-5.102
	c4.312-3.218,10.069,5.431,15.93,4.19c7.85-1.659,19.711-18.105,27.554-13.721c-0.573,2.359-4.499,8.736-1.552,10.613
	c4.175,2.658,17.218-12.073,19.984-14.105c-2.697,5.317-8.078,9.936-12.092,14.223c-8.821,9.427-18.639,21.197-29.897,27.608
	c-5.042,2.87-16.29,7.372-13.023-2.606c3.136-9.58,17.106-13.572,25.567-16.52c17.355-6.044,35.304-6.408,53.372-7.658
	c13.316-0.919,26.777-2.081,40.106-2.561c17.812-0.643,35.409,0.725,53.076-2.487"/>
<path fill="none" stroke="#000000" d="M559.427,283.111c-0.353,0.111-0.967-1-1.448,0.541c1.774,0.25,1.388-0.982,1.448-1.045"/>
<g>
	<path d="M486.195,447.476c0.468,0.288,1.151,0.528,1.871,0.528c1.067,0,1.691-0.564,1.691-1.38c0-0.756-0.433-1.188-1.523-1.606
		c-1.319-0.468-2.135-1.151-2.135-2.291c0-1.26,1.043-2.195,2.614-2.195c0.827,0,1.428,0.192,1.787,0.396l-0.288,0.852
		c-0.264-0.145-0.804-0.384-1.535-0.384c-1.104,0-1.523,0.659-1.523,1.211c0,0.756,0.492,1.127,1.607,1.56
		c1.367,0.527,2.063,1.187,2.063,2.374c0,1.248-0.924,2.339-2.831,2.339c-0.779,0-1.631-0.24-2.062-0.527L486.195,447.476z"/>
	<path d="M493.454,441.551v1.392h1.512v0.804h-1.512v3.13c0,0.72,0.204,1.128,0.792,1.128c0.288,0,0.456-0.024,0.611-0.072
		l0.048,0.791c-0.203,0.084-0.527,0.156-0.936,0.156c-0.491,0-0.887-0.168-1.139-0.456c-0.3-0.312-0.408-0.827-0.408-1.511v-3.166
		h-0.899v-0.804h0.899v-1.067L493.454,441.551z"/>
	<path d="M496.155,444.753c0-0.684-0.013-1.271-0.049-1.811h0.924l0.036,1.14h0.048c0.264-0.78,0.899-1.271,1.607-1.271
		c0.12,0,0.204,0.012,0.3,0.036v0.995c-0.108-0.024-0.216-0.036-0.36-0.036c-0.743,0-1.271,0.563-1.415,1.355
		c-0.023,0.144-0.048,0.312-0.048,0.491v3.095h-1.043V444.753z"/>
	<path d="M500.546,446.037c0.024,1.428,0.936,2.016,1.991,2.016c0.756,0,1.211-0.132,1.607-0.3l0.18,0.755
		c-0.372,0.168-1.008,0.372-1.931,0.372c-1.787,0-2.854-1.188-2.854-2.938s1.031-3.13,2.723-3.13c1.895,0,2.398,1.667,2.398,2.734
		c0,0.216-0.024,0.384-0.036,0.491H500.546z M503.641,445.282c0.012-0.672-0.276-1.716-1.463-1.716
		c-1.067,0-1.535,0.984-1.619,1.716H503.641z"/>
	<path d="M510.048,447.356c0,0.504,0.024,0.996,0.096,1.392h-0.959l-0.084-0.731h-0.036c-0.323,0.456-0.947,0.863-1.775,0.863
		c-1.175,0-1.774-0.827-1.774-1.667c0-1.403,1.247-2.171,3.49-2.159v-0.119c0-0.48-0.132-1.344-1.319-1.344
		c-0.54,0-1.104,0.168-1.512,0.432l-0.239-0.695c0.479-0.312,1.175-0.516,1.906-0.516c1.775,0,2.207,1.211,2.207,2.374V447.356z
		 M509.029,445.786c-1.151-0.024-2.458,0.18-2.458,1.307c0,0.684,0.455,1.008,0.995,1.008c0.756,0,1.235-0.479,1.403-0.972
		c0.036-0.107,0.06-0.228,0.06-0.336V445.786z"/>
	<path d="M512.978,441.551v1.392h1.512v0.804h-1.512v3.13c0,0.72,0.204,1.128,0.792,1.128c0.288,0,0.456-0.024,0.611-0.072
		l0.048,0.791c-0.203,0.084-0.527,0.156-0.936,0.156c-0.491,0-0.887-0.168-1.139-0.456c-0.3-0.312-0.408-0.827-0.408-1.511v-3.166
		h-0.899v-0.804h0.899v-1.067L512.978,441.551z"/>
	<path d="M519.745,448.532c-0.276,0.144-0.888,0.348-1.668,0.348c-1.751,0-2.89-1.199-2.89-2.975c0-1.787,1.223-3.082,3.118-3.082
		c0.623,0,1.175,0.156,1.463,0.3l-0.239,0.815c-0.252-0.144-0.648-0.275-1.224-0.275c-1.331,0-2.051,0.983-2.051,2.194
		c0,1.344,0.863,2.171,2.015,2.171c0.6,0,0.995-0.156,1.295-0.288L519.745,448.532z"/>
	<path d="M520.983,440.232h1.055v3.622h0.024c0.168-0.3,0.432-0.563,0.756-0.743c0.312-0.18,0.684-0.3,1.079-0.3
		c0.779,0,2.026,0.479,2.026,2.482v3.454h-1.055v-3.334c0-0.936-0.348-1.728-1.344-1.728c-0.684,0-1.224,0.48-1.415,1.056
		c-0.06,0.144-0.072,0.3-0.072,0.504v3.502h-1.055V440.232z"/>
</g>
<path fill="none" stroke="#000000" d="M44.427,337.124c-13.442,5.842-28.25-13.65-17.135-24.733
	c3.584-3.573,13.495-10.18,17.756-5.454c4.483,4.975-0.069,17.085-2.124,22.099c-3.089,7.54-12.434,16.94-20.02,20.115
	c-12.289,5.139,0.694-8.998,4.51-11.56c7.413-4.974,24.709-12.627,33.798-9.576c9.369,3.146-1.41,13.306-5.844,16.99
	c2.496-4.76,11.901-14.407,17.471-14.846c6.882-0.54-0.128,9.908-3.248,11.879c2.086-5.869,17.734-21.483,21.132-10.647
	c1.228,3.918-4.521,10.825-1.269,14.323c3.435,3.692,14.592-1.854,17.972-4.047"/>
<path fill="none" stroke="#000000" d="M67.927,304.817c4.588,1.24,0.07,7.567-2.5,8.582"/>
<path fill="none" stroke="#000000" d="M130.427,346.248c7.747-3.805,8.652-16.936,17.524-19.445
	c2.767,4.066,1.255,14.706-1.001,18.928c-1.515,2.833-12.24,8.792-11.017,2.006c0.603-3.347,3.558-1.582,6.344-1.353
	c5.743,0.472,9.529-0.729,14.527-3.517c6.894-3.843,15.1-12.229,23.035-13.153c-3.674,0.993-21.084,12.279-14.82,17.592
	c6.049,5.132,14.189-13.584,14.93-17.333c-0.125,4.363-8.684,15.74-0.182,16.847c4.153,0.541,11.317-7.589,14.486-9.683
	c4.407-2.912,10.101-7.137,15.167-8.366c-1.127,2.035-10.921,11.546-7.327,13.947c3.77,2.519,15.754-13.946,17.769-16.452
	c-2.988,9.873-11.633,20.553-16.8,29.582c-2.209,3.86-22.205,32.001-22.588,18.593c-0.378-13.253,24.454-23.289,33.809-27.704
	c9.772-4.611,15.839-9.644,23.979-16.532c-4.5,1.672-8.989,8.969-9.782,13.578c3.09,1.484,7.26-4.264,9.515-6.038
	c4.382-3.446,12.253-9.604,18.293-7.93c0.14,5.244-4.143,11.374-6.793,15.788c2.184-4.229,8.337-18.366,14.492-16.703
	c0.318,5.468-4.988,17.43,4.646,16.031c6.503-0.944,14.44-7.614,20.098-10.721c4.241-2.329,8.539-4.466,13.092-6.023
	c-3.96,1.452-22.026,10.725-17.315,17.108c4.435,6.011,20.322-18.316,25.377-17.544c-0.535,8.842-11.052,19.789-16.438,26.141
	c-5.329,6.283-11.366,11.656-18.069,16.403c-2.576,1.823-10.868,9.963-11.931,4.006c-1.782-9.984,22.369-21.324,29.035-23.979
	c9.005-3.588,22.664-9.302,32.446-6.073"/>
<path fill="none" stroke="#000000" d="M246.427,320.748c-0.489,0.522-1.359-0.385-1.436,0.95c1.472-0.817,0.192-1.322,0.436-2.45"/>
<path fill="none" stroke="#000000" d="M344.927,346.248c9.978-0.545,21.698-12.119,28.836-17.948
	c-5.25,5.007-18.133,19.088-1.849,16.345c13.475-2.27,26.236-18.369,34.457-28.231c-4.491,4.044-9.221,7.284-11.965,13.135
	c-1.12,2.389-4.08,9.571-2.402,12.21c3.523,5.539,32.73-4.621,31.923-8.51"/>
<path fill="none" stroke="#000000" d="M391.427,321.248c2.905,5.536,21.564,7.396,21,5.5"/>
<path fill="none" stroke="#000000" d="M378.927,322.248c0,0.167,0,0.333,0,0.5"/>
<path fill="none" stroke="#000000" d="M442.927,344.248c5.552,3.881,21.804-13.511,25.847-16.433
	c-3.874,2.782-16.119,11.936-10.356,17.329c6.732,6.301,18.909-9.478,23.285-12.718c-4.277,1.337-11.79,11.383-6.082,12.844
	c8.142,2.083,15.155-11.38,19.296-15.859c5.073,5.152,18.385,4.017,23.469-1.098c-4.499,2.4-11.541,11.307-5.562,15.22
	c10.686,6.994,27.566-9.729,33.59-16.137c1.976-2.101,22.519-20.971,12.442-21.102c-9.715-0.126-21.435,23.948-19.574,32.278
	c2.394,10.72,14.029,2.329,19.037-1.806c3.428-2.831,28.13-23.2,20.876-28.843c-9.267-7.207-19.834,21.9-20.216,27.773
	c-0.742,11.409,11.74,13.512,16.949,3.55"/>
<path fill="none" stroke="#000000" d="M526.427,323.748c0.329-0.104-1.585,0.277-2.013,0.448c0.097-0.511,0.435-0.826,1.013-0.948"
	/>
<path fill="none" stroke="#000000" d="M15.427,416.248c5.335-2.757,9.771-7.12,13.163-12.037c1.89-2.739,9.664-15.422,7.261-18.487
	c-3.162-4.034-7.657,5.88-8.434,7.913c-1.636,4.276-3.414,13.227-1.389,17.521c4.403,9.339,15.158-1.082,8.079-6.944
	c5.452,1.047,11.488,0.246,16.967-0.493c2.717-0.367,11.335-3.685,4.364-5.468c-5.325-1.362-7.221,7.842-5.534,11.408
	c4.359,9.216,15.143,4.292,21.522,1.587"/>
<path fill="none" stroke="#000000" d="M94.927,386.248c7.821,1.694-2.199,13.925-4.036,7.024
	c-1.711-6.431,17.049-16.612,22.071-13.945c8.091,4.297-4.251,35.862-6.426,42.557c-4.445,13.679-14.357,25.177-18.458,38.65
	c3.18-4.889,7.637-8.645,11.526-12.952c5.38-5.958,9.821-12.87,14.045-19.67c4.534-7.298,8.731-15.631,14.534-21.968
	c2.769-3.023,9.49-12.221,13.598-12.029c-7.736,11.093-13.207,21.773-18.078,34.556c-2.764,7.253-4.817,14.699-8.182,21.683
	c-2.016,4.185-4.727,8.595-5.541,13.089c4.946-4.938,10.35-10.284,15.082-15.595c6.543-7.342,11.24-16.546,17.238-24.399
	c6.268-8.206,12.588-16.378,18.516-24.771c1.813-2.567,11.761-17.928,12.109-17.229"/>
<path fill="none" stroke="#000000" d="M178.927,432.248c-3.132,1.293-6.952,0.313-10.332,1.824
	c-4.533,2.025-9.468,6.708-11.678,11.176c-3.324,6.72-0.456,12.005,6.595,13c8.401,1.187,13.992-5.343,16.289-12.863
	c0.822-2.691,2.331-6.644-0.013-9.035c-1.164-1.188-3.711-2.625-3.884,0.4c-0.439,7.718,15.793-3.047,17.994-4.376
	c3.171-1.916,5.191-3.8,8.53-3.499c5.834,0.525,4.305,3.1,2.998,6.977c-2.499,7.416-8.682,20.017,3.35,19.02
	c18.106-1.501,30.225-19.017,40.196-32.194c2.93-3.872,6.05-7.739,8.435-11.896c-6.734,4.322-11.947,11.422-16.343,18.069
	c-3.057,4.623-10.907,14.514-10.162,20.699c2.216,18.395,34.371-12.402,37.754-16.523c8.251-10.049,18.574-20.909,23.813-32.923
	c2.289-5.249,4.648-14.393-4.181-10.262c-9.365,4.38-15.832,16.817-20.36,25.377c-4.603,8.7-11.09,18.089-13.433,27.497
	c6.063-5.335,12.897-16.456,22.208-16.871c8.119-0.361,4.672,7.01,3.139,12.724c-1.506,5.611-6.787,17.676,1.664,20.625
	c4.38,1.528,11.101-2.604,15.102-3.847c4.493-1.396,12.383-2.055,15.318-6.099"/>
<path fill="none" stroke="#000000" d="M237.427,421.248c2.456,7.06,21.763,5.907,28,6"/>
<path fill="none" stroke="#000000" d="M390.427,459.748c-20.172-6.323-27.532-38.654-12.583-53.385
	c5.867-5.781,24.894-9.855,28.028,1.202c1.439,5.075-1.697,14.322-3.328,19.128c-2.485,7.325-6.475,14.705-11.215,20.821
	c-5.009,6.461-12.022,10.733-19.338,14.253c-4.665,2.245-16.573,6.564-21.479,2.448c-6.938-5.821,3.495-14.901,8.248-17.438
	c9.729-5.192,20.953-3.665,31.507-3.144c14.489,0.717,28.894-0.129,41.514-7.851c8.68-5.312,16.05-11.642,23.152-18.91
	c4.1-4.193,10.701-9.708,12.803-15.021c-7.294,2.236-14.02,12.281-18.643,17.888c-5.807,7.042-14.206,19.215-13.737,28.933
	c0.487,10.089,9.92,9.645,17.637,7.98c6.885-1.483,13.621-3.64,20.393-5.542c5.2-1.46,11.37-1.955,16.042-4.864"/>
<path fill="none" stroke="#000000" d="M434.927,413.748c3.192,8.406,18.34,1.77,24.46,2.49c3.388,0.398,4.827,2.412,7.632,3.423
	c3.6,1.297,7.271,0.396,10.853,0.672c0.41,0.845-0.337,0.555-0.444,0.915"/>
<path fill="none" stroke="#000000" d="M563.427,390.748c3.556,4.497-2.873,22.773-3.6,28.837c-0.523,4.364-4.916,18.311-0.4,21.163"
	/>
<path fill="none" stroke="#000000" d="M563.927,458.748c-1.77-3.281-5.888,0.124-4.726,2.984c2.197-0.482,4.852-2.73,4.226-4.484"/>
<path fill="none" d="M541.427,39.248c2.218,8.111,18.438,12.18,26,11.5"/>
</svg>
