<?xml version="1.0" encoding="iso-8859-1"?>
<!-- Generator: Adobe Illustrator 13.0.0, SVG Export Plug-In . SVG Version: 6.00 Build 14948)  -->
<!DOCTYPE svg PUBLIC "-//W3C//DTD SVG 1.1//EN" "http://www.w3.org/Graphics/SVG/1.1/DTD/svg11.dtd">
<svg version="1.1" id="Layer_1" xmlns="http://www.w3.org/2000/svg" xmlns:xlink="http://www.w3.org/1999/xlink" x="0px" y="0px"
	 width="545.307px" height="488.984px" viewBox="0 0 545.307 488.984" enable-background="new 0 0 545.307 488.984"
	 xml:space="preserve">
<g>
	<path fill="none" stroke="#000001" d="M47.109,18.696c5.444-11.226,10.672-7.787,10.107,0.527
		c-1.057,15.52-10.075,37.244-17.651,52.02c-5.161,10.065-19.642,36.403-27.296,40.166c-7.18,3.53-2.387-8.036,1.035-16.026
		C22.072,74.892,42.142,43.079,55.81,30.6c5.845-5.333,15.13-10.9,15.544-1.274c0.383,8.901-10.006,29.481-14.632,38.354
		c-4.9,9.396-28.159,44.907-12.931,44.209c5.222-0.239,17.042-13.727,22.725-17.77c7.845-5.575,17.365-12.356,24.859-14.913
		c-8.883,4.055-33.624,22.688-34.548,41.486c-0.574,11.7,29.889-11.424,35.327-26.701c1.582-4.44,2.938-18.128-2.602-12.385
		c-3.901,4.046,6.839,6.389,7.494,6.658c11.141,4.583,24.123,5.347,39.629-8.829c-4.586,4.458-26.458,28.799-24.834,37.237
		c2.135,11.105,28.129-21.345,32.779-26.244c-5.709,6.202-20.947,25.719-12.844,29.431c8.89,4.073,25.034-22.368,33.697-31.28
		c-0.248,0.98-0.819,1.905-1.286,2.974"/>
</g>
<g>
	<path fill="none" stroke="#000002" d="M186.315,108.486c11.976-3.032,20.102-18.045,29.145-25.233
		c-4.04,3.021-18.256,18.085-8.682,19.873c5.147,0.961,14.82-6.966,18.473-10.207c4.079-3.62,7.716-7.969,11.838-11.409
		c0.535,5.197-8.318,33.307-18.346,25.027c-1.372-1.133-2.249-4.239-0.854-5.862c1.938-2.255,3.173-0.255,5.584,0.477
		c6.156,1.867,10.192,7.294,16.733,8.532"/>
	<path fill="none" stroke="#000003" d="M224.639,73.756c-0.995,0.559-1.881,0.431-2.453,1.796c2.158,1.676,3.358,0.544,2.828-2.347
		c-1.448,0.075-1.753,0.853-2.77,1.749"/>
</g>
<g>
	<path fill="none" stroke="#000004" d="M275.537,107.289c15.671-10.315,33.047-22.253,44.398-37.543
		c-4.735,8.436-14.851,13.02-19.859,21.675c-1.25,2.161-4.252,9.078-2.991,11.704c2.04,4.248,10.273,1.764,13.931,0.305
		c12.062-4.813,20.776-11.008,29.204-20.737c3.354-3.872,15.935-17.689,11.396-22.795c-15.219,10.282-27.822,26.986-36.312,43.312
		c4.659-7.391,16.624-19.347,26.009-18.647c0.74,6.22-5.729,9.851-5.924,15.689c-0.278,8.439,8.262,4.918,13.916,3.009
		c5.632-1.901,21.631-7.5,17.146-16.225c-5.101-0.25-12.235,6.746-12.484,11.855c-0.476,9.756,15.404,9.587,22.169,8.996"/>
</g>
<g>
	<path fill="none" stroke="#000005" d="M313.261,62.978c-6.011,1.456-5.218,11.505-2.558,15.569
		c4.422,6.754,13.373,2.748,19.923,1.198"/>
</g>
<path fill="none" stroke="#000006" d="M404.878,109.085c9.3-3.655,18.095-11.174,25.91-17.978
	c8.698-7.572,15.332-18.152,24.177-25.06c-5.129,4.653-30.549,25.326-26.775,33.455c4.388,9.454,29.035-8.778,32.929-12.945
	c-2.726,1.471-11.481,8.571-11.238,12.348c0.608,9.452,10.46,0.689,13.072-1.08c3.271-2.215,17.738-12.761,21.609-10.338
	c4.301,2.69-4.618,12.89-6.729,15.457c1.68-2.783,12.685-16.459,16.759-12.301c3.104,3.168-6.668,14.308-7.793,15.58
	c3.781-3.955,7.658-10.529,12.841-12.754c6.421-2.757,6.378-0.49,4.644,4.383c-1.813,5.092-5.008,9.881,2.395,11.277
	c5.623,1.061,14.473-4.304,18.753-7.393c3.787-2.732,8.688-7.397,8.938-12.543c0.398-8.266-5.901-4.107-9.322,0.73
	c-10.845,15.335,8.154,22.454,19.953,13.173"/>
<path fill="none" stroke="#000007" d="M472.542,76.151c-1.743,0.342-2.949,0.078-2.932,2.316
	C471.619,78.102,471.448,77.857,472.542,76.151c-0.486-0.559-1.085-0.958-1.796-1.198"/>
<path fill="none" stroke="#000008" d="M447.393,63.576c-4.329,3.963-11.219,6.43-2.915,11.256c7.228,4.2,18.274,0.506,22.077-6.465"
	/>
<path fill="none" stroke="#000009" d="M40.208,149.205c0.193-0.371,1.046-0.553,0.506-0.777c-6.366,1.359-20.444,1.622-25.656-2.816
	"/>
<path fill="none" stroke="#00000A" d="M19.848,167.768c7.654,1.327,15.234-2.369,22.754-0.599"/>
<path fill="none" stroke="#00000B" d="M14.459,151.6c-1.91,19.075,3.656,35.055-8.322,51.841c0.596-0.311,1.124-0.233,1.735-0.344"
	/>
<path fill="none" stroke="#00000C" d="M72.543,171.959c-9.854,0.07-14.967,3.995-16.736,13.772
	c-1.587,8.772,3.23,19.063,13.744,18.605c8.808-0.383,17.672-13.116,14.997-21.032c-0.919-2.721-3.904-6.017-6.469-7.301
	c-2.281-1.143-8.473-2.283-8.53-2.249"/>
<path fill="none" stroke="#00000D" d="M110.268,166.57c-2.896,2.771-1.408,14.249-1.196,18.561
	c0.312,6.344-0.291,13.058,0.029,19.582c-1.6-4.694-0.163-10.08-0.164-14.789c-0.001-4.647-1.485-10.516,0.12-14.984
	c4.045-11.27,16.159-5.625,16.78,4.205"/>
<path fill="none" stroke="#00000E" d="M212.064,170.762c-10.917-8.795-40.182,14.602-31.313,26.977
	c11.007,15.362,40.843-13.823,34.172-28.098c-8.8,2.254-13.575,28.077-1.359,27.047c21.351-1.801,41.069-33.551,49.115-50.358
	c3.938-8.227,8.036-21.675-3.939-9.847c-8.015,7.917-13.029,19.374-16.284,29.938c-1.993,6.469-7.108,18.284-2.146,24.101
	c6.927,8.12,21.712-1.29,27.956-6.005c9.228-6.97,15.459-16.766,21.159-26.595c3.122-5.385,13.137-17.617,10.104-24.236
	c-14.854,4.922-21.957,28.116-24.756,41.432c-1.051,5.003-1.643,10.598,3.158,14.088c4.728,3.436,11.985-2.791,14.971,1.916"/>
<path fill="none" stroke="#00000F" d="M367.752,171.959c-7.87-14.792-32.857,0.951-31.167,14.041
	c2.819,21.82,30.501-4.091,32.374-15.058c-4.056,6.68-5.84,14.973-10.025,21.963c-6.516,10.881-13.035,20.804-23.031,28.899
	c-2.72,2.202-9.81,9.771-12.984,4.786c-2.964-4.653,5.042-11.781,7.676-14.479c6.816-6.981,15.429-11.762,23.473-17.215
	c5.874-3.982,15.153-9.308,22.67-8.567"/>
<path fill="none" stroke="#000010" d="M403.68,172.558c-6.902,0.086-13.854,2.027-16.928,9.1c-3.713,8.542,2.73,11.313,10.208,9.461
	c5.99-1.483,12.062-4.612,14.339-10.446c1.57-4.026-1.516-14.003-4.532-7.633c5.856,4.721,23.883-1.712,30.234-3.638
	c-5.48,1.2-12.826,4.604-14.934,10.205c-1.682,4.467-0.342,11.535,4.968,12.74c12.306,2.794,18.177-14.39,10.732-21.961
	c3.012,4.939,15.322,2.987,20.314,2.769c8.445-0.37,16.344-3.136,24.458-4.802c-6.78-0.328-17.927,4.777-21.839,10.062
	c-5.452,7.363-0.785,17.157,8.23,12.851c11.137-5.318,21.264-19.307,28.903-28.584c5.979-7.26,19.112-19.595,17.142-30.196
	c-14.929,6.007-25.758,28.13-31.042,42.201c-1.936,5.156-5.424,11.384-0.599,15.685c4.046,3.607,13.02,3.609,17.947,2.545"/>
<path fill="none" stroke="#000011" d="M0.088,288.726c11.742-2.102,22.535-14.995,29.823-25.133
	c7.579-10.543,17.588-27.352,12.587-40.645c-7.993-0.301-13.979,21.525-15.913,27.292c-4.224,12.602-7.375,27.797-13.801,39.066
	c0.85-9.254,17.503-37.322,29.185-31.059c-1.013,7.278-8.368,12.492-8.826,20.299c-0.433,7.379,4.502,10.711,10.657,7.049
	c6.95-4.137,12.478-10.266,19.865-14.204c7.151-3.813,15.682-9.009,23.682-10.237c-7.739,2.78-14.414,5.905-20.237,11.9
	c-2.054,2.113-12.484,14.365-8.845,18.105c7.658,7.871,26.386-22.83,27.375-28.646c-3.701,4.826-11.186,19.6-2.365,22.48
	c12.537,4.098,32.497-19.664,39.476-27.227c-1.388,7.137-3.124,15.557-6.35,22.291c-1.036,2.162-3.431,7.4-5.957,8.257
	c-3.26,1.104-7.376-1.808-6.81-5.577c1.002-6.672,9.436-1.512,13.352-0.602c11.766,2.738,21.301,0.336,32.206-4.661
	c16.675-7.644,30.367-20.888,35.205-39.016c1.791-6.712,4.024-24.649-6.315-13.805c-8.156,8.555-13.273,19.292-17.5,30.189
	c-3.506,9.039-9.961,19.994-10.432,28.662c4.815-9.601,16.498-29.528,30.727-23.598c-1.954,6.807-9.747,15.614-7.75,23.426
	c2.208,8.642,19.267-3.984,25.762-6.586"/>
<path fill="none" stroke="#000012" d="M206.076,286.332c10.985-2.312,21.056-15.498,28.129-23.326
	c5.8-6.422,11.424-13.078,16.918-19.773c3.038-3.703,12.857-10.205,12.827-14.834c-7.717,7.238-15.348,16.306-20.763,25.465
	c-2.146,3.631-10.342,14.674-6.587,19.324c3.572,4.423,14.266-1.159,18.212-3.289c9.886-5.335,19.912-11.781,30.769-14.747
	c-6.506,1.337-28.372,13.013-22.661,22.796c5.812,9.956,18.979-14.65,20.94-18.197c-3.057,2.985-5.459,9.136-5.478,13.42
	c-0.026,6.695,3.207,5.908,9.029,3.416c7.14-3.059,12.931-7.317,19.517-11.228c8.489-5.041,18.283-7.608,27.078-12.021
	c-6.415,3.543-31.583,8.986-26.912,20.551c5.251,13.001,23.736-9.434,24.804-16.148c-8.648,11.363-13.568,26.336-21.586,38.426
	c-5.144,7.756-15.769,27.627-25.216,30.352c-8.748,2.521-6.6-5.77-3.621-11.254c4.209-7.758,14.42-18.68,22.207-22.969
	c7.395-4.072,16.273-5.161,23.674-9.529c8.493-5.016,17.764-11.07,24.979-17.797c5.198-4.848,9.874-13.025,16.059-16.335
	c5.627,11.972-23.984,50.22-29.452,39.286c-5.583-11.164,12.905-8.105,17.438-7.422c9.858,1.486,31.468,7.056,40.114,0.446"/>
<path fill="none" stroke="#000013" d="M246.794,232.438c-10.014,13.158,32.693,11.978,37.725,11.976"/>
<path fill="none" stroke="#000014" d="M26.435,318.067C17.665,321.484,12.79,333.96,11,342.468
	c-1.378,6.55-1.12,11.935,6.351,13.498c7.631,1.599,12.697-4.359,19.819-4.979c0.69-0.688,0.705-1.481,0.043-2.381"/>
<path fill="none" stroke="#000015" d="M8.471,324.654c-0.512,5.887,16.111,2.289,20.359,7.785"/>
<path fill="none" stroke="#000016" d="M69.549,331.242c-5.982-1.207-12.078-0.523-15.179,6.155
	c-2.506,5.399-2.729,16.528,4.384,17.242c6.592,0.661,14.236-8.533,15.431-14.283c1.127-5.419-4.965-13.919-8.827-6.121"/>
<path fill="none" stroke="#000017" d="M152.184,330.642c-7.978-0.299-19.291,6.748-19.788,15.583
	c-0.699,12.413,14.35,12.063,21.917,8.981c-0.706-1.111,0.52-0.65,0.866-1.211"/>
<path fill="none" stroke="#000018" d="M180.327,331.242c-6.856-9.082-24.417,22.569-2.994,23.352
	c20.809,0.759,4.954-31.024-1.198-22.153"/>
<path fill="none" stroke="#000019" d="M195.896,358.187c-3.043-7.062,5.356-20.053,5.509-28.096
	c3.671,4.639,5.206,12.865,7.698,18.303c0.416-4.65,1.846-11.521,4.757-15.295c3.298,2.712,1.712,10.806,2.96,14.908
	c1.093,3.591,2.975,7.52,4.824,10.777"/>
<path fill="none" stroke="#00001A" d="M234.22,345.013c2.843,1.229,15.548,3.057,18.594,1.23c6.939-4.16-1.958-12.55-7.847-12.07
	c-8.83,0.717-11.48,12.998-8.497,19.685c3.813,8.547,11.542,6.106,18.109,2.533"/>
<path fill="none" stroke="#00001B" d="M300.687,328.248c0.41,10.568-0.543,20.836-0.61,31.516c-0.247-1.492,0.401-2.639,0.61-3.971"
	/>
<path fill="none" stroke="#00001C" d="M292.304,339.625c-0.324-0.084-1.67-0.996-0.566-0.146c3.185,0.562,19.71-1.005,19.729-1.051"
	/>
<path fill="none" stroke="#00001D" d="M327.034,339.026c-8.379-5.521-16.01,20.486-0.6,15.582c4.988-1.587,8.153-7.005,7.187-12.034
	c-0.804-4.176-7.223-9.099-9.581-2.949"/>
<path fill="none" stroke="#00001E" d="M374.952,338.646c-5.943-0.488-7.834,11.361-4.891,14.928c6.16,7.456,11.429-2.955,9.865-8.72
	C379.248,342.347,378.006,338.9,374.952,338.646z"/>
<path fill="none" stroke="#00001F" d="M392.303,348.007c3.159,0.298,10.696,0.092,12.423-3.146c3.107-5.823-5.834-6.674-9.489-3.894
	c-3.948,3.004-6.352,10.271-2.944,14.255c6.65,7.776,14.115-1.556,20.371-3.624"/>
<path fill="none" stroke="#000020" d="M370.747,327.048c-2.378,5.336,0.306,17.365,0,23.968c-0.32,6.922-3.065,13.291-3.225,20.03
	c0.819-0.566,1.021-1.325,1.428-2.082"/>
<path fill="none" stroke="#000021" d="M44.399,384.535c-7.943,1.129-13.322,2.824-18.594,9.465
	c-3.399,4.281-11.133,17.693-4.027,22.15c12.9,8.09,25.825-21.214,26.126-29.727c-6.245,0.402-12.439,21.807-6.976,26.268
	c3.416,2.787,11.033-1.521,13.769-3.709c6.902-5.523,9.221-13.777,14.177-20.641c-4.561,4.279-12.744,23.73-0.406,19.41
	c7.092-2.482,13.784-9.129,20.845-12.426c5.274-2.461,10.271-6.156,15.998-7.242c-6.455,2.037-14.555,6.838-17.958,12.754
	c-5.608,9.746-2.458,20.256,8.544,10.66c13.545-11.812,23.651-35.644,22.065-53.834c-10.12,1.779-13.793,29.873-14.146,38.203
	c-0.784,18.531,13.828,20.865,28.275,12.199c3.538-2.121,13.417-11.438,9.462-15.91c-3.804-4.302-8.793,2.28-10.343,5.539
	c-2.52,5.297-4.642,15.176,1.21,19.186c3.641,2.494,26.837-1.621,28.146-6"/>
<path fill="none" stroke="#000022" d="M77.333,374.955c-1.221,1.133-2.319,2.162-2.29,4.129c1.402-0.646,1.194-1.681,1.691-2.933"/>
<path fill="none" stroke="#000023" d="M227.034,389.923c-7.035,1.791-15.888,2.598-20.237,10.328
	c-3.021,5.367-2.31,12.174,4.101,13.787c14.422,3.633,24.998-22.42,16.228-22.822c-2.836,13.039,24.461,0.936,27.949-0.725
	c7.168-3.414,21.015-12.912,16.973-22.705c-10.516,2.564-15.754,16.135-19.818,24.955c-4.392,9.531-10.029,17.891-12.052,28.482
	c-0.889,4.652-1.988,16.742,4.522,9.564c4.571-5.041,6.249-18.951,0.439-23.234c4.604,0.197,8.836-1.734,13.632-0.865"/>
<path fill="none" stroke="#000024" d="M298.89,416.871c14.775-3.074,29.917-21.693,39.293-32.257
	c-6.713,4.724-19.198,18.927-17.138,27.931c2.519,10.992,19.052,0.65,24.585-3.346c7.258-5.244,13.171-11.893,17.359-19.89
	c1.335-2.55,8.864-16.897,2.048-16.235c-4.426,0.43-10.479,13.799-12.255,17.393c-3.316,6.705-6.844,15.57-8.306,22.613
	c5.575-4.816,10.426-14.75,18.992-13.484c-0.644,6.676-2.618,15.6,6.664,15.479c4.656-0.062,25.71-12.35,19.231-18.004
	c-3.518-3.07-15.38,11.377-7.109,16.688c8.642,5.549,23.406-8.881,27.364-15.268c-3.4,2.354-15.657,17.951-6.086,18.289
	c2.963,0.104,10.899-7.258,13.316-9.191c4.24-3.393,7.417-8.064,11.188-11.612c2.188,2.304,5.501,3.122,8.498,3.618
	c-0.935,3.574-7.343,10.857-5.353,14.881c2.408,4.869,21.986-2.227,23.393-7.184"/>
<path fill="none" stroke="#000025" d="M420.447,386.929c-2.582-0.49-4.164,0.41-4.102,2.902c2.227,0.272,1.938-0.894,2.306-2.304"/>
<path fill="none" stroke="#000000" d="M324.639,391.123c-0.617-0.195-1.073-0.99-2.332-0.51c1.915,5.607,9.343,2.901,13.634,2.994
	c0.133,0.587-0.021,1.126,0.075,1.706"/>
<path fill="none" stroke="#000026" d="M86.208,474.589c4.071-6.602,1.556-13.635,2.413-20.764
	c0.866-7.205,3.587-14.018-0.521-21.004c-2.736-4.656-11.028-9.166-16.358-6.57c-8.516,4.146,1.526,11.74,3.629,17.236
	c2.78,7.273-1.162,17.861-1.938,25.273c-0.252,2.412-1.629,8.393,0.439,10.402C77.644,482.83,84.292,477.699,86.208,474.589z"/>
<path fill="none" stroke="#000027" d="M63.561,420.462c2.115,10.199,8.065,22.668,6.439,33.031c-1.316,8.389-4.1,16.596-3.355,25.48
	c0.874-0.594,1.172-1.324,1.706-2.227"/>
<path fill="none" stroke="#000028" d="M109.07,427.048c4.377,17.738-3.759,39.043-7.126,56.164
	c3.792-0.426,9.331-2.539,13.114-2.301c5.051,0.32,7.77,3.465,11.347,6.6c0.579-0.469,0.988-1.061,1.229-1.779"/>
<path fill="none" stroke="#000029" d="M150.986,454.593c-1.575-10.201-13.111,4.074-14.369,7.918
	c-2.146,6.561,0.458,13.332,7.186,14.969c19.109,4.646,15.943-27.352,2.394-24.684"/>
<path fill="none" stroke="#00002A" d="M189.908,454.593c-11.467-8.461-18.256,7.695-18.561,16.752
	c-0.233,6.932,4.16,12.473,11.796,12.035c6.217-0.355,10.394-6.557,16.346-7.828"/>
<path fill="none" stroke="#00002B" d="M227.034,453.398c-2.41,4.428-5.434,6.188-5.262,11.498
	c0.175,5.385,3.646,12.096,5.262,17.242"/>
<path fill="none" stroke="#00002C" d="M218.052,433.039c-1.494,3.17,1.041,10.338,1.198,14.236
	c0.227,5.641-1.07,10.715-1.827,16.184c-1.036,7.479-1.2,13.1-4.7,19.711c0.536-0.422,0.916-0.963,1.138-1.629"/>
<path fill="none" stroke="#00002D" d="M268.95,462.378c-2.425-13.619-22.673-0.703-25.328,6.721
	c-2.554,7.141,1.792,13.129,9.013,14.398c6.398,1.127,14.096-2.988,18.739-7.27c1.131-0.053,0.178,0.529,0.569,1.119"/>
<path fill="none" stroke="#00002E" d="M286.315,424.054c0.047,11.572,0.506,22.639-0.633,34.18
	c-0.832,8.438-3.881,16.648-4.754,24.922c0.486-4.678,6.111-33.463,12.569-21.373c2.548,4.77-1.113,13.271,0.59,17.971
	c2.449,6.758,6.396,1.99,11.987,2.387"/>
<path fill="none" stroke="#00002F" d="M342.004,485.132c-10.521,4.162-4.492-20.785-6.988-23.783
	c-8.235-9.893-19.478,9.809-17.562,17.197c2.943,11.363,13.514,5.879,19.761-0.6"/>
<path fill="none" stroke="#000030" d="M363.561,461.781c-2.803,6.49-3.778,18.172-4.071,25.418c0.571-0.871,0.686-1.783,1.078-2.664
	"/>
<path fill="none" stroke="#000031" d="M365.357,448.607c-0.961,0.41-2.121-0.391-1.705,2.314c-0.178,0.062,2.133-0.59,1.706-0.613
	c-0.342-0.52-0.74-0.289-1.198,0.693"/>
<path fill="none" stroke="#000032" d="M382.124,485.732c-0.004-9.08,4.476-21.973,2.319-29.861c0.209,0.975,0.434,1.947,0.675,2.916
	"/>
<path fill="none" stroke="#000033" d="M403.082,453.996c0-0.902,0-1.809,0-2.711c0.847,9.086-3.092,20.197,0,29.059"/>
<path fill="none" stroke="#000034" d="M387.513,458.787c1.85,7.986,9.103,13.254,12.574,19.76"/>
<path fill="none" stroke="#000035" d="M447.393,459.384c-4.59-6.367-8.812-16.309-18.562-14.535
	c-10.334,1.877-14.579,14.471-2.396,16.93c8.182,1.648,21.16,0.494,14.834,13.773c-3.777,7.934-20.458,12.533-23.379,1.711
	c-0.899-0.852-0.062,0.428-0.438,0.686"/>
</svg>
