<?xml version="1.0" encoding="iso-8859-1"?>
<!-- Generator: Adobe Illustrator 13.0.0, SVG Export Plug-In . SVG Version: 6.00 Build 14948)  -->
<!DOCTYPE svg PUBLIC "-//W3C//DTD SVG 1.1//EN" "http://www.w3.org/Graphics/SVG/1.1/DTD/svg11.dtd">
<svg version="1.1" id="Layer_1" xmlns="http://www.w3.org/2000/svg" xmlns:xlink="http://www.w3.org/1999/xlink" x="0px" y="0px"
	 width="545.307px" height="488.984px" viewBox="0 0 545.307 488.984" enable-background="new 0 0 545.307 488.984"
	 xml:space="preserve">
<g>
	<path fill="none" stroke="#000000" d="M47.109,18.696c5.444-11.226,10.672-7.787,10.107,0.527
		c-1.057,15.52-10.075,37.244-17.651,52.02c-5.161,10.065-19.642,36.403-27.296,40.166c-7.18,3.53-2.387-8.036,1.035-16.026
		C22.072,74.892,42.142,43.079,55.81,30.6c5.845-5.333,15.13-10.9,15.544-1.274c0.383,8.901-10.006,29.481-14.632,38.354
		c-4.9,9.396-28.159,44.907-12.931,44.209c5.222-0.239,17.042-13.727,22.725-17.77c7.845-5.575,17.365-12.356,24.859-14.913
		c-8.883,4.055-33.624,22.688-34.548,41.486c-0.574,11.7,29.889-11.424,35.327-26.701c1.582-4.44,2.938-18.128-2.602-12.385
		c-3.901,4.046,6.839,6.389,7.494,6.658c11.141,4.583,24.123,5.347,39.629-8.829c-4.586,4.458-26.458,28.799-24.834,37.237
		c2.135,11.105,28.129-21.345,32.779-26.244c-5.709,6.202-20.947,25.719-12.844,29.431c8.89,4.073,25.034-22.368,33.697-31.28
		c-0.248,0.98-0.819,1.905-1.286,2.974"/>
</g>
<g>
	<path fill="none" stroke="#000000" d="M186.315,108.486c11.976-3.032,20.102-18.045,29.145-25.233
		c-4.04,3.021-18.256,18.085-8.682,19.873c5.147,0.961,14.82-6.966,18.473-10.207c4.079-3.62,7.716-7.969,11.838-11.409
		c0.535,5.197-8.318,33.307-18.346,25.027c-1.372-1.133-2.249-4.239-0.854-5.862c1.938-2.255,3.173-0.255,5.584,0.477
		c6.156,1.867,10.192,7.294,16.733,8.532"/>
	<path fill="none" stroke="#000000" d="M224.639,73.756c-0.995,0.559-1.881,0.431-2.453,1.796c2.158,1.676,3.358,0.544,2.828-2.347
		c-1.448,0.075-1.753,0.853-2.77,1.749"/>
</g>
<g>
	<path fill="none" stroke="#000000" d="M275.537,107.289c15.671-10.315,33.047-22.253,44.397-37.543
		c-4.734,8.436-14.851,13.02-19.858,21.675c-1.25,2.161-4.252,9.078-2.991,11.704c2.04,4.248,10.273,1.764,13.931,0.305
		c12.062-4.813,20.776-11.008,29.204-20.737c3.354-3.872,15.936-17.689,11.396-22.795c-15.219,10.282-27.822,26.986-36.312,43.312
		c4.659-7.391,16.624-19.347,26.009-18.647c0.74,6.22-5.729,9.851-5.924,15.689c-0.277,8.439,8.263,4.918,13.916,3.009
		c5.632-1.901,21.631-7.5,17.146-16.225c-5.102-0.25-12.235,6.746-12.484,11.855c-0.476,9.756,15.404,9.587,22.169,8.996"/>
</g>
<g>
	<path fill="none" stroke="#000000" d="M313.261,62.978c-6.011,1.456-5.218,11.505-2.558,15.569
		c4.422,6.754,13.373,2.748,19.923,1.198"/>
</g>
<path fill="none" stroke="#000000" d="M404.878,109.085c9.3-3.655,18.095-11.174,25.91-17.978
	c8.698-7.572,15.332-18.152,24.177-25.06c-5.129,4.653-30.549,25.326-26.774,33.455c4.388,9.454,29.034-8.778,32.929-12.945
	c-2.727,1.471-11.481,8.571-11.238,12.348c0.608,9.452,10.46,0.688,13.072-1.08c3.271-2.215,17.738-12.761,21.609-10.338
	c4.301,2.69-4.618,12.89-6.729,15.457c1.68-2.783,12.685-16.459,16.759-12.301c3.104,3.168-6.668,14.308-7.793,15.58
	c3.781-3.955,7.658-10.529,12.841-12.754c6.421-2.757,6.378-0.49,4.645,4.383c-1.813,5.092-5.008,9.881,2.395,11.277
	c5.623,1.061,14.474-4.304,18.753-7.393c3.787-2.732,8.688-7.397,8.938-12.543c0.397-8.266-5.901-4.107-9.322,0.73
	c-10.845,15.335,8.154,22.454,19.953,13.173"/>
<path fill="none" stroke="#000000" d="M472.542,76.151c-1.743,0.342-2.949,0.078-2.932,2.316
	C471.619,78.102,471.448,77.857,472.542,76.151c-0.486-0.559-1.085-0.958-1.796-1.198"/>
<path fill="none" stroke="#000000" d="M447.393,63.576c-4.328,3.963-11.219,6.43-2.915,11.256c7.229,4.2,18.274,0.506,22.077-6.465"
	/>
<path fill="none" stroke="#000000" d="M40.208,149.205c0.193-0.371,1.046-0.553,0.506-0.777c-6.366,1.359-20.444,1.622-25.656-2.816
	"/>
<path fill="none" stroke="#000000" d="M19.848,167.768c7.654,1.327,15.234-2.369,22.754-0.599"/>
<path fill="none" stroke="#000000" d="M14.459,151.6c-1.91,19.075,3.656,35.055-8.322,51.841c0.596-0.311,1.124-0.233,1.735-0.344"
	/>
<path fill="none" stroke="#000000" d="M72.543,171.959c-9.854,0.07-14.967,3.995-16.736,13.772
	c-1.587,8.772,3.23,19.063,13.744,18.605c8.808-0.383,17.672-13.116,14.997-21.032c-0.919-2.721-3.904-6.017-6.469-7.301
	c-2.281-1.143-8.473-2.283-8.53-2.249"/>
<path fill="none" stroke="#000000" d="M110.268,166.57c-2.896,2.771-1.408,14.249-1.196,18.561
	c0.312,6.344-0.291,13.058,0.029,19.582c-1.6-4.694-0.163-10.08-0.164-14.789c-0.001-4.647-1.485-10.516,0.12-14.984
	c4.045-11.27,16.159-5.625,16.78,4.205"/>
<path fill="none" stroke="#000000" d="M212.064,170.762c-10.917-8.795-40.182,14.602-31.313,26.977
	c11.007,15.362,40.843-13.823,34.172-28.098c-8.8,2.254-13.575,28.077-1.359,27.047c21.351-1.801,41.069-33.551,49.115-50.358
	c3.938-8.227,8.036-21.675-3.939-9.847c-8.015,7.917-13.029,19.374-16.284,29.938c-1.993,6.469-7.108,18.284-2.146,24.101
	c6.927,8.12,21.712-1.29,27.956-6.005c9.228-6.97,15.459-16.766,21.159-26.595c3.122-5.385,13.137-17.617,10.104-24.236
	c-14.854,4.922-21.957,28.116-24.756,41.432c-1.051,5.003-1.643,10.598,3.158,14.088c4.729,3.436,11.985-2.791,14.971,1.916"/>
<path fill="none" stroke="#000000" d="M367.752,171.959c-7.87-14.792-32.857,0.951-31.167,14.041
	c2.819,21.82,30.501-4.091,32.374-15.058c-4.056,6.68-5.84,14.973-10.025,21.963c-6.516,10.881-13.034,20.804-23.03,28.899
	c-2.721,2.202-9.811,9.771-12.984,4.786c-2.964-4.653,5.042-11.781,7.676-14.479c6.816-6.981,15.43-11.762,23.474-17.215
	c5.874-3.982,15.152-9.308,22.67-8.567"/>
<path fill="none" stroke="#000000" d="M403.68,172.558c-6.901,0.086-13.854,2.027-16.928,9.1c-3.713,8.542,2.73,11.313,10.208,9.461
	c5.99-1.483,12.062-4.612,14.339-10.446c1.57-4.026-1.516-14.003-4.532-7.633c5.856,4.721,23.884-1.712,30.234-3.638
	c-5.48,1.2-12.826,4.604-14.934,10.205c-1.683,4.467-0.343,11.535,4.968,12.74c12.306,2.794,18.177-14.39,10.731-21.961
	c3.013,4.939,15.322,2.987,20.314,2.769c8.445-0.37,16.344-3.136,24.458-4.802c-6.78-0.328-17.927,4.777-21.839,10.062
	c-5.452,7.363-0.785,17.157,8.229,12.851c11.138-5.318,21.265-19.307,28.903-28.584c5.979-7.26,19.112-19.595,17.142-30.196
	c-14.929,6.007-25.758,28.13-31.042,42.201c-1.936,5.156-5.424,11.384-0.599,15.685c4.046,3.607,13.021,3.609,17.947,2.545"/>
<path fill="none" stroke="#000000" d="M0.088,288.727c11.742-2.103,22.535-14.996,29.823-25.134
	c7.579-10.543,17.588-27.352,12.587-40.645c-7.993-0.301-13.979,21.525-15.913,27.292c-4.224,12.602-7.375,27.797-13.801,39.066
	c0.85-9.254,17.503-37.322,29.185-31.06c-1.013,7.278-8.368,12.492-8.826,20.299c-0.433,7.379,4.502,10.711,10.657,7.05
	c6.95-4.138,12.478-10.267,19.865-14.205c7.151-3.812,15.682-9.009,23.682-10.236c-7.739,2.779-14.414,5.904-20.237,11.9
	c-2.054,2.112-12.484,14.364-8.845,18.104c7.658,7.871,26.386-22.83,27.375-28.646c-3.701,4.825-11.186,19.6-2.365,22.479
	c12.537,4.098,32.497-19.664,39.476-27.228c-1.388,7.138-3.124,15.558-6.35,22.291c-1.036,2.162-3.431,7.4-5.957,8.258
	c-3.26,1.104-7.376-1.809-6.81-5.577c1.002-6.673,9.436-1.513,13.352-0.603c11.766,2.738,21.301,0.336,32.206-4.66
	c16.675-7.645,30.367-20.889,35.205-39.017c1.791-6.712,4.024-24.649-6.315-13.805c-8.156,8.555-13.273,19.292-17.5,30.188
	c-3.506,9.039-9.961,19.994-10.432,28.662c4.815-9.602,16.498-29.527,30.727-23.598c-1.954,6.807-9.747,15.613-7.75,23.426
	c2.208,8.643,19.267-3.984,25.762-6.586"/>
<path fill="none" stroke="#000000" d="M206.076,286.332c10.985-2.312,21.056-15.498,28.129-23.326
	c5.8-6.422,11.424-13.078,16.918-19.773c3.038-3.703,12.857-10.205,12.827-14.834c-7.717,7.238-15.348,16.306-20.763,25.465
	c-2.146,3.631-10.342,14.674-6.587,19.323c3.572,4.424,14.266-1.158,18.212-3.289c9.886-5.334,19.912-11.78,30.769-14.746
	c-6.506,1.337-28.372,13.013-22.661,22.796c5.812,9.956,18.979-14.65,20.94-18.197c-3.057,2.985-5.459,9.136-5.479,13.42
	c-0.025,6.695,3.207,5.908,9.029,3.416c7.14-3.06,12.931-7.317,19.518-11.228c8.488-5.041,18.282-7.608,27.077-12.021
	c-6.415,3.543-31.583,8.986-26.912,20.551c5.251,13.002,23.736-9.434,24.805-16.147c-8.648,11.362-13.568,26.336-21.586,38.426
	c-5.145,7.756-15.77,27.627-25.216,30.353c-8.748,2.521-6.601-5.771-3.621-11.254c4.209-7.759,14.42-18.681,22.207-22.97
	c7.395-4.071,16.272-5.161,23.674-9.528c8.492-5.017,17.764-11.07,24.979-17.797c5.198-4.849,9.874-13.025,16.059-16.336
	c5.628,11.973-23.983,50.221-29.451,39.286c-5.583-11.164,12.904-8.104,17.438-7.422c9.858,1.485,31.468,7.056,40.114,0.446"/>
<path fill="none" stroke="#000000" d="M246.794,232.438c-10.014,13.158,32.693,11.978,37.725,11.976"/>
<path fill="none" stroke="#000000" d="M26.435,318.066C17.665,321.484,12.79,333.96,11,342.468
	c-1.378,6.55-1.12,11.935,6.351,13.498c7.631,1.599,12.697-4.358,19.819-4.979c0.69-0.688,0.705-1.48,0.043-2.381"/>
<path fill="none" stroke="#000000" d="M8.471,324.654c-0.512,5.887,16.111,2.289,20.359,7.785"/>
<path fill="none" stroke="#000000" d="M69.549,331.242c-5.982-1.207-12.078-0.523-15.179,6.154
	c-2.506,5.399-2.729,16.528,4.384,17.242c6.592,0.661,14.236-8.533,15.431-14.283c1.127-5.418-4.965-13.918-8.827-6.121"/>
<path fill="none" stroke="#000000" d="M152.184,330.643c-7.978-0.3-19.291,6.748-19.788,15.582
	c-0.699,12.414,14.35,12.063,21.917,8.981c-0.706-1.11,0.52-0.649,0.866-1.211"/>
<path fill="none" stroke="#000000" d="M180.327,331.242c-6.856-9.082-24.417,22.568-2.994,23.352
	c20.809,0.76,4.954-31.023-1.198-22.152"/>
<path fill="none" stroke="#000000" d="M195.896,358.188c-3.043-7.062,5.356-20.054,5.509-28.097
	c3.671,4.64,5.206,12.865,7.698,18.304c0.416-4.65,1.846-11.521,4.757-15.295c3.298,2.711,1.712,10.805,2.96,14.907
	c1.093,3.591,2.975,7.521,4.824,10.777"/>
<path fill="none" stroke="#000000" d="M234.22,345.014c2.843,1.229,15.548,3.057,18.594,1.229c6.939-4.16-1.958-12.55-7.847-12.07
	c-8.83,0.718-11.48,12.998-8.497,19.685c3.813,8.547,11.542,6.106,18.109,2.533"/>
<path fill="none" stroke="#000000" d="M300.687,328.248c0.41,10.568-0.543,20.836-0.609,31.516c-0.247-1.492,0.4-2.639,0.609-3.971"
	/>
<path fill="none" stroke="#000000" d="M292.304,339.625c-0.324-0.084-1.67-0.996-0.566-0.146c3.186,0.562,19.711-1.004,19.729-1.051
	"/>
<path fill="none" stroke="#000000" d="M327.034,339.025c-8.379-5.521-16.01,20.486-0.601,15.582
	c4.988-1.586,8.153-7.004,7.188-12.033c-0.804-4.176-7.223-9.1-9.581-2.949"/>
<path fill="none" stroke="#000000" d="M374.952,338.646c-5.943-0.488-7.834,11.36-4.892,14.928c6.16,7.455,11.43-2.955,9.865-8.721
	C379.248,342.348,378.006,338.9,374.952,338.646z"/>
<path fill="none" stroke="#000000" d="M392.303,348.007c3.159,0.298,10.696,0.093,12.423-3.146c3.107-5.823-5.834-6.674-9.488-3.895
	c-3.948,3.004-6.353,10.271-2.944,14.256c6.65,7.775,14.115-1.557,20.371-3.625"/>
<path fill="none" stroke="#000000" d="M370.747,327.048c-2.378,5.336,0.306,17.365,0,23.968c-0.32,6.922-3.065,13.291-3.225,20.03
	c0.818-0.565,1.021-1.325,1.428-2.082"/>
<path fill="none" stroke="#000000" d="M44.399,384.535c-7.943,1.129-13.322,2.824-18.594,9.465
	c-3.399,4.281-11.133,17.693-4.027,22.15c12.9,8.09,25.825-21.215,26.126-29.728c-6.245,0.402-12.439,21.808-6.976,26.269
	c3.416,2.786,11.033-1.521,13.769-3.709c6.902-5.523,9.221-13.777,14.177-20.642c-4.561,4.279-12.744,23.73-0.406,19.41
	c7.092-2.482,13.784-9.129,20.845-12.426c5.274-2.461,10.271-6.156,15.998-7.242c-6.455,2.037-14.555,6.838-17.958,12.754
	c-5.608,9.746-2.458,20.256,8.544,10.66c13.545-11.812,23.651-35.644,22.065-53.834c-10.12,1.778-13.793,29.873-14.146,38.203
	c-0.784,18.531,13.828,20.865,28.275,12.199c3.538-2.121,13.417-11.438,9.462-15.91c-3.804-4.302-8.793,2.28-10.343,5.539
	c-2.52,5.297-4.642,15.176,1.21,19.186c3.641,2.494,26.837-1.621,28.146-6"/>
<path fill="none" stroke="#000000" d="M77.333,374.955c-1.221,1.133-2.319,2.162-2.29,4.129c1.402-0.646,1.194-1.682,1.691-2.934"/>
<path fill="none" stroke="#000000" d="M227.034,389.923c-7.035,1.791-15.888,2.599-20.237,10.328
	c-3.021,5.367-2.31,12.174,4.101,13.787c14.422,3.633,24.998-22.42,16.228-22.822c-2.836,13.039,24.461,0.937,27.949-0.725
	c7.168-3.414,21.015-12.912,16.973-22.705c-10.516,2.563-15.754,16.135-19.818,24.955c-4.392,9.531-10.029,17.891-12.052,28.481
	c-0.889,4.652-1.988,16.742,4.522,9.564c4.571-5.041,6.249-18.951,0.439-23.234c4.604,0.197,8.836-1.733,13.632-0.865"/>
<path fill="none" stroke="#000000" d="M298.89,416.871c14.775-3.074,29.917-21.693,39.293-32.257
	c-6.713,4.724-19.197,18.927-17.138,27.931c2.52,10.992,19.052,0.65,24.585-3.346c7.258-5.244,13.171-11.894,17.359-19.891
	c1.335-2.55,8.864-16.896,2.048-16.234c-4.426,0.43-10.479,13.799-12.255,17.393c-3.316,6.705-6.844,15.57-8.307,22.613
	c5.575-4.816,10.427-14.75,18.992-13.484c-0.644,6.677-2.618,15.601,6.664,15.479c4.656-0.062,25.71-12.351,19.231-18.004
	c-3.519-3.07-15.38,11.377-7.109,16.688c8.643,5.549,23.406-8.881,27.364-15.268c-3.4,2.354-15.657,17.951-6.086,18.289
	c2.963,0.104,10.898-7.258,13.315-9.191c4.24-3.393,7.417-8.063,11.188-11.612c2.188,2.305,5.501,3.122,8.498,3.618
	c-0.936,3.574-7.343,10.857-5.354,14.881c2.408,4.869,21.986-2.227,23.394-7.184"/>
<path fill="none" stroke="#000000" d="M420.447,386.93c-2.582-0.49-4.164,0.409-4.103,2.901c2.228,0.272,1.938-0.894,2.307-2.304"/>
<path fill="none" stroke="#000000" d="M324.639,391.123c-0.616-0.195-1.072-0.99-2.332-0.51c1.915,5.606,9.344,2.9,13.635,2.994
	c0.133,0.586-0.021,1.125,0.074,1.705"/>
<path fill="none" stroke="#000000" d="M86.208,474.589c4.071-6.602,1.556-13.635,2.413-20.764
	c0.866-7.205,3.587-14.019-0.521-21.004c-2.736-4.656-11.028-9.166-16.358-6.57c-8.516,4.146,1.526,11.74,3.629,17.236
	c2.78,7.272-1.162,17.86-1.938,25.272c-0.252,2.412-1.629,8.394,0.439,10.402C77.644,482.83,84.292,477.699,86.208,474.589z"/>
<path fill="none" stroke="#000000" d="M63.561,420.462c2.115,10.199,8.065,22.668,6.439,33.031
	c-1.316,8.389-4.1,16.596-3.355,25.479c0.874-0.594,1.172-1.323,1.706-2.227"/>
<path fill="none" stroke="#000000" d="M109.07,427.048c4.377,17.738-3.759,39.043-7.126,56.164
	c3.792-0.426,9.331-2.539,13.114-2.301c5.051,0.32,7.77,3.465,11.347,6.6c0.579-0.469,0.988-1.061,1.229-1.778"/>
<path fill="none" stroke="#000000" d="M150.986,454.593c-1.575-10.201-13.111,4.074-14.369,7.918
	c-2.146,6.562,0.458,13.332,7.186,14.97c19.109,4.646,15.943-27.353,2.394-24.685"/>
<path fill="none" stroke="#000000" d="M189.908,454.593c-11.467-8.461-18.256,7.695-18.561,16.752
	c-0.233,6.933,4.16,12.474,11.796,12.035c6.217-0.354,10.394-6.557,16.346-7.828"/>
<path fill="none" stroke="#000000" d="M227.034,453.398c-2.41,4.428-5.434,6.188-5.262,11.498
	c0.175,5.385,3.646,12.096,5.262,17.241"/>
<path fill="none" stroke="#000000" d="M218.052,433.039c-1.494,3.17,1.041,10.338,1.198,14.236
	c0.227,5.641-1.07,10.715-1.827,16.184c-1.036,7.479-1.2,13.1-4.7,19.711c0.536-0.422,0.916-0.963,1.138-1.629"/>
<path fill="none" stroke="#000000" d="M268.95,462.378c-2.425-13.619-22.673-0.703-25.328,6.721
	c-2.554,7.142,1.792,13.129,9.013,14.398c6.398,1.127,14.096-2.988,18.739-7.271c1.131-0.053,0.178,0.529,0.569,1.119"/>
<path fill="none" stroke="#000000" d="M286.315,424.054c0.047,11.572,0.506,22.64-0.633,34.181
	c-0.832,8.438-3.882,16.647-4.754,24.922c0.485-4.679,6.11-33.463,12.568-21.373c2.548,4.77-1.113,13.271,0.59,17.971
	c2.449,6.758,6.396,1.99,11.987,2.387"/>
<path fill="none" stroke="#000000" d="M342.004,485.132c-10.521,4.162-4.492-20.785-6.988-23.783
	c-8.234-9.893-19.478,9.81-17.562,17.197c2.942,11.363,13.514,5.879,19.761-0.6"/>
<path fill="none" stroke="#000000" d="M363.561,461.781c-2.803,6.49-3.777,18.172-4.07,25.418c0.57-0.871,0.686-1.783,1.078-2.664"
	/>
<path fill="none" stroke="#000000" d="M365.357,448.607c-0.961,0.409-2.121-0.392-1.705,2.313c-0.179,0.062,2.133-0.59,1.706-0.613
	c-0.343-0.52-0.74-0.289-1.198,0.693"/>
<path fill="none" stroke="#000000" d="M382.124,485.732c-0.004-9.08,4.476-21.974,2.319-29.861c0.209,0.975,0.434,1.947,0.675,2.916
	"/>
<path fill="none" stroke="#000000" d="M403.082,453.996c0-0.902,0-1.809,0-2.711c0.847,9.086-3.092,20.197,0,29.059"/>
<path fill="none" stroke="#000000" d="M387.513,458.787c1.851,7.986,9.104,13.254,12.574,19.76"/>
<path fill="none" stroke="#000000" d="M447.393,459.384c-4.59-6.367-8.812-16.309-18.562-14.535
	c-10.334,1.877-14.579,14.472-2.396,16.931c8.183,1.647,21.16,0.494,14.834,13.772c-3.776,7.935-20.458,12.533-23.379,1.711
	c-0.898-0.852-0.062,0.429-0.438,0.687"/>
<path fill="none" stroke="#000000" d="M-16.847,23.992c-1.932,1.196-3.347,1.265-3.881,3.771c0.58-0.083,1.474,0.496,1.881,0.777
	c0.054-0.07,2.319-1.6,2.146-1.544c-4.424-2.519-5.638,0.307-6.939,3.797c-0.193,0.518,8.574,1.935,6.838-3.853
	c-2.745-9.151-14.796,6.286-4.767,8.877c7.42,1.917,8.422-13.552-1.052-11.596c-6.638,1.371-5.983,16.488,1.797,16.845
	c7.794,0.358,9.532-11.095,3.223-14.32c-8.569-4.381-13.924,5.583-16.274,12.246c-4.106,11.642,0.993,44.155,20.806,32.746
	c8.372-4.821,10.596-23.07,11.274-31.523c0.429-5.343,0.897-12.826-5.055-15.242c-4.735-1.923-11.901,2.807-8.291,8.313
	c6.479,9.879,21.353-7.485,27.271-7.317c10.925,0.31,1.411,20.756-1.977,28.023"/>
<path fill="none" stroke="#000000" d="M33.153,24.992c-3.014,8.826-8.501,16.384-9,26"/>
<path fill="none" stroke="#000000" d="M9.153,41.992c8.044-0.82,16.015-3.29,24-4"/>
<path fill="none" stroke="#000000" d="M97.153,19.992c1.062,1.019,2.389,0.32,3.12,2c-0.393,0.19-1.523,1.712-2.12,2.096
	c0.036,0.045-2.266-2.177-2.096-2.096c5.719-8.366,15.398,4.088,6.145,8.048c-10.049,4.3-12.864-12.666-0.048-11.849
	c8.382,0.535,12.532,13.209,4.997,18.575c-5.821,4.145-19.014-0.545-18.013-8.771c0.872-7.164,15.84-10.968,20.762-5.752
	c4.388,4.651,0.208,16.842-6.746,16.546c-17.192-0.731,9.986-19.551,6.048-5.801c-2.72,9.496-17.624,0.455-13.12-7.267
	c2.424-4.157,15.454-5.186,18.872-2.479c5.483,4.344,2.256,11.16,1.199,16.749c-3.165,16.744-7.997,27.978-19.02,41.646
	c-5.978-14.87,5.187-44.537,17.242-54.666c7.863-6.607,23.49-8.164,21.849,5.793c-1.019,8.66-14.886,18.722-22.991,19.048
	c5.359-6.472,21.479-1.883,19.991,8.233c-0.644,4.38-18.575,15.912-22.869,12.742c-8.992-6.639,19.043-10.593,21.575-10.794
	c13.654-1.081,24.683-5.322,37.995-8.578c-5.5,1.959-31.596,11.634-24.518,21.375c8.884,12.226,21.352-17.962,23.32-21.741
	c-5.191,11.346,0.601,14.215,10.131,9.182c10.135-5.352,33.905-24.854,29.972-38.136c-14.299-0.173-16.922,28.759-10.753,37.984
	c6.971,10.425,14.986,3.166,11.174-7.011c10.815,6.94,19.706-9.139,30.682-7.984c4.685,13.037,21.208-7.471,27.11,0.758
	c8.351,11.642-25.877,42.946-34.832,45.034c-6.905,1.61-8.615,3.499-6.932-4.875c2.104-10.472,22.85-17.052,30.967-20.086
	c27.568-10.303,56.336-17.413,83.905-27.927"/>
<path fill="none" stroke="#000000" d="M-32.847,204.992c19.785-6.089,47.2-7.456,61.662,10.122c0.139-0.22-0.194-1.319-0.662-2.122"
	/>
<path fill="none" stroke="#000000" d="M-25.847,144.992c0.304-0.813-0.092-1.917,0.174-2.82c1.655-0.25,1.812-0.808,3.651-0.002
	c1.085,3.999-0.011,6.907-3.678,7.691c-0.728-5.383,5.513-14.229,11.123-9.94c4.584,3.504,1.973,18.3-1.521,21.845
	c-6.174,6.264-14.812,2.545-16.797-5.941c-1.938-8.286,4.842-17.408,10.97-21.833c28.934-20.891,21.613,31.987,17.297,46.242
	c-4.108,13.568-9.358,26.542-15.219,39.512c-3.812,8.437-7.704,21.157-14.749,27.159c-4.364-8.218,2.639-26.224,4.975-34.861
	c3.774-13.955,8.368-29.247,14.997-42.023c5.827-11.232,43.395-57.779,49.852-25.077c2.059,10.428-4.165,25.277-5.32,35.874
	c-1.286,11.796-3.03,24.313-1.726,35.956c2.969,26.498,18.395,31.13,41.972,31.219"/>
<path fill="none" stroke="#000000" d="M-35.847,182.992c6.03,10.47,31.814,18.649,43.1,20.048c18.24,2.26,40.24-5.295,48.9-22.048"
	/>
<path fill="none" stroke="#000000" d="M75.153,235.992c19.475-15.657,31.832-36.652,42.548-59.927
	c-4.946,13.593-15.453,25.199-20.27,38.931c-2.297,6.547-4.589,15.918,0.75,19.968c5.143,3.9,14.413,1.042,17.972-3.972"/>
<path fill="none" stroke="#000000" d="M126.153,161.992c-0.084-0.154-1.383,0.754,0.254,1.849c2.391-1.783,3-4.261,2.746-6.849"/>
<path fill="none" stroke="#000000" d="M142.153,236.992c7.852-12.044,13.507-27.974,19.752-40.973
	c2.688-5.594,2.838-12.308,7.225-17.075c4.294-4.667,12.232-5.697,17.598-7.526c1.655,11.983-2.89,22.296-1.626,34.626
	c1.196,11.667-2.792,25.254-0.797,36.797c14.509,2.548,16.669-12.215,19.849-22.849c2.341-7.831,18.859-33.72,10.925-39.927
	c-1.337-1.152-0.537,3.418-0.219,2.577c-0.094,0.671,2.376-2.974,1.169-2.472c-3.284,1.136-2.668,0.467-4.728,3.564
	c0.375,0.365,0.745,0.735,1.11,1.11c3.962-1.344,7.175-4.355,6.52-8.78c-0.464,0.625-1.273,1.171-0.845,1.093
	c2.312-4.838,2.364-9.64,8.068-10.166"/>
<path fill="none" stroke="#FF0000" d="M257.153,140.992c1.776-0.66,2.734-1.457,4.872-0.849c-0.696,5.272-6.191,5.269-8.443,0.849
	c2.317-2.891,9.272-4.247,9.639,0.977c0.258,3.679-8.754,9.555-10.89,5.071c-2.758-5.789,9.982-10.268,9.894-3.075
	c-0.063,5.107-8.663,8.259-12.123,5.324c-8.363-7.093,16.77-22.194,23.298-5.595c4.115,10.467-11.179,29.157-19.246,34.297"/>
<path fill="none" stroke="#FF0000" d="M276.153,225.992c12.226-10.793,24.167-20.092,34.753-32.777
	c7.219-8.651,14.23-20.465,22.941-27.091c-15.082,9.973-29.419,27.954-30.495,46.943c-1.986,35.049,51.614-1.985,63.801-12.075"/>
<path fill="none" stroke="#FF0000" stroke-width="4" d="M299.153,173.992c11.806,8.21,27.087,8.746,39,13"/>
<path fill="none" stroke="#FF0000" stroke-width="4" d="M446.153,167.992c-2.874,11.823,1.207,24.696-2.223,37
	c-1.64,5.883-6.972,11.14-8.552,17c-1.236,4.59,1.795,11.04-1.226,14"/>
<path fill="none" stroke="#FF0000" stroke-width="4" d="M409.153,239.992c1.273-0.914,0.396,1.414-0.255,1.849
	c0.003,0.486-1.614-1.115-1.594-1.103c0.521-0.34,3.458-2.397,3.697-2.594c-0.158,0.193-2.539,2.724-2.5,2.672
	c0.113-0.029,2.518-1.815,2.472-1.698c-0.816,3.651-2.756,4.948-6.688,4.723c1.629-8.317,19.242-3.169,25.868-2.872
	c8.828,0.396,15.092-0.312,23-4.977"/>
<path fill="none" stroke="#FF0000" stroke-width="4" d="M466.153,171.992c-0.099,0.533-1.942,1.344-1.896,2.875
	c2.855-1.364,2.196-0.856,3.769-2.972c0.388-0.344-2.962,2.143-2.744,1.97c-0.626,0.916,4.062-3.509,2.718-2.723
	c0.837-1.061-3.933,1.892-2.723,1.669c2.126-1.651,0.356-1.012,1.726-3.669c-4.451-1.039-6.284,1.819-9.872,2.123
	c-4.84,0.41-6.148-0.315-11.758-1.075c-10.975-1.485-22.338,8.046-32.219,3.801"/>
<path fill="none" stroke="#FF0000" stroke-width="4" d="M494.153,239.992c4.959-1.838,11.433-1.392,16.697-2
	c-5.934-1.154-12.301-1.346-18.344-1.948c4.516-1.896,11.556-1.633,16.344,0c-2.22-0.962-5.242-0.536-7.55-0.9
	c-1.394,3.686-1.752,8.224,0.047,11.746c4.608-4.125,3.015-31.031,3.806-38.949c1.093-10.94,0.331-25.629,3.578-35.29
	c-1.081,0.638-1.041,1.45-1.578,2.342"/>
<path fill="none" stroke="#FF0000" stroke-width="4" d="M482.153,171.992c-0.037,0.698,0.129,3.585,0.004,5.146
	c0.043,0.639,0.982-3.822,1.199-5.046c12.174,5.993,31.909,0.355,45.649,1.052c0.129,2.308,1.527,4.479,1.37,6.772
	c2.862-2.609,3.748-5.204-0.049-6.796c0.076,0.239,0.562,4.131,0.549,3.796c0.001,0.091,1.447-2.883,1.126-2.728
	c-2.049-1.881-2.339-1.481-4.753-1.989c0.611,0.72,1.065,1.711,0.904,2.793"/>
<path fill="none" stroke="#FF0000" stroke-width="4" d="M71.153,271.992c3.109-0.465,11.375,4.372,5.797,6.794
	c-4.489,1.949-9.826-4.137-8.114-8.013c2.608-5.909,10.634-3.219,9.166,3.167c-1.399,6.086-8.839,8.159-10.801,2.136
	c7.498-9.743,16.213,2.305,6.104,3.788c-0.479-3.947,4.703-8.662,7.162-3.892c2.059,3.994-5.918,12.453-10.291,12.865
	c-15.772,1.484-12.797-21.911-2.8-27.116c15.23-7.931,32.58-0.456,37.603,15.578c6.975,22.264-2.492,51.571-13.635,70.476
	c-8.177,13.871-19.194,34.448-36.29,38.962c-20.775,5.485-6.061-22.33-1.927-31.674c11.551-26.111,16.476-54.775,37.703-75.623
	c14.572-14.312,41.679-25.16,59.156-10.69c40.537,33.561,4.675,105.032-34.849,122.281c-12.765,5.571-47.186,3.918-40.797-18.206
	c8.381-29.022,56.147,11.52,67.813,19.167"/>
<path fill="none" stroke="#FF0000" stroke-width="4" d="M176.153,388.992c12.305-1.406,19.686-11.278,25.219-21.448
	c9.727-17.879,17.277-37.09,27.536-54.835c8.329-14.407,18.938-27.048,29.223-39.939c9.123-11.436,17.494-19.474,33.213-16.794
	c24.271,4.139,15.854,26.742,9.81,43.438c-7.51,20.742-11.613,45.831-13.048,67.877c-0.739,11.349-0.049,29.111,11.234,35.554
	c17.043,9.73,44.533-7.29,59.813,2.147"/>
<path fill="none" stroke="#FF0000" stroke-width="4" d="M202.153,317.992c0.587,3.288,1.613,5.199-2.849,4.846
	c0.585-4.046,0.656-4.109,4.697-4.691c0.092,3.552-0.05,3.579-1.872,5.743c-1.503-3.757-1.133-5.312,2.875-6.795
	c0.528,4.174-0.571,4.886-3.653,6.743c-7.394-11.47,21.481-7.075,25.628-6.042c11.78,2.938,20.4,8.759,31.42,13.248
	c33.842,13.787,60.067-1.7,88.752-18.052"/>
<path fill="none" stroke="#FF0000" stroke-width="4" d="M6.153,382.992c2.802,6.842,0.383,23.417,0.973,32.146
	c1.087,16.083,2.961,36.316-0.711,51.966c0.617-3.281-1.27-3.953-2.262-7.111"/>
<path fill="none" stroke="#FF0000" stroke-width="4" d="M-10.847,384.992c10.054,2.92,26.008,2.055,38.136,1.98
	c1.371-0.182-0.907,0.603-1.136,1.02"/>
<path fill="none" stroke="#FF0000" stroke-width="4" d="M104.153,463.992c-4.046-3.164-6.56-6.978-9.788-10.98
	c-4.687-5.812-15.296-11.715-15.451-19.796c-0.141-7.33,8.598-12.103,6.533-20.943c-1.883-8.063-18.023-18.653-26.148-13.586
	c-8.644,5.395-5.296,33.188,4.131,37.182c4.77,2.021,9.492,0.6,13.358-2.527"/>
<path fill="none" stroke="#FF0000" stroke-width="4" d="M133.153,407.992c-1.226,11.911-16.562,64.151,9.271,54.274
	c23.982-9.169,19.958-42.611,25.801-63.417c0.049-1.283-0.661,0.791-1.071,1.143"/>
<path fill="none" stroke="#FF0000" stroke-width="4" d="M222.153,399.992c3.478,8.894-2.681,30.399-4,40.509
	c-1.167,8.948-3.064,18.315-6,26.491"/>
<path fill="none" stroke="#FF0000" stroke-width="4" d="M202.153,398.992c13.612,0,31.55-1.037,47,2"/>
<path fill="none" stroke="#FF0000" stroke-width="4" d="M272.153,400.992c9.911-3.878,8.203,30.246,8,37.217
	c-0.459,15.742-3.233,26.691-11.649,39.922c2.03-0.988,2.39-2.406,3.649-4.139"/>
<path fill="none" stroke="#FF0000" stroke-width="4" d="M325.153,410.992c-8.857,18.836-10.675,44.114-11.052,64.697
	c0.533-0.861,0.673-1.801,1.052-2.697"/>
<path fill="none" stroke="#FF0000" stroke-width="4" d="M288.153,440.992c3.984-1.48,8.544-0.986,13-1"/>
<path fill="none" stroke="#FF0000" stroke-width="4" d="M472.153,464.992c-7.642,1.751-15.808,3.908-23.064,7.171
	c0.126-2.263-0.632-2.698,0.861-5.091c0.437-0.603-0.869,4.385-0.82,3.595c0.429-1.896,0.707-1.552,2.068-3.599
	c4.868,11.146-19.586,8.378-8.045,0.924"/>
<path fill="none" stroke="#FF0000" stroke-width="4" d="M391.153,357.992c1.807-0.049,3.271,0.314,4.826,1.174
	c0.722,4.994-2.134,9.704-6.774,8.843c-7.63-1.417-5.247-11.746,2.849-6.813c2.402,11.891-32.539,1.032-6.904-15.445
	c20.271-13.03,62.445-13.854,81.803,0.774c29.68,22.427-6.436,36.59-23.799,50.197c-9.31,7.296-17.07,13.637-16.048,26.247
	c0.439,5.427,5.061,24.373,7.048,25.023"/>
</svg>
