<?xml version="1.0" encoding="iso-8859-1"?>
<!-- Generator: Adobe Illustrator 13.0.0, SVG Export Plug-In . SVG Version: 6.00 Build 14948)  -->
<!DOCTYPE svg PUBLIC "-//W3C//DTD SVG 1.1//EN" "http://www.w3.org/Graphics/SVG/1.1/DTD/svg11.dtd">
<svg version="1.1" id="Layer_1" xmlns="http://www.w3.org/2000/svg" xmlns:xlink="http://www.w3.org/1999/xlink" x="0px" y="0px"
	 width="603.467px" height="437.12px" viewBox="0 0 603.467 437.12" enable-background="new 0 0 603.467 437.12"
	 xml:space="preserve">
<path fill="none" stroke="#000000" d="M55.844,27.579c10.113-1.354,10.551,10.233,6.458,16.795
	c-4.802,7.697-24.048,13.343-21.837-0.582C42.956,28.107,66.932,18.8,80.425,19.207c27.591,0.831,16.393,28.994,12.469,46.003
	c-3.423,14.842-7.839,29.428-10.757,44.39c-3.027,15.528-3.627,31.414-4.879,47.145c-1.31,16.442-9.914,67.984,19.616,63.641
	c14.417-2.12,27.245-15.003,37.526-24.314c15.658-14.181,29.68-30.157,41.327-47.83c12.682-19.245,24.169-40.669,33.9-61.55
	c4.655-9.99,8.608-20.475,12.862-30.648c1.91-4.567,5.703-11.101,5.164-16.001c-2.656,1.413-3.423,6.616-4.508,9.467
	c-2.839,7.46-5.984,14.8-8.971,22.21c-9.079,22.519-17.45,45.283-26.741,67.723c-10.095,24.382-22.893,47.596-35.325,70.845
	c-13.506,25.257-25.302,51.119-41.886,74.636c-9.117,12.93-24.362,33.141-42.964,29.436c-21.571-4.296-11.208-32.736-4.421-44.871
	c22.231-39.753,59.457-56.015,102.664-62.162c22.794-3.243,44.772-7.881,66.359-16.164c26.815-10.29,57.828-21.275,77.443-43.394
	c5.876-6.626,21.602-27.829,6.56-33.52c-15.509-5.868-31.634,16.03-38.657,26.246c-9.063,13.183-12.417,31.415-5.816,46.503
	c8.048,18.399,23.028,20.312,41.088,17.421c21.114-3.379,40.244-14.529,56.446-28.109c10.572-8.861,20.877-18.101,30.977-27.49
	c8.515-7.917,18.708-18.922,29.357-23.983c8.168-3.882,7.172,0.873,5.957,8.114c-2.56,15.256-10.812,29.482-18.237,42.85
	c-8.129,14.634-20.754,28.271-36.704,34.521c-19.616,7.687-35.395-2.315-33.374-24.225c0.796-8.625,7.693-25.106,19.022-22.13
	c5.483,1.441,11.327,8.434,15.462,11.95c6.416,5.457,12.736,10.312,20.34,14.054c46.569,22.924,98.338,8.578,139.833-17.746"/>
<path fill="none" stroke="#000000" d="M547.51,43.65c-1.145,1.865-2.399,8.511-3.37,11.91
	c-3.762,13.177-11.176,24.799-14.978,38.053c-4.221,14.72-6.081,29.735-7.245,44.938c-0.664,8.675-3.136,17.902-2.931,26.505
	c0.642,0.061,1.221-0.13,1.738-0.572"/>
<path fill="none" stroke="#000000" d="M530.844,206.15c-6.409,0.099-17.596-8.594-18.984,3.554
	c-1.592,13.921,15.518-0.4,12.136-10.128c-5.023,0.891-12.602,12.787-10.383,17.857c3.825,8.741,15.17-3.371,17.826-7.712"/>
<path fill="none" stroke="#000000" d="M173.701,259.722c0.964-5.224,7.251-7.679,11.371-10.115
	c12.523-7.406,24.148-14.275,38.994-15.402c30.788-2.337,54.756,16.467,81.944,27.925c35.485,14.954,69.869,14.347,107.565,9.493
	c25.095-3.231,50.021-6.791,75.01-10.74c10.099-1.597,23.731-6.983,33.843-5.103c-0.505,0.853-1.271,1.373-2.298,1.562"/>
<path fill="none" stroke="#000000" d="M217.153,292.459c22.462-1.186,44.415-4.748,67.104-4.758
	c31.078-0.014,60.165,5.195,87.092,21.409c12.032,7.245,22.759,13.412,36.853,15.544c15.207,2.3,30.996,2.953,46.31,1.758
	c16.876-1.316,33.682-3.031,50.563-4.202c6.658-0.462,14.713-1.847,21.008,0.606"/>
<path fill="none" stroke="#000000" d="M134.415,360.316c9.163-7.967,25.839-10.777,37.368-13.283
	c16.046-3.488,30.918-1.925,46.67,2.248c17.605,4.664,34.583,9.597,52.676,12.193c25.051,3.595,49.789,10.037,75.206,10.193
	c22.174,0.137,45.188,1.927,67.249,0.011c22.584-1.962,45.141-6.833,67.331-11.376c15.531-3.18,32.251-7.524,48.206-7.152
	c4.461,0.104,8.145,0.137,11.764,2.957c2.509,1.956,1.944,4.807,5.435,5.399"/>
<path fill="none" stroke="#FFFF00" d="M17.749,400.197C25.015,420.403,57.7,434.183,78,436.085
	c55.931,5.24,108.779-29.375,160.894-43.967c34.032-9.529,71.564-16.229,106.962-12.825c34.535,3.321,67.108,13.696,99.867,24.487
	c27.135,8.938,56.306,15.152,84.748,9.581c14.436-2.828,28.483-7.857,42.543-12.137c9.614-2.927,20.259-8.247,30.449-8.17"/>
<path fill="none" stroke="#FFFF00" d="M346.319,68.65c16.873-18.133,52.833-16.836,72.735-5.983
	c9.797,5.342,17.685,12.122,26.684,18.542c3.128,2.232,12.005,6.101,10.105,10.655"/>
<path fill="none" stroke="#FFFF00" d="M362.392,76.983c10.026-13.224,30.438-10.221,44.598-8.184
	c9.71,1.397,19.148,3.211,26.258,10.549c2.432,2.509,8.206,8.707,5.93,11.325"/>
<path fill="none" stroke="#FFFF00" d="M352.272,52.579c10.763-11.439,38.364-13.041,52.367-8.241
	c7.22,2.474,20.73,7.715,26.105,13.108c3.167,3.177,3.84,7.886,6.646,11.205"/>
<path fill="none" stroke="#ED1C24" d="M383.819,81.745c11.346-10.248,30.097-6.524,37.5,5.953"/>
<path fill="none" stroke="#ED1C24" d="M345.129,52.579c-6.246-9.507-13.363-18.253-19.941-27.46
	c-1.882-2.632-17.087-22.766-18.749-14.207"/>
<path fill="none" stroke="#ED1C24" d="M364.772,40.674c-1.785-6.512,0.373-14.22,0.726-20.844c0.22-4.144,2.828-14.388,0.465-17.251
	"/>
<path fill="none" stroke="#ED1C24" d="M396.915,38.293c0.894-7.894,1.196-15.874,2.383-23.794c0.509-3.398,4.02-13.256,3.569-14.301
	"/>
<path fill="none" stroke="#ED1C24" d="M430.844,44.245c12.764-12.097,15.562-30.11,33.929-35.119"/>
<path fill="none" stroke="#ED1C24" d="M453.463,65.079c9.759-2.205,20.816-7.053,29.442-12.037
	c5.37-3.103,9.772-7.553,15.332-10.388c6.812-3.473,15.874-4.956,21.892-9.718"/>
<path fill="none" stroke="#ED1C24" d="M474.892,96.626c9.835-4.337,20.523-5.712,30.383-9.642c4.877-1.944,9.286-4.628,14.246-6.427
	c4.824-1.749,10.894-2.636,14.895-5.954"/>
<path fill="none" stroke="#FF0000" d="M323.701,63.293c-8.549-8.552-17.559-17.303-26.755-25.163
	c-6.202-5.301-13.069-10.296-20.268-14.151c-3.893-2.085-17.531-8.039-18.453-7.709"/>
<path fill="none" stroke="#FF0000" d="M402.272,91.269c-5.795,4.239-7.702,12.532-13.627,17.02
	c6.018-3.837,12.119-6.185,18.804-8.687c-5.785-1.756-12.287-0.588-18.075-2.438c5.181,3.632,10.872,8.888,13.389,14.744
	c-1.896-6.674,0.983-16.996-5.253-22.425"/>
<path fill="none" stroke="#FF0000" d="M471.915,4.959c-0.702,2.229-2.513,4.297-3.506,6.459c2.902,0.135,5.892,0.392,8.648-0.509
	c-3.085-1.582-4.708-6.65-7.927-6.321c1.806,3.602,4.063,6.655,5.789,10.308c-0.079-3.735,0.666-8.395-1.814-11.127"/>
<path fill="none" stroke="#FF0000" d="M527.272,30.555c-1.143,3.018-2.279,6.162-4.134,8.822c3.185,0.239,5.823-2.344,8.234-4.223
	c-2.206-2.58-3.736-5.691-6.866-7.527c4.641,5.016,2.608,6.651,2.752,12.313c0.429-3.198,3.717-11.29-0.582-11.17"/>
<path fill="none" stroke="#FF0000" d="M543.938,72.816c0.947,3.362-3.096,7.903-5.71,10.708c0.15,0.164,0.301,0.329,0.448,0.496
	c4.763-0.79,7.686-3.953,11.655-6.321c-4.065,0.419-8.539-1.5-11.672-3.51c0.938,4.35,6.209,9.744,10.558,10.497
	c-0.204-3.748-2.858-14.728-7.66-12.464"/>
<path fill="none" stroke="#FF0000" d="M302.272,2.579c-2.73,2.083-4.697,8.273-5.291,11.82c3.268-0.437,6.424-3.85,8.217-6.475
	c-3.448-1.473-8.532-0.434-12.299-1.117c2.927,3.467,7.438,5.97,10.92,8.848c-0.845-3.888-2.455-11.484-7.5-11.291"/>
<path fill="none" stroke="#39B54A" d="M249.891,13.293c-0.878,3.226-2.126,6.571-2.423,9.908c2.529-2.142,3.575-5.67,5.772-8.032
	c-2.133,1.841-5.14,1.949-7.9,1.669c2.427,2.779,5.497,5.519,9.117,6.51c-2.254-2.714-3.783-8.714-6.352-8.865"/>
<path fill="none" stroke="#39B54A" d="M188.105,343.058c-1.559-8.631-0.416-18.22-1.074-27.232
	c-1.705,4.495-3.666,10.306-4.55,15.189c3.118-0.375,5.69-0.736,8.84,0.017c-1.886-4.309-1.923-12.233-5.215-15.307"/>
<path fill="none" stroke="#39B54A" d="M209.772,345.392c-2.427-4.105-0.457-12.87-0.659-17.899c-0.214-5.324-0.317-10.896-1.34-16
	c-0.331,6.751-1.353,13.568-1.951,20.198c1.932-1.1,4.035-0.905,6.25-0.999c-1.122-6.032-4.162-11.814-4.651-17.866
	c0.298,0.418,0.223,0.804,0.351,1.232"/>
<path fill="none" stroke="#39B54A" d="M219.438,349.058c-1.709-1.937,0.557-7.973,0.667-10.667c0.156-3.84-0.813-7.524-0.65-11.215
	c-1.518,4.002-1.113,9.358-1.958,13.508c1.54-0.438,3.497-0.271,5.241-0.317c-0.283-2.79-1.803-8.683-3.3-10.975"/>
<path fill="none" stroke="#39B54A" d="M236.772,353.058c-0.681-7.952,0.717-16.09,0.325-24.085
	c-0.255-5.208-1.136-11.344-0.659-16.48c0.108,7.432-3.006,15.662-1.283,22.856c1.9-0.34,3.866-1.082,5.898-1.008
	c-0.25-3.678-1.324-7.467-2.688-10.949c-0.555-1.416-1.292-2.887-1.602-4.327c-0.161-0.75-0.831-4.294-0.326-3.007"/>
<path fill="none" stroke="#39B54A" d="M248.438,356.392c0.696-6.269,2.005-15.688,0.074-21.641c-0.25,2.429-1.573,4.682-1.269,7.124
	c1.109-0.141,2.251-0.34,3.36-0.584c-1.111-2.99-3.628-5.386-4.637-8.443c-1.33-4.028-0.708-8.938-1.27-13.141
	c-0.455-3.404-0.182-6.929-0.666-10.315c-0.383-2.688-2.247-5.331-1.926-8.232c-0.182,4.512-0.533,9.002-0.617,13.531
	c1.627-0.912,3.408-1.187,5.233-1.343c0.699-2.979-2.648-7.046-4.95-8.623"/>
<path fill="none" stroke="#39B54A" d="M224.772,350.725c0-14.409-0.562-28.616-0.316-42.899c-0.931,3.723-2.35,8.338-2.3,12.182
	c1.883,0.237,3.677-0.42,5.583-0.35c-0.938-2.438-3.333-7.815-3.633-9.6"/>
<path fill="none" stroke="#000000" d="M268.105,359.058c1.306-4.069-0.103-10.675-0.334-15.083
	c-0.296-5.631-0.308-11.283-0.74-16.898c-1.497,3.394-0.868,7.849-1.242,11.667c-0.288,2.937-1.178,5.854-0.367,8.855
	c1.144-0.727,2.592-1.304,3.974-1.258c-0.625-3.621-5.375-17.529-3.624-19.616"/>
<g>
	<path fill="none" stroke="#000000" d="M33.438,408.392c-4.899,0.92-2.388,7.286,0.942,5.609c0.395-0.979,0.894-3.501,0.317-4.535
		c-0.651-1.169-2.384-2.258-2.592-0.741"/>
	<path fill="none" stroke="#000000" d="M51.105,421.392c-2.49-1.264-5.863,2.571-3.09,4.423c2.774,1.853,4.562-3.037,1.09-4.09"/>
	<path fill="none" stroke="#ED1C24" d="M54.105,400.058c0.468-2.715,4.397-9.178,7.689-8.736c4.27,0.573,6.195,10.86,4.262,14.019
		c-2.893-1.151-2.413-8.569-2.618-11.282"/>
	<path fill="none" stroke="#000000" d="M49.105,407.058c-0.511,0.488-0.908,0.925-1.565,1.221c2.608-2.997,3.403-9.119,6.84-10.919
		c0.602,3.537,0.76,7.137,1.061,10.709c0.34,4.036-0.392,11.461,2.273,14.755c6.888,0.119,7.739-9.796,12.171-13.165
		c2.281,1.194,2.644,4.737,3.309,7.06c1.415-4.301,1.429-10.07,1.2-14.547c-2.113,5.103-1.781,11.11-4.932,15.807
		c0.862-2.85,2.208-5.498,3.237-8.286c1.113-3.012,1.547-7.74,3.753-10.104c0.658,0.503,1.735,0.671,2.32,1.138"/>
	<path fill="none" stroke="#000000" d="M79.771,413.058c-0.31-2.641,17.883,1.485,20-0.333"/>
	<path fill="none" stroke="#000000" d="M82.438,418.058c1.987,4.003,12.503,4.565,16.667,5.667"/>
	<path fill="none" stroke="#000000" d="M73.438,422.725c4.195,2.187,13.458,8.527,18.333,6.333"/>
	<path fill="none" stroke="#FF00FF" d="M35.105,403.058c0.14-6.751-5.526-7.443-10.391-8.908c-5.904-1.779-10.461-4.8-12.351-10.685
		c-1.783-5.554-2.213-8.619-8.943-9.758c-1.095-0.185-2.728,1.363-2.914-0.649c-0.132-1.42,1.708-1.812,2.599-1.999
		c2.187-0.459,5.126,1.024,6.748,2.324c3.459,2.772,4.392,6.83,5.918,10.658c2.247,5.631,4.214,5.664,9.666,7.091
		c3.699,0.968,8.976,2.186,11.251,5.585c1.194,1.784,1.104,3.847,2.083,5.675c1.919,3.582,7.188,5.183,10.667,7.333"/>
</g>
</svg>
