<?xml version="1.0" encoding="iso-8859-1"?>
<!-- Generator: Adobe Illustrator 13.0.0, SVG Export Plug-In . SVG Version: 6.00 Build 14948)  -->
<!DOCTYPE svg PUBLIC "-//W3C//DTD SVG 1.1//EN" "http://www.w3.org/Graphics/SVG/1.1/DTD/svg11.dtd">
<svg version="1.1" id="Layer_1" xmlns="http://www.w3.org/2000/svg" xmlns:xlink="http://www.w3.org/1999/xlink" x="0px" y="0px"
	 width="612.444px" height="456.45px" viewBox="0 0 612.444 456.45" enable-background="new 0 0 612.444 456.45"
	 xml:space="preserve">
<path fill="none" stroke="#000000" d="M184.666,282.459c-12.554-9.367-24.297,2.268-35.341,8.005
	c-13.875,7.209-31.204,13.695-46.949,13.469c-14.505-0.21-26.776-7.044-39.151-13.704c-8.658-4.66-19.893-12.76-25.728-20.819
	c-8.673-11.981,1.055-25.024-0.42-38.27c-0.679-6.092-3.381-11.956-4.954-17.847c-2.04-7.637-2.471-15.728-3.41-23.559
	c-1.8-14.996-4.049-28.855-16.071-38.984c-2.684-2.261-10.824-4.866-11.957-8.307c-1.706-5.182,8.945-10.041,12.698-11.801
	c6.228-2.921,14.338-5.358,18.769,1.221c3.396,5.042,5.208,14.195,6.845,20.088c2.286,8.223,2.973,16.84,4.138,25.266
	c2.334,16.875,3.299,34.05,4.034,51.074c0.819,18.947,0.281,42.072,20.225,51.753c22.614,10.977,52.815,1.603,74.912-6.516
	c8.326-3.059,15.25-7.035,22.826-11.147c4.86-2.639,10.335-5.521,15.951-5.517c14.633,0.011,20.346,16.146,33.745,20.234
	c15.664,4.779,32.5,0.474,47.62-4.297c25.271-7.973,49.223-19.823,74.495-28.006c12.689-4.108,28.502-11.833,41.641-5.227
	c7.114,3.578,12.462,9.403,17.974,14.898c15.335,15.287,31.313,27.305,52.545,33.364c10.405,2.97,21.68,6.265,32.243,2.972
	c12.808-3.993,23.994-13.822,34.259-22.172c17.699-14.396,36.873-25.66,60.136-20.829c15.021,3.12,29.895,16.461,36.253,30.264
	c-8.428-6.544-27.146-11.275-36.772-6.786c9.048,9.917,24.803,12.498,31.233,25.996c-10.123-5.332-19.871-13.858-31.026-3.941
	c-4.195,3.729-5.33,7.999-6.218,13.496c-1.193,7.394,0.661,8.843,6.53,13.14c6.765,4.952,20.031,15.612,17.13,24.973
	c-2.139,6.901-20.969,24.925-28.439,22.083c-5.179-1.971-3.782-8.993-5.46-13.24c-2.96-7.49-10.66-11.681-18.394-10.018
	c-6.069,1.306-10.01,5.583-16.487,2.247c-4.858-2.503-4.292-6.47-5.476-11.194c-3.274-13.07-11.274-1.914-19.527,0.149
	c-5.342,1.336-11.446,0.559-17.131,1.192c-9.296,1.035-18.918,4.813-28.005,7.172c-7.348,1.906-11.365,3.147-18.078-0.596
	c-5.217-2.909-8.604-6.575-12.516-1.517c-1.909,2.47-4.819,11.498-4.162,14.447c1.289,5.782,10.719,6.369,15.589,8.946
	c15.325,8.108,28.414,22.108,34.26,38.556c2.221,6.248,3.679,12.904,5.952,19.181c1.944,5.37,7.82,14.427,6.711,20.193
	c-0.229,1.192-0.288,2.364-0.741,3.538c-8.061-7.342-8.124-0.083-15.823,4.081c-0.404-2.552-1.043-5.063-3.109-6.487
	c-2.971,2.396-2.617,8.269-5.165,10.339c-5.127,4.164-6.617-2.343-8.405-6.468c0.282,1.075,1.145,1.806,1.671,2.721
	c8.31-3.19,7.595-14.615,5.204-21.547c-2.659-7.708-9.312-11.566-15.806-15.908c-13.527-9.043-36.023-22.968-40.74-39.386
	c-2.237-7.786,1.494-22.812-3.857-29.09c-5.088-5.967-10.753,1.521-14.463,5.527c-7.759,8.379-12.019,15.274-24.374,12.19
	c-15.13-3.777-28.373,3.354-43.338,6.262c-7.551,1.467-14.038,1.606-21.706,0.913c-4.036-0.364-15.789-2.301-18.332,1.772
	c-1.682,2.693,1.798,11.46,3.021,14.43c2.93,7.112,8.471,13.102,14.123,18.306c8.093,7.452,13.085,17.325,22.021,23.824
	c8.128,5.911,13.071,8.856,16.991,18.646c0.884,2.207,1.779,4.709,2.153,6.929c-3.314-3.712-8.213-11.157-12.938-12.269
	c-0.316,2.056,0.047,4.047,1.039,5.828c-7.086-5.644-12.155,1.737-16.604,6.043c-4.321,4.183-6.173,4.383-11.905-0.045
	c-4.251-3.284-7.619-7.988-11.312-11.874c-5.025-5.288-10.404-9.875-14.316-16.083c-6.594-10.462-12.167-21.838-17.364-33.306
	c-2.891-6.379-6.754-23.48-14.82-22.472c3.118,8.388-1.143,16.169,0.818,24.925c2.448,10.931,9.31,19.946,11.023,31.329
	c0.841,5.587,2.943,26.554-4.764,28.1c-2.499,0.501-22.518-18.13-15.89-2.079c-0.078-1.584-0.736-2.48-1.235-3.731
	c-1.36,5.089-10.226,1.681-13.228-0.705c-5.678-4.512-8.018-18.808-8.827-25.638c-1.825-15.417,0.914-30.651-2.351-45.847
	c-1.443-6.717-3.67-5.479-10.119-6.518c-5.648-0.909-11.538-2.793-16.026-6.549c-12.415-10.387-10.528-28.788-5.253-42.738
	c3.257-8.613,7.986-16.098,11.028-24.714c3.549-10.055,1.729-14.13-9.392-14.124"/>
<path fill="none" stroke="#000000" d="M429.904,291.984c-7.736-4.723-21.27,17.387-20.833,22.619"/>
<path fill="none" stroke="#000000" d="M403.714,284.246c-5.4,3.951-28.706,20.563-20.238,29.167"/>
<path fill="none" stroke="#000000" d="M380.5,266.984c-8.643-0.525-17.497,16.144-20.86,22.144
	c-5.154,9.195-13.99,25.538-7.712,36.189"/>
<path fill="none" stroke="#000000" d="M338.833,259.246c-19.612,15.569-35.18,59.754-18.452,80.952"/>
<path fill="none" stroke="#000000" d="M583.476,356.269c-5.874-4.915-10.899-8.724-15.97-14.63c-2.096-2.441-3.578-5.484-5.91-7.438
	c-3.041-2.55-9.276-1.834-8.478-7.693"/>
<path fill="none" stroke="#000000" d="M569.785,292.579c-4.62-1.745-8.608,1.433-9.646,5.949c-1.514,6.586,3.482,9.574,9.052,11.312
	"/>
<path fill="none" stroke="#000000" d="M569.785,300.317c-1.854-0.543-2.52,1.039-2.279,3.523c0.502-0.815,0.652-1.086,0.999-2.241
	c-1.656,0.147-1.183,0.315-2.362,1.112c0.204,0.89,1.162,0.312,1.262,0.582"/>
<path fill="none" stroke="#000000" d="M353.118,362.817c4.574,4.841,1.354,7.821,3.123,13.107c1.354,4.047,5.673,6.443,7.027,10.72
	c1.917,6.05,4.082,12.771,4.731,19.005c0.706,6.78-0.082,12.042,1.589,18.711c2.679,10.689-3.202,16.073,7.93,22.773
	c6.389,3.844,13.704,10.345,18.654,1.09c1.334,0.649,3.456,0.644,4.689,1.364c-2.521-3.828-3.694-8.555-6.554-12.154
	c-2.333-2.938-5.033-3.737-6.68-7.314c-3.645-7.917-3.487-20.812-9.661-27.331c-1.262-1.332-3.841-0.986-5.312-3.026
	c-1.55-2.149-1.024-6.264-1.082-8.713c-0.081-3.438,0.23-6.498,0.726-9.793c0.67-4.463,2.846-13.62-1.323-16.652"/>
<path fill="none" stroke="#000000" d="M465.023,436.031c0.249,1.989,0.675,4.121,1.19,5.953"/>
<path fill="none" stroke="#000000" d="M300.738,443.174c1.842,1.206,3.351,3.22,4.762,4.762"/>
<path fill="none" stroke="#000000" d="M392.404,447.34c-0.339,1.061,0.183,3.18,1.19,4.763"/>
<path fill="none" stroke="#000000" d="M375.737,447.34c-0.91,2.006,0.998,4.976,2.381,7.144"/>
<path fill="none" stroke="#000000" d="M203.119,445.555c0.532,2.001,1.58,3.884,2.976,5.357"/>
<path fill="none" stroke="#000000" d="M25.738,165.793c1.699-1.456,3.264-3.528,4.762-5.357"/>
<path fill="none" stroke="#000000" d="M33.476,181.865c2.381-0.784,4.876-1.334,7.143-2.381"/>
<path fill="none" stroke="#000000" d="M40.023,211.031c2.078-1.201,4.094-2.633,5.952-4.167"/>
<path fill="none" stroke="#000000" d="M40.023,230.674c2.608,1.106,5.441-0.018,8.333,0"/>
<path fill="none" stroke="#000000" d="M44.19,263.413c2.811-0.742,4.835-3.051,6.548-5.357"/>
<path fill="none" stroke="#000000" d="M66.809,288.413c3.007-2.225,4.224-6.294,7.143-8.929"/>
<path fill="none" stroke="#000000" d="M108.476,299.126c-2.55-6.457-2.906-15.157-2.976-22.023"/>
<path fill="none" stroke="#000000" d="M83.476,4.483c-9.283-6.823-29.834-5.306-33.805,7.863
	c-5.417,17.966,23.917,18.916,34.412,22.051c22.134,6.612,1.444,42.511-10.814,50.335c-12.788,8.162-24.066,1.021-28.014-12.834
	c-1.599-5.614-2.294-14.4,3.496-17.979c6.314-3.903,13.077,2.363,18.654,4.732"/>
<path fill="none" stroke="#000000" d="M112.643,64.603c-1.237-4.795-6.956,0.316-8.543,2.646
	c-3.042,4.464-4.858,17.706,1.521,20.664c9.118,4.227,26.445-44.635-1.311-31.642"/>
<path fill="none" stroke="#000000" d="M128.714,87.817c-0.264-6.746,6.291-17.238,10.104-22.569
	c4.596,3.439,3.122,8.772,8.943,1.949c4.062-4.761,4.516-14.201,11.778-12.305c12.626,3.297,14.886,33.31,6.08,40.068"/>
<path fill="none" stroke="#000000" d="M187.047,77.698c15.228,6.702,17.249-13.043,6.071-9.474
	c-7.009,2.238-9.598,17.551-6.72,23.274c4.136,8.227,16.523,1.615,23.268-0.706"/>
<path fill="none" stroke="#000000" d="M256.095,33.65c-3.141-7.52-13.678-8.516-19.679-3.614c-11.143,9.101,8.245,18.9,14.525,23.76
	c10.157,7.86,9.544,19.623,1.308,30.219c-6.041,7.771-14.332,6.226-22.454,1.354c-5.373-3.223-11.902-13.957-1.677-16.005"/>
<path fill="none" stroke="#000000" d="M271.571,68.77c-6.702,1.104-10.692,21.227,0.004,17.861
	c3.523-1.108,13.012-15.812,10.091-18.738c-2.475-2.478-7.551,0.304-8.31,3.257"/>
<path fill="none" stroke="#000000" d="M288.833,62.817c1.609,6.222,3.43,12.856,5.225,18.922
	c-0.076-3.925,0.747-19.724,7.871-16.541"/>
<path fill="none" stroke="#000000" d="M327.523,59.246c-15.408-11.588-10.4,28.386-12.452,30.229
	c5.307-4.766,13.351-14.949,16.023-21.3"/>
<path fill="none" stroke="#000000" d="M380.5,65.793c-6.873-6.46-19.791,7.659-16.577,15.486
	c7.069,17.216,31.498-21.323,10.624-17.867"/>
<path fill="none" stroke="#000000" d="M406.69,45.555c-19.313,3.963-0.422,30.923,1.379,40c1.977,9.96-2.038,18.601-7.585,26.636
	c-4.607,6.674-19.613,21.671-18.794,3.007"/>
<path fill="none" stroke="#000000" d="M397.166,86.031c6.954,2.102,12.79-1.267,19.643-0.595"/>
<path fill="none" stroke="#000000" d="M311.452,54.483c-0.68,0.081-1.006-0.237-1.514,0.211c6.482,5.916,28.375,15.19,34.252,3.956"
	/>
<path fill="none" stroke="#000000" d="M88.238,114.603c11.285,0.205,15.253,18.969,17.84,27.482
	c3.43,11.288,9.04,26.579,1.075,37.423c-10.512,14.312-19.114-5.062-21.922-14.312c-4.658-15.34-7.985-33.087,5.959-44.683
	c10.821-8.999,41.451-10.901,33.991,10.891c-2.143,6.26-11.016,16.304-17.39,18.249c-6.054,1.847-8.831-2.487-3.547-6.966
	c4.064-3.446,15.156-2.875,19.589-0.164c5.692,3.481,8.024,12.207,10.236,17.927c3.915,10.126,4.438,17.241,16.162,17.248
	c15.283,0.009,21.424-9.196,21.352-24.312c-0.089-18.694-12.679-2.787-13.577,7.615c-1.985,22.986,19.988,18.33,33.086,7.687
	c9.688-7.873,14.485-20.691,19.186-31.917c2.248-5.369,6.921-12.654,7.075-18.511c-6.73,0.11-13.257,14.607-16.02,20.094
	c-4.996,9.922-8.103,20.696-3.76,31.529c10.186,25.41,41.632-5.77,43.641-21.945"/>
<path fill="none" stroke="#000000" d="M190.023,130.674c8.112,6.854,24.654,11.438,35.018,8.548
	c3.089-0.862,21.46-11.644,22.125-7.358"/>
<path fill="none" stroke="#000000" d="M277.523,144.365c-9.721,0.361-39.038,11.416-30.234,28.136
	c8.957,17.011,38.969-15.581,32.554-28.651c-17.301,2.77-18.41,36.945,2.44,28.949c3.854-1.478,7.728-3.688,10.714-6.504
	c3.257-3.073,5.158-9.841,8.826-12.025c2.575-1.533,9.425-0.749,12.526,0.289c-0.327,4.388-17.812,25.485-3,24.408
	c9.478-0.689,19.93-15.505,28.197-19.923c6.606-3.531,14.45-6.076,21.734-7.562c-11.132,2.567-31.156,10.136-30.703,24.461
	c0.726,22.943,27.67-3.644,32.03-10.062c6.654-9.794,10.728-21.377,14.332-32.59c1.493-4.643,7.74-16.891-1.205-13.527
	c-11.985,4.506-16.14,31.863-13.863,42.516c2.275,10.649,11.482,12.834,20.429,8.271c6.562-3.346,18.219-25.479,4.782-20.269
	c-14.165,5.493,4.096,19.012,13.495,16.74c13.607-3.289,26.517-11.703,39.945-16.152c-7.738-0.028-21.303,5.821-25.33,12.544
	c-4.759,7.945,1.454,14.795,9.459,16.553c17.037,3.742,29.393-18.462,36.952-29.689c5.056-7.507,9.803-15.279,14.279-23.146
	c2.523-4.437,10.264-14.267,9.219-19.75c-2.27-11.916-16.032,1.153-19.021,5.487c-8.059,11.685-16.406,28.501-17.793,42.817
	c-0.936,9.649,1.324,24.086,12.313,27.306c5.64,1.652,13.37-0.251,19.273,0.486c6.564,0.82,15.239,1.94,20.862,5.53"/>
<path fill="none" stroke="#000000" d="M268,203.293c-2.559-9.156-25.652-2.286-30.952,0.522
	c-15.405,8.161-20.732,28.322-5.234,39.373c15.712,11.204,28.406,5.645,42.174-5.062c13.186-10.254,26.328-20.385,41.343-27.601
	c-9.021,1.18-33.858,18.957-22.955,29.996c11.105,11.244,25.118-25.031,24.327-31.719c-3.431,4.868-7.565,14.82-6.331,20.75
	c1.726,8.293,9.762,6.683,16.08,5.299c23.415-5.125,43.584-26.359,55.637-46.388c-9.07,4.725-23.476,26.621-19.935,37.316
	c2.65,8.01,12.849,5.944,19.048,4.937c4.25-0.69,26.127-3.783,26.084-7.186"/>
<path fill="none" stroke="#000000" d="M354.309,197.936c7.886,6.937,22.853,6.968,32.77,9.375
	c10.024,2.435,21.559,4.743,29.73,11.458"/>
<path fill="none" stroke="#000000" d="M425.143,231.865c-1.241-0.371-1.562,0.619-1.845,3.405c0.438-1.047,2.287-2.756,1.845-2.215"
	/>
<path fill="none" stroke="#000000" d="M444.19,234.84c0.249-0.825-0.517,1.745-0.623,2.216
	C443.749,235.968,445.129,232.931,444.19,234.84"/>
<path fill="none" stroke="#000000" d="M461.452,236.626c-4.046,4.27,3.131,6.493,2.87,1.269c-0.705,0.518-0.898,0.772-1.632,1.632
	c1.201-0.166,2.974-0.503,4.118-1.114"/>
<path fill="none" stroke="#000000" d="M487.047,241.388c1.134-2.568,1.579-5.405,2.498-8.257c1.626,0.479,3.438,1.77,4.66,3.286
	c0.02-1.921,1.266-2.874,1.788-4.029c2.31,1.463,3.003,5.107,4.149,6.024"/>
<path fill="none" stroke="#000000" d="M508.476,234.84c2.594-0.368,4.582-1.573,4.656-4.062c-2.349-1.178-4.899-0.426-6.947,1.208
	c0.479,6.9,5.076,5.408,10.029,4.641"/>
<path fill="none" stroke="#000000" d="M546.571,225.317c-0.983-1.265-2.835,5.534-4.644,7.106c-0.472-1.592-1.921-2.72-2.53-3.95
	c-0.24,1.227-1.469,3.003-1.594,4.371c-1.278-1.733-3.052-5.242-3.732-5.741"/>
<path fill="none" stroke="#000000" d="M523.952,231.269c-10.219,1.017,4.466,14.739,2.291,0.092
	C525.491,231.229,524.729,231.225,523.952,231.269"/>
</svg>
