<?xml version="1.0" encoding="iso-8859-1"?>
<!-- Generator: Adobe Illustrator 13.0.0, SVG Export Plug-In . SVG Version: 6.00 Build 14948)  -->
<!DOCTYPE svg PUBLIC "-//W3C//DTD SVG 1.1//EN" "http://www.w3.org/Graphics/SVG/1.1/DTD/svg11.dtd">
<svg version="1.1" id="Layer_1" xmlns="http://www.w3.org/2000/svg" xmlns:xlink="http://www.w3.org/1999/xlink" x="0px" y="0px"
	 width="600.541px" height="466.405px" viewBox="0 0 600.541 466.405" enable-background="new 0 0 600.541 466.405"
	 xml:space="preserve">
<path fill="none" stroke="#000000" d="M26.167,6.31c6.013-0.002,3.712,8.96,0.58,12.623c-7.811,9.131-14.984-0.177-7.06-7.394
	c9.149-8.332,27.4-1.125,37.817,0.174c15.476,1.929,32.436,0.021,44.665-10.409c-4.565,23.899-14.917,41.381-29.542,60.75
	C62.212,75.846,51.424,89.545,37.496,100.04c-6.586,4.963-25.457,20.581-33.485,10.462"/>
<path fill="none" stroke="#000000" d="M76.466,109.902c5.109,4.942,15.816-3.948,20.058-6.715
	c13.255-8.649,26.952-16.809,39.192-26.885c13.987-11.516,25.325-25.614,33.473-41.781c3.356-6.659,11.61-19.836,8.605-27.63
	c-13.327,5.112-23.63,27.847-29.669,39.61c-6.068,11.818-12.369,23.524-18.494,35.313c-4.199,8.081-10.613,15.851-12.975,24.697
	c7.345-5.226,11.698-16.3,17.895-22.993c4.886-5.277,17.026-18.447,25.792-17.16c13.089,1.922-6.284,35.092-6.128,43.887
	c0.375,21.122,23.14,3.819,30.759-2.24c13.935-11.083,33.239-26.854,40.613-43.523c-6.961,5.887-41.613,45.789-18.802,49.563
	c10.558,1.747,24.86-10.196,31.585-16.995c7.095-7.172,19.809-19.47,22.477-29.417c-6.429,11.151-17.316,22.561-17.836,36.226
	c-0.631,16.611,12.621,12.027,20.5,3.585c6.655-7.132,31.219-42.451,44.625-32.499c9.521,7.068-2.814,25.082-3.574,33.621
	c2.442-5.296,5.496-10.544,8.479-15.548c1.826-3.063,10.26-17.801,15.074-17.365c6.609,0.599-4.736,24.081-1.686,29.714
	c5.976,11.03,24.186-3.452,30.683-6.98c15.061-8.179,31.216-15.788,48.112-19.197c-12.89,0.85-26.48,7.329-36.633,15.246
	c-10.285,8.021-25.2,25.761-3.815,31.538c20.585,5.561,44.617-24.407,56.166-36.451c9.604-10.018,18.957-19.546,26.877-31.037
	c3.103-4.501,18.16-21.889,15.418-28.343c-4.562-10.738-26.264,17.766-28.711,21.068c-9.632,12.998-20.722,32.845-12.951,49.462
	c6.591,14.094,23.547,11.32,35.088,5.515c9.671-4.864,26.495-19.976,27.587-31.201c-9.309-7.319-33.606,25.677-17.984,36.302
	c19.69,13.393,49.769-20.42,58.66-34.718c2.539,1.329,4.061,3.896,6.711,5.101c3.385,1.538,7.408,0.478,10.398,2.688
	c-3.287,10.939-21.286,18.818-12.076,32.445c5.26,7.784,14.978,8.079,23.502,8.002c15.614-0.142,31.846-3.291,46.957-7.117"/>
<path fill="none" stroke="#000000" d="M5.209,210.501c7.208,1.797,23.142-26.014,26.374-31.597
	c2.468-4.263,3.684-9.388,6.682-13.147c2.369-2.971,5.942-4.003,7.168-7.948c6.758,10.024,18.191,3.479,27.257,3.788
	c-2.538,6.066-7.181,11.585-10.565,17.237c-4.009,6.696-12.533,16.757-12.537,24.984c-0.009,20.231,39.908,5.183,48.435,0.694"/>
<path fill="none" stroke="#000000" d="M132.754,180.561c-9.151-0.288-36.319,21.008-29.869,31.204
	c9.517,15.046,33.242-19.77,26.653-30.006c-7.878,1.987,1.06,11.445,4.621,13.124c15.317,7.219,37.363-6.242,50.15-13.181
	c15.015-8.147,29.708-19.45,37.841-34.789c8.199-15.461-2.793-19.43-16.385-12.729c-13.97,6.888-28.417,23.265-33.558,38.068
	c-3.021,8.699-3.1,23.115,6.299,28.313c10.164,5.622,24.387-6.441,31.663-12.324c16.701-13.502,31.575-30.931,43.192-48.968
	c4.336-6.731,7.117-16.69-3.908-9.491c-12.411,8.104-22.555,25.458-26.197,39.564c-2.823,10.932-3.128,24.725,5.725,33.235
	c10.35,9.95,25.598,5.878,36.734-0.247c5.506-3.029,34.123-20.522,28.817-29.036c-4.786-7.679-25.67,13.125-23.45,21.028
	c3.697,13.162,29.049,5.762,37.607,3.788c7.145-1.647,33.596-6.758,35.389-15.835c-15.104-6.132-60.973,33.165-34.771,38.348
	c12.747,2.521,30.213-8.188,40.066-14.987c16.947-11.693,32.556-26.85,42.588-44.977c3.92-7.083,11.815-25.057-3.881-20.708
	c-16.228,4.496-32.068,24.387-39.35,38.566c-27.039,52.649,61.085,38.084,86.418,31.981"/>
<path fill="none" stroke="#000000" d="M477.664,212.298c16.263-1.685-2.748,17.968-6.527,11.37
	c-2.477-4.324,7.019-11.87,10.508-12.725c4.169-1.021,11.878,1.223,9.193,6.745"/>
<path fill="none" stroke="#000000" d="M515.389,216.489c7.375,1.416,3.926,7.827-1.733,6.96
	c2.183-12.396,19.472-11.217,25.087-2.768"/>
<path fill="none" stroke="#000000" d="M567.484,217.687c4.31,4.237,7.129,6.823,0.468,11.387c-3.876,2.655-8.915,4.008-8.774-2.394
	c0.16-7.291,9.659-9.791,14.836-7.074c6.188,3.249,2.619,13.48,6.045,14.248"/>
<path fill="none" stroke="#000000" d="M0.418,305.711c4.154,6.359,52.165-45.748,56-50.725
	c-9.623,4.532-37.312,51.192-12.118,45.509c11.784-2.658,24.784-14.104,32.902-22.47c10.169-10.479,23.718-20.874,30.453-33.992
	c-8.315,1.588-15.529,15.45-18.991,22.216c-4.774,9.329-7.083,17.346-2.327,26.922c6.785,13.662,16.937,9.368,29.042,4.066
	c8.319-3.644,38.08-12.378,36.537-24.461"/>
<path fill="none" stroke="#000000" d="M86.047,247.028c2.377,20.594,30.183,17.441,43.853,13.985c0.42-0.438,0.373-0.908-0.14-1.41"
	/>
<path fill="none" stroke="#000000" d="M62.095,245.232c-0.711,0.691-0.888,1.853-0.599,2.993"/>
<path fill="none" stroke="#000000" d="M186.047,303.914c8.61,0.991,17.799-10.643,23.501-15.556
	c8.469-7.297,21.184-17.648,25.544-28.151c5.696,4.43,17.988-1.55,16.65,6.93c-1.241,7.863-15.692,16.537-10.551,26.488
	c6.033,11.679,28.543-1.578,35.25-5.096c12.709-6.667,29.652-19.335,44.76-18.67c-8.416,3.455-39.44,11.687-30.284,26.758
	c8.331,13.712,34.126-20.838,27.976-28.682c5.274,10.182,24.248,0.205,31.197-2.934c11.578-5.229,22.95-10.559,32.419-19.25
	c2.159-1.982,15.942-14.316,7.678-16.091c-6.359-1.366-16.386,12.245-19.384,16.043c-6.604,8.371-12.657,17.837-14.795,28.464
	c-1.316,6.544-1.05,14.403,3.75,19.601c6.324,6.848,13.716,2.031,20.378-2.046c11.192-6.85,22.126-14.672,32.161-23.124
	c8.562-7.209,26.116-20.455,28.206-32.405c1.337-7.64-2.312-8.003-8.923-4.695c-10.761,5.386-21.691,18.48-27.171,28.819
	c-6.526,12.315-9.431,32.988,8.411,35.994c12.561,2.115,47.444-11.719,48.445-26.545c-9.039-4.712-28.61,13.247-13.621,19.099
	c6.753,2.637,48.106-0.957,46.515-10.497c-7.407-0.425-41.914,17.464-29.854,26.254c7.269,5.298,26.961-8.274,32.495-11.582
	c14.494-8.663,27.598-18.905,36.514-33.496c3.015-4.934,10.324-15.533,2.512-18.485c-12.541-4.737-30.472,18.369-36.01,25.566
	c-21.599,28.065,15.626,44.298,40.123,40.283"/>
<path fill="none" stroke="#000000" d="M57.903,366.19c-19.222-5.512-35.303,18.199-34.039,36.231
	c1.229,17.547,14.472,9.944,21.957,0.77c8.297-10.169,11.599-25.126,11.526-38.082c-3.063,8.767-7.597,21.347-5.324,30.614
	c2.99,12.191,11.596,11.085,18.974,3.357c5.913-6.193,26.567-35.365,38.487-27.593c7.233,4.717-3.291,24.051-8.588,28.115
	c4.446-8.667,10.932-19.884,18.813-25.6c9.57-6.94,7.16,0.933,5.247,8.008c-2.164,7.998-3.246,17.353,4.667,22.585
	c10.488,6.936,30.068-0.369,40.855-3.676"/>
<path fill="none" stroke="#000000" d="M215.388,409.304c5.793,3.513,14.915-0.668,20.423-3.146
	c11.886-5.348,24.262-14.705,32.716-24.613c3.663-4.293,14.685-17.961,7.771-23.822c-7.172-6.082-17.54,5.492-20.679,10.394
	c-9.324,14.558-7.457,37.425,13.462,36.887c14.008-0.36,28.417-7.113,39.708-15c5.391-3.766,22.529-14.483,21.573-22.083
	c-14.009-4.854-42.094,33.843-26.205,39.55c4.048,1.454,10.121-3.153,13.389-4.861c8.011-4.185,16.165-8.076,24.163-12.29
	c9.616-5.066,19.116-10.34,28.843-15.199c4.632-2.314,11.156-4.128,14.957-7.786c-6.822-2.55-32.268,13.852-26.908,21.648
	c5.328,7.751,33.155-18.614,34.56-23.9c-5.663,0.206-12.018,18.261-14.778,22.457c-11.721,17.821-28.479,33.089-43.842,47.668
	c-3.684,3.496-21.359,21.909-20.401,8.464c0.728-10.229,14.426-22.809,21.562-28.45c8.775-6.938,18.085-10.099,28.691-13.232
	c16.356-4.833,33.517-5.996,49.562-11.577c23.143-8.05,49.609-26.507,62.258-47.778c2.229-3.749,10.062-17.218,6.129-21.299
	c-5.103-5.295-14.412,2.899-18.363,6.476c-16.589,15.012-27.04,36.431-44.527,50.654c10.149-1.88,27.179-15.461,20.349,4.464
	c-3.668,10.701-10.637,23.67,1.255,32.27c12.316,8.906,31.377-2.816,41.825-9.59c11.728-7.604,22.132-17.404,32.517-26.695
	c5.444-4.87,12.959-10.092,15.021-17.435c-10.898,5.049-20.213,18.175-27.82,27.349c-6.105,7.362-16.636,19.447-9.858,29.38
	c6.245,9.153,20.894,7.849,30.491,7.29c16.146-0.939,38.899-6.504,47.848-21.581"/>
<path fill="none" stroke="#000000" d="M495.029,356.011c-4.89-2.292,0.646,14.737,1.887,17.259
	c7.337,14.904,21.209,5.768,32.886,2.327c4.189-1.234,13.898-5.034,18-1.676c2.675,2.19,1.403,5.684,3.458,8.465
	c6.544,8.861,23.589,3.363,32.393,7.757"/>
<path fill="none" stroke="#000000" d="M341.137,344.034c-1.455,1.076-2.601,2.562-2.917,4.101c2.456-0.345,3.329-1.026,3.302-3.423
	c-1.204-0.344-1.664,0.184-2.779,0.521"/>
<path fill="none" stroke="#000000" d="M585.448,423.076c-1.784,0.46-2.999,0.883-2.901,2.903c11.021,0.952-4.182-11.653-1.788-0.005
	c1.663-0.495,2.778-0.562,3.889-2.018c-0.226-0.461,0.131,1.722,0.069,2.108c0.475-0.069,1.14-0.792,1.594-0.388
	c-6.494,4.84,0.468,9.549,1.285,5.218c-2.615-2.406-5.898-5.814-9.932-5.424"/>
<path fill="none" stroke="#000000" d="M58.189,454.513c-1.469,0.304-6.899,3.375-5.012,5.674c1.879,2.291,5.943-3.977,4.51-5.197
	c-1.309,0.837-2.581,5.024-0.869,6.068c1.956,1.192,3.802-3.795,4.399-5.149c0.686,0.145,1.408,0.09,2.112,0.131
	c0.093,1.907-1.797,5.7,1.692,3.479c2.269-1.445,4.865-4.891,4.808-7.653c-1.891,0.722-3.266,4.94-3.982,6.777
	c-0.749,1.919-1.484,4.103-1.299,6.178c2.737,0.166,1.036-4.287,1.509-5.307c0.593-1.278,3.026-0.834,4.466-0.834"/>
<path fill="none" stroke="#000000" d="M87.355,456.179c-1.624,0.015-5.604,3.228-4.47,5.175c1.04,1.786,4.893-3.794,4.149-5.29
	c-1.005,0.796-2.525,4.146-1.191,5.164c2.525,1.928,3.774-5.251,6.161-4.489c-0.204,2.05-1.321,5.468,2.176,3.958
	c2.65-1.145,6.773-5.812,6.796-8.683c-3.042,1.091-8.326,10.743-6.253,13.807c2.713-0.821,1.224-3.883,1.317-5.616
	c1.151-0.066,2.324-0.025,3.483-0.025"/>
</svg>
