<?xml version="1.0" encoding="iso-8859-1"?>
<!-- Generator: Adobe Illustrator 13.0.0, SVG Export Plug-In . SVG Version: 6.00 Build 14948)  -->
<!DOCTYPE svg PUBLIC "-//W3C//DTD SVG 1.1//EN" "http://www.w3.org/Graphics/SVG/1.1/DTD/svg11.dtd">
<svg version="1.1" id="Layer_1" xmlns="http://www.w3.org/2000/svg" xmlns:xlink="http://www.w3.org/1999/xlink" x="0px" y="0px"
	 width="1153.676px" height="487.226px" viewBox="0 0 1153.676 487.226" enable-background="new 0 0 1153.676 487.226"
	 xml:space="preserve">
<path fill="none" stroke="#000000" d="M8.218,7.19c7.508-0.441,5.364,11.499-0.577,9.873c-3.462-0.947-3.483-4.314-1.189-6.615
	c2.792-2.801,6.947-1.014,10.148-0.095c9.459,2.717,18.748,4.792,28.479,5.603c10.318,0.861,15.854-6.343,24.385-9.242
	c-3.222,5.114-7.769,9.618-11.338,14.673c-6.705,9.497-10.292,21.01-17.318,30.558c-7.733,10.508-16.34,23.624-30.79,15.352
	c-4.794-2.745-8.396-7.696-9.352-13.151c-0.534-3.049,0.002-10.554,4.809-8.663"/>
<path fill="none" stroke="#000000" d="M45.521,68.458c8.589-6.818,17.198-13.205,25.042-20.729
	c-3.498,3.771-9.28,11.334-10.693,16.242c6.228,3.549,17.112-11.151,21.127-14.477c-2.716,3.419-8.23,8.059-9.036,12.521
	c-1.649,9.132,8.707,5.233,13.579,3.188c12.874-5.411,22.577-14.109,30.465-25.459c4.062-5.843,13.634-17.509,13.391-24.822
	c-7.375,0.163-13.616,14.521-17.596,19.584c-8.602,10.944-18.219,23.281-23.214,36.387c-0.976,2.56-5.626,18.844,0.135,17.228
	c6.566-1.842,4.719-20.168,4.06-24.326c1.369,5.269,5.653,3.035,9.22,1.544c6.252-2.614,12.636-3.907,18.479-7.508
	c14.947-9.211,25.836-22.823,37.365-35.719c-7.37,5-15.455,14.494-20.708,21.675c-2.751,3.761-9.883,13.461-3.749,18.119
	c5.998,4.555,29.755-8.952,26.175-16.92c-6.461,0.308-15.537,11.008-6.572,15.184c8.412,3.918,26.691-9.528,33.505-13.763
	c-11.103-2.282-27.213,28.398-4.552,17.047c11.153-5.586,18.646-17.229,26.047-26.789c4.077-5.265,14.477-16.676,11.517-23.97
	c-11.8,2.827-20.201,18.757-24.662,28.837c-2.248,5.079-5.312,13.691-0.176,18.1c4.067,3.49,13.689,1.529,18.166,0.075"/>
<path fill="none" stroke="#000000" d="M141.523,26.337c-7.206,6.415,23.953,9.369,24.686,9.846"/>
<path fill="none" stroke="#000000" d="M258.37,7.737c4.314,0.342,1.038,8.964-2.635,7.547c-2.24-0.863-1.775-3.854-0.517-5.248
	c2.081-2.305,5.73-0.26,8.089,0.434c9.117,2.679,17.301,5.474,27.028,4.406c14.386-1.579,22.997-5.83,34.889-13.101
	c-3.579,5.078-8.689,9.996-13.098,14.716c-8.229,8.814-14.924,18.848-23.629,27.268c-7.611,7.365-17.958,13.277-28.933,11.701
	c-3.281-0.472-6.689-1.056-8.855-3.925c-1.595-2.112-3.247-8.129,0.529-8.242"/>
<path fill="none" stroke="#000000" d="M301.709,59.159c8.688-0.807,17.409-10.355,23.692-15.669
	c-8.108,7.356-16.021,20.312,2.072,12.932c18.55-7.564,38.103-23.626,50.894-38.956c-8.215,6.755-26.093,18.103-24.691,30.727
	c1.529,13.772,30.231,2.716,29.223-2.709"/>
<path fill="none" stroke="#000000" d="M359.31,24.149c-2.315,12.667,28.432,11.785,30.172,3.829"/>
<path fill="none" stroke="#000000" d="M339.012,24.696c-2.422,1.347-4.185,3.774-3.673,6.517c3.18-0.294,11.235-5.637,8.062-8.705"
	/>
<path fill="none" stroke="#000000" d="M389.48,47.125c2.787-2.063,15.007-15.712,20.606-9.856
	c3.623,3.788-3.486,21.639-7.385,22.978c1.262-8.894,12.044-17.596,19.72-21.16c4.408,5.901-3.688,14.665-6.404,19.525
	c4.181-9.145,11.246-17.508,20.679-21.438c1.827,4.203-7.562,17.247-3.501,20.505c2.675,2.147,12.115-5.926,14.608-7.165
	c6.637-3.299,13.822-7.88,21.078-9.418c-6.762-0.072-24.262,13.061-15.146,19.726c9.389,6.865,17.982-11.536,16.061-18.67
	c12.027,6.262,30.138-4.575,42.417-7.537c-4.478,2.667-30.088,17.833-24.05,25.153c5.581,6.767,26.292-12.997,27.442-17.465
	c-1.995,2.765-9.268,10.148-8.111,14.026c1.743,5.84,9.957,2.111,13.26,0.57c5.996-2.798,10.978-6.991,16.266-10.868
	c1.949-1.429,12.411-10.691,15.45-9.789c6.104,1.812-2.935,14.8-5.389,17.091c-1.758,1.641-19.997,10.563-16.142,4.69
	c3.96-6.034,16.446-0.358,21.36,0.627c6.921,1.389,13.774,0.199,19.407-3.942c4.418-3.246,15.031-11.945,14.558-18.056
	c-8.067-0.724-20.521,12.934-19.672,21.161c1.299,12.573,21.74,6.518,29.702,6.816"/>
<path fill="none" stroke="#000000" d="M15.62,103.284c1.714,2.587-1.38,5.676-2.026,3.527c-0.617-2.051,4.477-5.741,6.041-4.997
	c3.779,1.797-3.942,16.151-5.201,18.787c-2.061,4.318-8.579,17.561,0.992,12.26c5.321-2.946,7.71-10.924,11.18-16.104
	c3.093-4.617,5.214-9.858,8.127-14.556c-0.483,0.596-0.91,1.332-1.292,1.961"/>
<path fill="none" stroke="#000000" d="M27.417,131.977c2.294-2.861,4.765-7.727,7.798-9.376c0.752,2.381-1.009,10.17-3.75,9.943
	c-0.405-0.939-0.412-1.973,0.013-2.871c2.125,0.508,5.38,1.084,7.521,0.648c3.78-0.77,7.155-5.662,9.482-8.738
	c-0.848,2.054-5.384,5.792-3.012,7.963c2.697-1.497,4.252-4.382,6.143-6.922c-0.706,1.521-2.541,3.704-2.313,5.539
	c0.473,3.814,3.549,1.771,5.477,1.179"/>
<path fill="none" stroke="#000000" d="M63.56,123.779c-2.978-0.081-8.536,1.463-7.541,6.45c1.173,5.878,7.854-2.727,8.144-5.78
	c-1.108,1.102-2.691,3.938-1.936,5.8c1.104,2.723,3.615,1.011,5.336-0.086c6.314-4.026,11.53-11.913,12.568-20.375
	c0.444-3.619-0.516-5.007-3.073-1.876c-2.626,3.217-3.87,8.431-4.969,12.542c-1.883,7.042-0.54,15.013,6.4,8.829
	c4.07-3.626,7.997-7.756,10.809-12.799c1.043-1.871,4.976-9.753,3.89-12.038c-1.471-3.092-4.493,2.056-5.3,3.819
	c-2.028,4.429-3.353,10.282-3.708,15.262c-0.195,2.732-0.061,5.61,2.648,5.834c3.457,0.286,5.155-5.181,8.081-5.851
	c3.452-0.79,0.413,2.913,2.26,4.614c1.954,1.801,3.875-3.134,5.023-4.567c-1.499,5.68-5.821,11.694-9.012,16.262
	c-2.023,2.897-7.534,11.979-11.798,10.029c-5.2-2.377,6.799-13.2,9.112-14.622c6.006-3.69,11.834-3.607,18.245-3.542"/>
<path fill="none" stroke="#000000" d="M120.787,128.756c4.559,0.601,9.435-4.708,12.256-8.215
	c4.158-5.17,8.561-12.768,10.331-19.623c-4.468-1.749-10.535,11.851-12.549,15.435c-3.562,6.335-7.328,11.578-8.842,19.188
	c-0.917,4.606,0.469,11.606,4.13,5.375c2.39-4.068,3.197-10.543-0.255-14.288c1.297-0.296,2.645-0.125,3.965-0.506"/>
<path fill="none" stroke="#000000" d="M142.875,122.608c-2.03-2.03-6.849,0.271-5.088,3.9c1.855,3.824,5.784-2.775,5.535-5.356
	c-1.035,4.384,10.943-1.996,12.291-2.841c-0.999,0.934-6.965,6.407-3.984,7.559c2.549,0.986,6.083-5.183,7.497-6.715
	c-0.601,0.972-3.473,4.423-2.91,5.8c1.185,2.903,5.434-2.416,6.457-3.24c1.147-0.924,7.436-5.444,8.783-2.577
	c0.658,1.401-1.463,4.612-1.696,6.042c1.135-1.591,1.577-3.896,3.188-4.897c-0.366,2.716-2.592,7.74,1.663,6.765
	c5.632-1.291,10.208-7.377,16.195-8.327c-2.437-0.153-11.778,5.773-7.424,8.231c3.855,2.176,10.777-5.198,13.049-7.73
	c4.617-5.145,8.444-11.344,11.675-17.752c1.124-2.229,4.441-7.805,0.023-6.342c-4.232,1.401-8.36,7.866-10.224,12.212
	c-1.678,3.912-4.739,10.21-3.561,14.851c0.883,3.479,7.306,7.041,10.275,7.736"/>
<path fill="none" stroke="#000000" d="M219.428,127.878c4.352,0.3,11.864-7.476,14.034-11.27c-0.947,1.567-6.445,7.805-4.504,10.11
	c1.936,2.3,10.239-8.01,13.718-7.593c0.505,2.56-1.578,5.235-2.401,7.521c1.955-3.051,5.063-6.49,8.234-7.538
	c-0.325,2.397-2.926,6.205-1.74,8.768c1.854,4.002,8.963-0.339,10.81-2.634"/>
<path fill="none" stroke="#000000" d="M239.508,108.261c-0.342-0.548-0.283,0.14-0.251,0.586"/>
<path fill="none" stroke="#000000" d="M268.122,126.707c4.022,0.223,8.726-4.508,11.421-7.549
	c2.196-2.477,10.418-11.997,8.386-15.791c-2.688,1.177-4.328,4.62-6.115,7.075c-2.563,3.522-5.204,7.06-7.061,11.15
	c-2.136,4.704-8.445,15.166-5.34,20.593c3.904-1.149,6.691-12.278,3.812-15.674c3.361,4.391,12.775-2.498,15.516-5.149
	c3.157-3.054,6.077-7.243,8.219-11.307c1.078-2.046,3.352-6.268-0.032-5.265c-3.859,1.144-10.789,16.562-7.674,20.421
	c3.436,4.256,10.634-4.87,13.941-6.135c-1.346,0.447-6.744,4.461-5.253,6.708c1.951,2.939,5.368-4.861,4.869-6.681
	c0.004,2.94,4.522,0.476,5.945,0.137c3.65-0.869,7.273-1.691,11.009-1.616c-2.46,0.308-12.064,5.828-7.029,8.453
	c2.895,1.51,8.129-1.945,10.598-3.459c5.877-3.605,10.071-8.781,13.643-15.257c0.796-1.443,5.909-8.589,4.528-10.307
	c-1.543-1.921-5.803,4.759-6.659,5.977c-3.595,5.117-7.41,12.89-7.267,19.796c1.736-2.61,7.771-9.863,11.222-7.931
	c2.864,1.603-1.528,6.058-3.377,6.526c-0.091-1.406,0.981-2.631,2.232-2.654c1.921-0.034,2.099,1.915,2.858,3.392
	c4.837,9.402,12.778-0.362,17.078-4c2.066-1.749,3.715-4.229,5.857-5.783c0.628,4.183-1.254,16.532-6.995,14.276
	c-3.124-1.227-1.3-5.101,1.617-4.241c2.453,0.723,5.016,3.684,7.417,4.851c1.553,0.754,3.301,0.935,4.788,1.786"/>
<path fill="none" stroke="#000000" d="M395.878,113.532c-4.426-0.483-11.914,9.732-6.135,11.796
	c2.595,0.927,5.698-2.404,7.082-4.696c1.287-2.131,1.973-6.799-1.674-5.884c-0.293,5.906,10.445,2.098,12.66,1.148
	c3.715-1.593,15.958-10.195,13.402-16.115c-2.602,0.073-5.129,4.388-6.532,6.507c-2.964,4.475-5.935,9.014-8.598,13.745
	c-2.644,4.697-4.985,8.94-6.373,14.337c-0.921,3.583-2.626,7.218-2.294,11.049c2.8,0.698,7.041-7.342,7.954-10.045
	c1.722-5.096,1.951-9.223-0.094-13.951c2.113-0.239,4.924-0.877,6.915,0.014"/>
<path fill="none" stroke="#000000" d="M436.288,103.577c0.94-4.269,7.627-6.552,8.974-1.618c1.376,5.041-3.729,12.701-8.388,10.423
	c0.898-1.991,4.753-2.294,6.45-1.571c3.089,1.316,2.938,5.316,2.501,8.513c-0.465,3.395-1.648,6.727-4.762,7.632
	c-1.766,0.513-5.691-0.195-6.939-1.749c0.461,0.828,0.702,0.203,1.16,0.329"/>
<path fill="none" stroke="#000000" d="M457.623,112.36c-0.208,0.222-0.596-0.318-0.425,0.293c1.812,0.836,3.587-0.358,5.443-0.293"
	/>
<path fill="none" stroke="#000000" d="M479.711,98.6c-4.56-2.882-12.227,6.251-5.419,9.799c3.54,1.845,6.545,1.841,7.175,7.133
	c0.396,3.312-0.104,6.603-3.2,7.911c-2.76,1.167-6.074,0.645-6.647-2.951c-0.68-4.264,2.489-6.952,5.281-8.644
	c2.478-1.501,5.032-2.673,4.838-6.515c-0.051-0.982-0.671-3.707-1.331-4.406c-1.403-1.487-2.96-0.508-4.711-0.279"/>
<path fill="none" stroke="#000000" d="M496.276,128.756c4.966-3.231,9.661-6.067,13.482-11.315
	c2.836-3.896,4.925-8.469,7.216-12.787c1.145-2.156,3.916-5.091,3.859-7.766c-1.75,0.021-5.828,4.852-7.049,6.431
	c-2.938,3.801-6.021,9.517-6.785,14.601c-0.345,2.298-0.135,7.734,2.712,7.563c2.475-0.148,4.938-7.085,2.452-8.352
	c1.927,4.592,11.861-1.243,14.396-2.39c-1.174,1.646-6.756,6.541-3.521,8.479c3.366,2.017,10.28-6.892,12.096-9.016
	c0.647,1.788,3.139-0.111,3.342,2.182c0.136,1.509-3.096,2.313-1.3,4.492c1.65,2.002,5.754-1.691,7.284-2.386
	c2.95-1.339,6.728-3.251,9.959-2.896c-2.041-0.708-7.147,1.684-8.151,4.235c-1.341,3.414,0.923,3.277,3.078,2.219
	c4.866-2.388,9.788-7.458,13.062-12.156c3.132-4.496,6.935-9.808,9.148-14.901c-3.163-0.794-8.878,7.904-10.724,10.693
	c-2.362,3.57-5.63,8.688-5.533,13.496c0.199,9.842,11.336-6.344,13.963-6.323c2.742,0.021,0.358,3.26-0.746,4.748
	c-1.1,1.481-5.181,7.453-7.254,6.492c-2.941-1.363,1.522-3.045,3.251-2.384c2.258,0.864,5.043,4.004,7.561,2.649"/>
<path fill="none" stroke="#000000" d="M531.165,109.14c-0.304-0.088-0.492-0.551-0.922,0.841c1.128-0.116,0.663-0.52,0.671-0.548"/>
<path fill="none" stroke="#000000" d="M1153.35,144.227c-2.058-1.771-5.406-1.081-5.935,1.426c1.093,0.031,1.463-0.163,2.395-0.426
	c0.018-0.763-0.958-0.45-0.96-0.5"/>
<g>
	<path fill="none" stroke="#004417" stroke-width="7" d="M96.381,84.499c-7.742-1.792-15.204,0.52-21.978,4.65
		c-5.156,3.143-18.675,10.36-21.501,14.941c0.75,0.83,1.673,1.421,2.771,1.777"/>
	<path fill="none" stroke="#004417" stroke-width="7" d="M105.631,102.307c-6.281-4.315-15.412-5.189-23.198-3.587
		c-4.81,0.989-19.095,4.635-21.21,7.148"/>
	<path fill="none" stroke="#004417" stroke-width="7" d="M90.829,81.828c-9.306-28.997,30.801-27.545,47.185-34.924
		c11.802-5.315,18.051-14.893,27.557-22.722c8.617-7.097,18.602-12.128,27.029-19.819"/>
	<path fill="none" stroke="#004417" stroke-width="7" d="M183.348,25.733c3.451-4.097,15.097-20.711,19.43-11.576"/>
	<path fill="none" stroke="#004417" stroke-width="7" d="M209.254,32.856c-6.548-3.428-12.515,3.252-17.58,6.233"/>
	<path fill="none" stroke="#004417" stroke-width="7" d="M93.604,81.828c7.913-9.384,19.022-14.234,31.689-16.074
		c4.704-0.682,11.66-1.819,16.468-0.89c4.73,0.914,7.84,4.889,13.112,4.317c5.472-0.593,10.83-6.798,15.729-8.918
		c6.142-2.659,10.714-2.317,17.393-3.366c11.563-1.817,18.356-9.014,28.663-13.086c-0.282,0.993-0.899,1.794-1.854,2.401"/>
	<path fill="none" stroke="#004417" stroke-width="7" d="M96.381,109.429c0.228-0.625-2.609,0.928-1.058-0.646
		c1.351-0.825,3.095-1.33,4.641-1.689c-0.212,0.895-0.368,2.248-0.696,3.271c0.628,1.615,1.593,1.208,1.855,3.405
		c1.734-0.618,4.443-0.315,6.311-1.38c-1.356,1.313-2.278,3.652-3.627,4.869c2.953-0.812,5.542,0.143,8.208,0.361
		c-1.872,3.015-0.271,3.277-0.595,5.967c3.596-1.318,7.196,0.293,10.868,1.869"/>
	<path fill="none" stroke="#004417" stroke-width="7" d="M113.958,134.361c-2.206,9.295-3.182,14.39-1.849,24.265
		c1.376,10.204,2.881,20.064,4.625,30.321c5.351,31.443,23.679,66.275,47.366,88.723c50.633,47.98,118.69,60.838,187.651,57.875
		c7.278-0.312,13.645,0.19,20.498,1.827c7.576,1.812,14.712,7.328,22.042,8.014"/>
	<path fill="none" stroke="#004417" stroke-width="7" d="M212.029,44.431c18.621,1.014,32.971,37.495,37.008,51.643"/>
	<path fill="none" stroke="#004417" stroke-width="7" d="M260.14,96.074c30.325,0.4,62.24,29.179,80.251,49.653
		c18.856,21.435,30.749,49.126,45.843,73.051c13.365,21.18,16.002,44.281,38.308,60.221c11.831,8.454,21.455,16.383,29.726,28.538
		c3.087,4.538,5.035,9.498,9.652,12.915c8.11,6.003,18.637,7.357,26.867,13.277c6.108,4.393,18.512,9.71,21.93,16.107"/>
	<path fill="none" stroke="#004417" stroke-width="7" d="M174.096,120.114c-6.324-6.646-6.671,9.385-5.596,13.357
		c2.248,8.297,10.864,15.27,17.625,20.499c6.491,5.021,14.926,12.693,22.388,15.805c8.804,3.672,20.637,2.444,30.057,5.059
		c18.21,5.055,36.833,9.022,55.506,12.324c19.198,3.396,34.246-2.96,51.899,7.994c16.703,10.362,27.009,27.968,42.171,40.34
		c7.873,6.424,15.378,13.062,22.319,20.368c4.775,5.028,15.538,24.315,23.611,15.621"/>
	<path fill="none" stroke="#004417" stroke-width="7" d="M175.947,165.525c-19.276,12.904,22.539,47.262,31.43,54.711
		c12.6,10.553,21.252,9.877,37.719,9.438c10.319-0.275,18.966-5.141,28.667-8.008c9.248-2.734,35.549-5.606,36.338-17.854"/>
	<path fill="none" stroke="#004417" stroke-width="7" d="M262.914,242.099c3.43,12.946,23.066,21.195,34.191,26.891
		c31.937,16.35,68.026,21.345,100.717,36.767c10.741,5.065,20.748,11.393,31.406,16.593c14.939,7.287,31.048,10.814,46.479,16.803"
		/>
	<path fill="none" stroke="#004417" stroke-width="7" d="M345.256,272.374c11.546,1.783,23.731,11.867,34.132,16.941
		c12.781,6.235,24.355,12.508,35.75,20.996c-2.093-4.295-5.104-8.093-8.82-11.225"/>
	<path fill="none" stroke="#004417" stroke-width="7" d="M298.073,242.991c22.368,6.604,47.387,15.907,68.684,25.771
		c15.182,7.028,29.638,18.514,45.114,24.092"/>
	<path fill="none" stroke="#004417" stroke-width="7" d="M369.312,307.989c6.805,3.343,15.066,3.489,21.981,7.065
		c13.328,6.894,22.39,19.203,35.863,26.006c10.14,5.12,21.348,7.52,31.683,12.091c26.809,11.856,47.568,42.115,64.617,64.206
		c8.999,11.66,17.431,22.085,22.373,35.846c3.575,9.949,10.943,22.445,24.25,21.293"/>
	<path fill="none" stroke="#004417" stroke-width="7" d="M144.49,75.595c-0.621-0.905,1.886-1.16,0.293-1.625
		c-1.054,0.706-1.649,0.398-2.771,0.863c3.759,6.065,8.24-0.843,6.446-2.149c-3.599-2.625-10.271-0.635-8.657,4.738
		c1.646,5.486,12.234,3.288,8.684-1.891c-2.822-4.115-9.634-0.376-9.566,3.649c0.209,12.258,16.069-16.725-0.924-8.787
		c-5.465,2.553-2.954,10.246,1.821,11.478c6.724,1.733,14.097-9.184,4.673-8.948"/>
	<path fill="none" stroke="#004417" stroke-width="7" d="M197.226,377.44c6.533,1.144,11.349-0.791,17.578-1.78"/>
	<path fill="none" stroke="#004417" stroke-width="7" d="M196.302,356.072c-0.346-0.992,0.134-1.583-0.925-2.357
		c-2.497,6.1-4.933,10.656-9.175,15.554c1.569,0.489,2.068-0.294,3.624-0.73"/>
	<path fill="none" stroke="#004417" stroke-width="7" d="M356.359,322.237c-9.082,2.661-13.361,12.378-17.132,19.88
		c-3.556,7.07-11.394,15.855-12.167,23.612c-1.365,13.646,16.146,24.018,17.272,38.423"/>
	<path fill="none" stroke="#004417" stroke-width="7" d="M257.364,328.468c-20.972-1.341-28.17,15.694-41.085,27.419
		c-8.245,7.486-20.016,9.844-31.08,9.087"/>
	<path fill="none" stroke="#004417" stroke-width="7" d="M200.927,375.66c-2.808,2.894-4.824,8.452-3.702,11.575"/>
	<path fill="none" stroke="#004417" stroke-width="7" d="M315.651,405.043c1.511-5.412,8.926-9.001,12.953-12.467"/>
	<path fill="none" stroke="#004417" stroke-width="7" d="M392.442,322.237c0.472,13.783,10.449,24.7,20.376,33.61
		c13.237,11.879,25.91,21.957,33.951,38.334c8.311,16.923,16.079,33.462,26.392,49.219c5.816,8.885,11.783,18.399,18.687,26.82
		c7.489,9.133,9.096,10.468,20.868,10.506"/>
	<path fill="none" stroke="#004417" stroke-width="7" d="M432.225,336.482c11.919,3.8,19.191,24.295,24.936,33.816
		c9.38,15.554,17.78,31.64,31.272,44.542c12.521,11.971,23.335,25.032,35.386,37.195c6.263,6.32,21.04,23.889,30.532,21.568"/>
	<path fill="none" stroke="#004417" stroke-width="7" d="M418.347,280.387c4.729,6.684,7.866,13.774,14.851,19.585
		c7.741,6.44,16.482,11.931,24.006,18.68c5.544,4.974,10.042,10.374,14.575,16.07c7.771,9.764,14.505,12.467,26.134,18.676"/>
	<path fill="none" stroke="#004417" stroke-width="7" d="M113.958,105.868c0.289,3.632-0.238,7.387-1.294,10.815
		c0.831-0.144,1.571-0.484,2.221-1.021"/>
	<path fill="none" stroke="#004417" stroke-width="7" d="M128.762,114.772c2.697,3.013,5.666,7.473,7.4,10.685"/>
</g>
</svg>
