<?xml version="1.0" encoding="iso-8859-1"?>
<!-- Generator: Adobe Illustrator 13.0.0, SVG Export Plug-In . SVG Version: 6.00 Build 14948)  -->
<!DOCTYPE svg PUBLIC "-//W3C//DTD SVG 1.1//EN" "http://www.w3.org/Graphics/SVG/1.1/DTD/svg11.dtd">
<svg version="1.1" id="Layer_1" xmlns="http://www.w3.org/2000/svg" xmlns:xlink="http://www.w3.org/1999/xlink" x="0px" y="0px"
	 width="545.307px" height="436.47px" viewBox="0 0 545.307 436.47" style="enable-background:new 0 0 545.307 436.47;"
	 xml:space="preserve">
<path style="fill:none;stroke:#000000;" d="M13.86,5.076c1.373-6.711,7.858-5.271,10.313-0.611c4.5,8.545,3.483,21.398,1.228,30.422
	c-1.51,6.042-6.442,21.94-12.739,24.711c-5.907,2.599-5.309-4.243-4.789-8.98C9.209,38.473,17.748,19.039,26.9,10.899
	c3.913-3.48,11.189-7.396,15.102-2.096c3.617,4.901,0.692,17.241-0.716,22.574c-1.492,5.648-11.879,27.417,3.116,25.67
	c5.141-0.599,12.076-9.134,16.301-11.883c5.829-3.793,12.898-8.403,19.473-10.491c-7.42,3.042-25.425,15.584-19.52,26.09
	c5.568,9.905,25.768-9.984,25.674-17.962c-0.03-2.603-3.646-10.313-7.106-6.634c-2.437,2.591,9.17,2.931,9.922,3.022
	c12.822,1.546,26.099,0.81,36.477-8.436c-2.973,2.881-16.03,18.332-11.339,22.866c6.173,5.967,20.412-14.349,23.288-17.481
	c-3.464,3.95-11.63,16.133-2.168,17.468c10.384,1.464,16.94-14.64,22.376-20.355c0.108,0.566-0.127,1.129-0.207,1.764"/>
<path style="fill:none;stroke:#000000;" d="M186.315,55.974c11.976-3.032,20.102-18.045,29.145-25.233
	c-4.04,3.021-18.256,18.085-8.682,19.873c5.147,0.961,14.82-6.966,18.473-10.207c4.079-3.62,7.716-7.969,11.838-11.409
	c0.535,5.197-8.318,33.307-18.346,25.027c-1.372-1.133-2.249-4.239-0.854-5.862c1.938-2.255,3.173-0.255,5.584,0.477
	c6.156,1.867,10.192,7.294,16.733,8.532"/>
<path style="fill:none;stroke:#000000;" d="M224.639,21.243c-0.995,0.559-1.881,0.431-2.453,1.796
	c2.158,1.676,3.358,0.544,2.828-2.347c-1.448,0.075-1.753,0.853-2.77,1.749"/>
<path style="fill:none;stroke:#000000;" d="M275.537,54.776c15.671-10.315,33.047-22.253,44.399-37.543
	c-4.736,8.436-14.851,13.02-19.86,21.675c-1.25,2.161-4.252,9.078-2.991,11.704c2.04,4.248,10.273,1.764,13.931,0.305
	c12.062-4.813,20.776-11.008,29.204-20.737c3.354-3.872,15.934-17.689,11.395-22.795c-15.219,10.282-27.822,26.986-36.311,43.312
	c4.659-7.391,16.624-19.347,26.009-18.647c0.74,6.22-5.73,9.851-5.924,15.689c-0.279,8.439,8.261,4.918,13.916,3.009
	c5.632-1.901,21.631-7.5,17.146-16.225c-5.1-0.25-12.235,6.746-12.484,11.855c-0.476,9.756,15.404,9.587,22.169,8.996"/>
<path style="fill:none;stroke:#000000;" d="M313.261,10.465c-6.011,1.456-5.218,11.505-2.558,15.569
	c4.422,6.754,13.373,2.748,19.923,1.198"/>
<path style="fill:none;stroke:#000000;" d="M404.878,56.573c9.3-3.655,18.095-11.174,25.91-17.978
	c8.698-7.572,15.332-18.152,24.177-25.06c-5.129,4.653-30.549,25.326-26.776,33.455c4.388,9.454,29.036-8.778,32.929-12.945
	c-2.725,1.471-11.481,8.571-11.238,12.348c0.608,9.452,10.46,0.69,13.072-1.08c3.271-2.215,17.738-12.761,21.61-10.338
	c4.3,2.69-4.619,12.89-6.729,15.457c1.68-2.783,12.685-16.459,16.759-12.301c3.104,3.168-6.668,14.308-7.793,15.58
	c3.781-3.955,7.658-10.529,12.841-12.754c6.421-2.757,6.378-0.49,4.643,4.383c-1.813,5.092-5.008,9.881,2.395,11.277
	c5.623,1.061,14.472-4.304,18.753-7.393c3.787-2.732,8.688-7.397,8.938-12.543c0.399-8.266-5.901-4.107-9.322,0.73
	c-10.845,15.335,8.154,22.454,19.953,13.173"/>
<path style="fill:none;stroke:#000000;" d="M472.542,23.639c-1.743,0.342-2.949,0.078-2.932,2.316
	C471.619,25.589,471.448,25.345,472.542,23.639c-0.486-0.559-1.085-0.958-1.796-1.198"/>
<path style="fill:none;stroke:#000000;" d="M447.393,11.063c-4.33,3.963-11.219,6.43-2.915,11.256
	c7.227,4.2,18.274,0.506,22.077-6.465"/>
<path style="fill:none;stroke:#000000;" d="M40.208,96.692c0.193-0.371,1.046-0.553,0.506-0.777
	c-6.366,1.359-20.444,1.622-25.656-2.816"/>
<path style="fill:none;stroke:#000000;" d="M19.848,115.255c7.654,1.327,15.234-2.369,22.754-0.599"/>
<path style="fill:none;stroke:#000000;" d="M14.459,99.087c-1.91,19.075,3.656,35.055-8.322,51.841
	c0.596-0.311,1.124-0.233,1.735-0.344"/>
<path style="fill:none;stroke:#000000;" d="M72.543,119.447c-9.854,0.07-14.967,3.995-16.736,13.772
	c-1.587,8.772,3.23,19.063,13.744,18.605c8.808-0.383,17.672-13.116,14.997-21.032c-0.919-2.721-3.904-6.017-6.469-7.301
	c-2.281-1.143-8.473-2.283-8.53-2.249"/>
<path style="fill:none;stroke:#000000;" d="M110.268,114.058c-2.896,2.771-1.408,14.249-1.196,18.561
	c0.312,6.344-0.291,13.058,0.029,19.582c-1.6-4.694-0.163-10.08-0.164-14.789c-0.001-4.647-1.485-10.516,0.12-14.984
	c4.045-11.27,16.159-5.625,16.78,4.205"/>
<path style="fill:none;stroke:#000000;" d="M212.064,118.249c-10.917-8.795-40.182,14.602-31.313,26.977
	c11.007,15.362,40.843-13.823,34.172-28.098c-8.8,2.254-13.575,28.077-1.359,27.047c21.351-1.801,41.069-33.551,49.115-50.358
	c3.938-8.227,8.036-21.675-3.939-9.847c-8.015,7.917-13.029,19.374-16.284,29.938c-1.993,6.469-7.108,18.284-2.146,24.101
	c6.927,8.12,21.712-1.29,27.956-6.005c9.228-6.97,15.46-16.766,21.159-26.595c3.122-5.385,13.136-17.617,10.104-24.236
	c-14.855,4.922-21.958,28.116-24.756,41.432c-1.051,5.003-1.643,10.598,3.158,14.088c4.727,3.436,11.985-2.791,14.97,1.916"/>
<path style="fill:none;stroke:#000000;" d="M367.752,119.447c-7.87-14.792-32.857,0.951-31.167,14.041
	c2.819,21.82,30.501-4.091,32.374-15.058c-4.056,6.68-5.84,14.973-10.025,21.963c-6.516,10.881-13.036,20.804-23.032,28.899
	c-2.719,2.202-9.809,9.771-12.984,4.786c-2.964-4.653,5.042-11.781,7.676-14.479c6.816-6.981,15.428-11.762,23.472-17.215
	c5.874-3.982,15.154-9.308,22.67-8.567"/>
<path style="fill:none;stroke:#000000;" d="M403.68,120.045c-6.903,0.086-13.854,2.027-16.928,9.1
	c-3.713,8.542,2.73,11.313,10.208,9.461c5.99-1.483,12.062-4.612,14.339-10.446c1.57-4.026-1.516-14.003-4.532-7.633
	c5.856,4.721,23.882-1.712,30.234-3.638c-5.48,1.2-12.826,4.604-14.934,10.205c-1.681,4.467-0.341,11.535,4.968,12.74
	c12.306,2.794,18.177-14.39,10.733-21.961c3.011,4.939,15.322,2.987,20.314,2.769c8.445-0.37,16.344-3.136,24.458-4.802
	c-6.78-0.328-17.927,4.777-21.839,10.062c-5.452,7.363-0.785,17.157,8.231,12.851c11.136-5.318,21.263-19.307,28.903-28.584
	c5.98-7.26,19.112-19.595,17.142-30.196c-14.929,6.007-25.758,28.13-31.042,42.201c-1.936,5.156-5.424,11.384-0.599,15.685
	c4.046,3.607,13.019,3.609,17.947,2.545"/>
<path style="fill:none;stroke:#000000;" d="M0.088,236.213c11.742-2.101,22.535-14.995,29.823-25.133
	c7.579-10.543,17.588-27.352,12.587-40.645c-7.993-0.301-13.979,21.525-15.913,27.292c-4.224,12.601-7.375,27.796-13.801,39.066
	c0.85-9.254,17.503-37.322,29.185-31.059c-1.013,7.279-8.368,12.492-8.826,20.3c-0.433,7.378,4.502,10.711,10.657,7.048
	c6.95-4.136,12.478-10.265,19.865-14.204c7.151-3.814,15.682-9.008,23.682-10.237c-7.739,2.78-14.414,5.905-20.237,11.9
	c-2.054,2.114-12.484,14.366-8.845,18.106c7.658,7.871,26.386-22.831,27.375-28.647c-3.701,4.826-11.186,19.6-2.365,22.481
	c12.537,4.098,32.497-19.664,39.476-27.227c-1.388,7.137-3.124,15.557-6.35,22.291c-1.036,2.162-3.431,7.401-5.957,8.257
	c-3.26,1.105-7.376-1.808-6.81-5.577c1.002-6.672,9.436-1.512,13.352-0.601c11.766,2.738,21.301,0.335,32.206-4.662
	c16.675-7.643,30.367-20.888,35.205-39.016c1.791-6.712,4.024-24.649-6.315-13.805c-8.156,8.555-13.273,19.292-17.5,30.189
	c-3.506,9.039-9.961,19.994-10.432,28.662c4.815-9.6,16.498-29.528,30.727-23.598c-1.954,6.808-9.747,15.615-7.75,23.427
	c2.208,8.641,19.267-3.985,25.762-6.587"/>
<path style="fill:none;stroke:#000000;" d="M206.076,233.818c10.985-2.312,21.056-15.497,28.129-23.326
	c5.8-6.421,11.424-13.078,16.918-19.773c3.038-3.703,12.857-10.205,12.827-14.834c-7.717,7.238-15.348,16.306-20.763,25.465
	c-2.146,3.63-10.342,14.674-6.587,19.324c3.572,4.423,14.266-1.159,18.212-3.289c9.886-5.335,19.911-11.781,30.769-14.747
	c-6.506,1.337-28.372,13.013-22.661,22.796c5.812,9.956,18.979-14.651,20.941-18.197c-3.057,2.985-5.46,9.135-5.478,13.42
	c-0.027,6.695,3.207,5.908,9.029,3.415c7.14-3.058,12.931-7.317,19.516-11.227c8.49-5.041,18.284-7.608,27.079-12.02
	c-6.415,3.543-31.583,8.985-26.912,20.55c5.251,13.001,23.736-9.434,24.803-16.148c-8.648,11.363-13.568,26.336-21.586,38.426
	c-5.143,7.755-15.768,27.626-25.216,30.351c-8.748,2.522-6.599-5.769-3.621-11.254c4.21-7.758,14.421-18.679,22.207-22.968
	c7.395-4.073,16.274-5.162,23.674-9.53c8.494-5.015,17.764-11.07,24.98-17.797c5.198-4.847,9.874-13.025,16.058-16.335
	c5.627,11.972-23.984,50.22-29.452,39.287c-5.583-11.165,12.906-8.106,17.438-7.423c9.858,1.487,31.468,7.056,40.114,0.447"/>
<path style="fill:none;stroke:#000000;" d="M246.794,179.926c-10.014,13.158,32.694,11.978,37.725,11.976"/>
<path style="fill:none;stroke:#000000;" d="M26.435,265.554C17.665,268.971,12.79,281.448,11,289.956
	c-1.378,6.55-1.12,11.935,6.351,13.499c7.631,1.598,12.697-4.36,19.819-4.98c0.69-0.688,0.705-1.481,0.043-2.381"/>
<path style="fill:none;stroke:#000000;" d="M8.471,272.141c-0.512,5.886,16.111,2.289,20.359,7.785"/>
<path style="fill:none;stroke:#000000;" d="M69.549,278.728c-5.982-1.207-12.078-0.523-15.179,6.156
	c-2.506,5.399-2.729,16.528,4.384,17.242c6.592,0.661,14.236-8.533,15.431-14.283c1.127-5.419-4.965-13.919-8.827-6.121"/>
<path style="fill:none;stroke:#000000;" d="M152.184,278.129c-7.978-0.298-19.291,6.748-19.788,15.583
	c-0.699,12.413,14.35,12.063,21.917,8.981c-0.706-1.111,0.52-0.65,0.866-1.211"/>
<path style="fill:none;stroke:#000000;" d="M180.327,278.728c-6.856-9.082-24.417,22.57-2.994,23.352
	c20.809,0.759,4.954-31.024-1.198-22.153"/>
<path style="fill:none;stroke:#000000;" d="M195.896,305.674c-3.043-7.063,5.356-20.053,5.509-28.096
	c3.671,4.639,5.206,12.866,7.698,18.303c0.416-4.651,1.846-11.522,4.757-15.295c3.298,2.712,1.712,10.806,2.96,14.908
	c1.093,3.591,2.975,7.52,4.824,10.778"/>
<path style="fill:none;stroke:#000000;" d="M234.22,292.5c2.843,1.228,15.548,3.057,18.594,1.231
	c6.939-4.161-1.958-12.55-7.847-12.071c-8.83,0.717-11.48,12.999-8.497,19.685c3.813,8.547,11.542,6.106,18.109,2.533"/>
<path style="fill:none;stroke:#000000;" d="M300.687,275.734c0.409,10.569-0.543,20.837-0.611,31.516
	c-0.247-1.492,0.401-2.639,0.611-3.971"/>
<path style="fill:none;stroke:#000000;" d="M292.303,287.112c-0.324-0.084-1.669-0.996-0.565-0.147
	c3.184,0.562,19.709-1.005,19.728-1.051"/>
<path style="fill:none;stroke:#000000;" d="M327.034,286.513c-8.379-5.521-16.01,20.486-0.599,15.582
	c4.988-1.587,8.153-7.005,7.186-12.034c-0.804-4.176-7.223-9.099-9.581-2.949"/>
<path style="fill:none;stroke:#000000;" d="M374.952,286.133c-5.943-0.488-7.834,11.361-4.89,14.927
	c6.16,7.457,11.428-2.955,9.865-8.719C379.248,289.834,378.006,286.387,374.952,286.133z"/>
<path style="fill:none;stroke:#000000;" d="M392.303,295.495c3.159,0.298,10.696,0.092,12.423-3.145
	c3.107-5.824-5.834-6.674-9.49-3.893c-3.948,3.003-6.351,10.27-2.944,14.254c6.65,7.777,14.115-1.555,20.371-3.624"/>
<path style="fill:none;stroke:#000000;" d="M370.747,274.537c-2.378,5.336,0.306,17.365,0,23.967
	c-0.32,6.922-3.065,13.291-3.225,20.03c0.82-0.566,1.021-1.325,1.428-2.081"/>
<path style="fill:none;stroke:#000000;" d="M44.399,332.022c-7.943,1.129-13.322,2.824-18.594,9.464
	c-3.399,4.281-11.133,17.694-4.027,22.151c12.9,8.089,25.825-21.214,26.126-29.727c-6.245,0.403-12.439,21.807-6.976,26.267
	c3.416,2.789,11.033-1.52,13.769-3.709c6.902-5.522,9.221-13.777,14.177-20.64c-4.561,4.28-12.744,23.73-0.406,19.41
	c7.092-2.482,13.784-9.129,20.845-12.425c5.274-2.462,10.271-6.156,15.998-7.242c-6.455,2.037-14.555,6.838-17.958,12.753
	c-5.608,9.747-2.458,20.256,8.544,10.66c13.545-11.812,23.651-35.643,22.065-53.833c-10.12,1.779-13.793,29.873-14.146,38.202
	c-0.784,18.532,13.828,20.865,28.275,12.2c3.538-2.122,13.417-11.438,9.462-15.91c-3.804-4.302-8.793,2.28-10.343,5.538
	c-2.52,5.297-4.642,15.177,1.21,19.187c3.641,2.494,26.837-1.622,28.146-6"/>
<path style="fill:none;stroke:#000000;" d="M77.333,322.441c-1.221,1.133-2.319,2.163-2.29,4.13
	c1.402-0.646,1.194-1.681,1.691-2.933"/>
<path style="fill:none;stroke:#000000;" d="M227.034,337.411c-7.035,1.791-15.888,2.598-20.237,10.328
	c-3.021,5.368-2.31,12.174,4.101,13.788c14.422,3.632,24.998-22.42,16.228-22.823c-2.836,13.04,24.461,0.936,27.949-0.725
	c7.168-3.413,21.015-12.911,16.973-22.705c-10.516,2.565-15.754,16.135-19.818,24.955c-4.392,9.531-10.029,17.892-12.052,28.483
	c-0.889,4.652-1.988,16.742,4.522,9.564c4.571-5.041,6.249-18.951,0.439-23.234c4.604,0.197,8.836-1.735,13.632-0.865"/>
<path style="fill:none;stroke:#000000;" d="M298.89,364.357c14.775-3.074,29.917-21.693,39.293-32.256
	c-6.713,4.723-19.199,18.926-17.138,27.93c2.518,10.993,19.052,0.65,24.585-3.346c7.258-5.243,13.171-11.891,17.359-19.889
	c1.335-2.55,8.864-16.898,2.048-16.235c-4.426,0.43-10.478,13.798-12.255,17.392c-3.316,6.705-6.844,15.571-8.305,22.614
	c5.575-4.816,10.425-14.75,18.992-13.484c-0.644,6.676-2.618,15.599,6.664,15.477c4.656-0.062,25.71-12.348,19.231-18.003
	c-3.517-3.07-15.38,11.376-7.109,16.688c8.641,5.548,23.406-8.881,27.364-15.269c-3.4,2.354-15.657,17.952-6.086,18.289
	c2.963,0.104,10.9-7.257,13.317-9.19c4.24-3.393,7.417-8.065,11.188-11.613c2.188,2.304,5.501,3.122,8.498,3.619
	c-0.934,3.573-7.343,10.856-5.352,14.88c2.408,4.869,21.986-2.227,23.392-7.184"/>
<path style="fill:none;stroke:#000000;" d="M420.447,334.417c-2.582-0.49-4.164,0.41-4.101,2.903
	c2.226,0.272,1.938-0.894,2.305-2.304"/>
<path style="fill:none;stroke:#000000;" d="M324.639,338.609c-0.618-0.195-1.074-0.989-2.332-0.509
	c1.915,5.607,9.342,2.901,13.633,2.994c0.133,0.587-0.021,1.126,0.076,1.706"/>
<path style="fill:none;stroke:#000000;" d="M86.208,422.078c4.071-6.603,1.556-13.635,2.413-20.765
	c0.866-7.204,3.587-14.017-0.521-21.004c-2.736-4.655-11.028-9.166-16.358-6.57c-8.516,4.147,1.526,11.741,3.629,17.236
	c2.78,7.275-1.162,17.863-1.938,25.275c-0.252,2.412-1.629,8.392,0.439,10.401C77.644,430.316,84.292,425.186,86.208,422.078z"/>
<path style="fill:none;stroke:#000000;" d="M63.561,367.95c2.115,10.2,8.065,22.668,6.439,33.032
	c-1.316,8.389-4.1,16.595-3.355,25.481c0.874-0.594,1.172-1.325,1.706-2.227"/>
<path style="fill:none;stroke:#000000;" d="M109.07,374.537c4.377,17.737-3.759,39.042-7.126,56.164
	c3.792-0.427,9.331-2.539,13.114-2.301c5.051,0.319,7.77,3.465,11.347,6.6c0.579-0.47,0.988-1.062,1.229-1.78"/>
<path style="fill:none;stroke:#000000;" d="M150.986,402.082c-1.575-10.202-13.111,4.073-14.369,7.918
	c-2.146,6.56,0.458,13.332,7.186,14.968c19.109,4.646,15.943-27.352,2.394-24.683"/>
<path style="fill:none;stroke:#000000;" d="M189.908,402.082c-11.467-8.462-18.256,7.695-18.561,16.752
	c-0.233,6.93,4.16,12.472,11.796,12.035c6.217-0.356,10.394-6.557,16.346-7.829"/>
<path style="fill:none;stroke:#000000;" d="M227.034,400.884c-2.41,4.429-5.434,6.189-5.262,11.499
	c0.175,5.384,3.646,12.095,5.262,17.243"/>
<path style="fill:none;stroke:#000000;" d="M218.052,380.525c-1.494,3.17,1.041,10.339,1.198,14.236
	c0.227,5.641-1.07,10.715-1.827,16.184c-1.036,7.48-1.2,13.101-4.7,19.712c0.536-0.422,0.916-0.964,1.138-1.629"/>
<path style="fill:none;stroke:#000000;" d="M268.95,409.866c-2.425-13.619-22.673-0.702-25.328,6.721
	c-2.554,7.14,1.792,13.13,9.013,14.399c6.398,1.126,14.096-2.989,18.739-7.269c1.131-0.053,0.178,0.528,0.569,1.119"/>
<path style="fill:none;stroke:#000000;" d="M286.315,371.542c0.047,11.571,0.507,22.638-0.632,34.179
	c-0.832,8.438-3.881,16.648-4.755,24.922c0.487-4.677,6.112-33.464,12.57-21.374c2.548,4.77-1.113,13.272,0.59,17.972
	c2.449,6.758,6.396,1.989,11.987,2.386"/>
<path style="fill:none;stroke:#000000;" d="M342.004,432.621c-10.521,4.161-4.492-20.786-6.988-23.784
	c-8.236-9.892-19.478,9.808-17.563,17.197c2.943,11.364,13.514,5.88,19.761-0.599"/>
<path style="fill:none;stroke:#000000;" d="M363.561,409.267c-2.803,6.491-3.779,18.173-4.072,25.419
	c0.572-0.872,0.686-1.784,1.078-2.664"/>
<path style="fill:none;stroke:#000000;" d="M365.357,396.093c-0.961,0.411-2.121-0.389-1.705,2.316
	c-0.177,0.061,2.133-0.591,1.706-0.613c-0.341-0.521-0.74-0.29-1.198,0.692"/>
<path style="fill:none;stroke:#000000;" d="M382.124,433.219c-0.004-9.081,4.476-21.972,2.319-29.862
	c0.209,0.976,0.434,1.947,0.675,2.916"/>
<path style="fill:none;stroke:#000000;" d="M403.082,401.483c0-0.903,0-1.808,0-2.711c0.847,9.085-3.092,20.197,0,29.058"/>
<path style="fill:none;stroke:#000000;" d="M387.513,406.273c1.849,7.987,9.102,13.254,12.574,19.761"/>
<path style="fill:none;stroke:#000000;" d="M447.393,406.872c-4.59-6.366-8.812-16.308-18.562-14.535
	c-10.334,1.878-14.579,14.47-2.396,16.929c8.181,1.65,21.16,0.494,14.834,13.774c-3.778,7.933-20.458,12.534-23.379,1.711
	c-0.9-0.852-0.062,0.427-0.438,0.685"/>
</svg>
